<svg width="24" height="24" viewBox="0 0 24 24" fill="none" xmlns="http://www.w3.org/2000/svg">
<circle cx="12" cy="12" r="12" fill="url(#paint0_linear_49_699)"/>
<circle cx="12" cy="12" r="12" fill="url(#paint1_linear_49_699)"/>
<path d="M18.0523 7.48565C17.9626 7.3952 17.8559 7.3234 17.7383 7.27441C17.6207 7.22542 17.4945 7.2002 17.3671 7.2002C17.2397 7.2002 17.1136 7.22542 16.996 7.27441C16.8784 7.3234 16.7717 7.3952 16.682 7.48565L9.49261 14.6847L6.47211 11.6545C6.37897 11.5645 6.26901 11.4938 6.14853 11.4463C6.02804 11.3988 5.89938 11.3755 5.76989 11.3778C5.64041 11.38 5.51263 11.4077 5.39386 11.4594C5.27508 11.511 5.16764 11.5855 5.07767 11.6786C4.98769 11.7718 4.91694 11.8817 4.86946 12.0022C4.82197 12.1227 4.79869 12.2514 4.80093 12.3809C4.80317 12.5103 4.83089 12.6381 4.88251 12.7569C4.93414 12.8757 5.00865 12.9831 5.10179 13.0731L8.80745 16.7787C8.89716 16.8692 9.00389 16.941 9.12149 16.99C9.23909 17.039 9.36522 17.0642 9.49261 17.0642C9.62001 17.0642 9.74614 17.039 9.86373 16.99C9.98133 16.941 10.0881 16.8692 10.1778 16.7787L18.0523 8.90422C18.1503 8.81385 18.2284 8.70418 18.2819 8.5821C18.3354 8.46003 18.363 8.3282 18.363 8.19493C18.363 8.06166 18.3354 7.92984 18.2819 7.80776C18.2284 7.68569 18.1503 7.57601 18.0523 7.48565Z" fill="white"/>
<defs>
<linearGradient id="paint0_linear_49_699" x1="2.16846" y1="9.57774" x2="25.6074" y2="15.1347" gradientUnits="userSpaceOnUse">
<stop stop-color="#C0412C"/>
<stop offset="1" stop-color="#F4C15D"/>
</linearGradient>
<linearGradient id="paint1_linear_49_699" x1="2.16846" y1="9.57774" x2="25.6074" y2="15.1347" gradientUnits="userSpaceOnUse">
<stop stop-color="#C0412C"/>
<stop offset="1" stop-color="#F4C15D"/>
</linearGradient>
</defs>
</svg>
