<svg width="168" height="84" viewBox="0 0 168 84" fill="none" xmlns="http://www.w3.org/2000/svg">
<path d="M61.1489 29.0215C75.7026 20.8285 81.5145 16.3849 79.3854 15.0999C78.2732 14.4486 77.7309 14.4461 75.4459 15.0566C71.0192 16.3041 53.9373 26.1479 53.6618 27.6263C53.2797 29.6769 58.2304 30.6488 61.1489 29.0215Z" fill="#373737"/>
<path d="M28.031 23.2444C29.8002 22.4885 29.7404 22.28 24.8715 14.5138C22.2953 10.3326 20.0426 7.59363 18.2473 6.37087C15.799 4.68099 14.2092 6.06254 15.0095 7.59333C21.8241 20.8048 24.975 24.55 28.031 23.2444Z" fill="#373737"/>
<path d="M67.5761 46.7002C64.8271 45.2997 50.8286 37.8059 49.8117 37.1723C49.3227 36.8838 49.1189 35.8589 49.2303 34.202C49.9139 21.7959 49.7532 8.88669 48.914 7.29933C48.2988 6.0991 45.4707 5.91748 44.4855 6.9675C43.5003 8.01752 37.723 19.4254 33.9895 27.809L31.5406 33.274C2.8537 36.8101 1.41081 36.3438 12.9647 42.3952L23.1681 47.7507C28.9645 50.8047 29.0983 50.8785 29.1477 52.4667C29.2158 54.7492 30.3248 66.0096 30.5661 71.3344C31.0496 82.7737 37.4624 76.9619 45.7964 57.3955L47.7164 52.9175C48.3065 52.9288 51.9925 53.2703 68.2653 52.7993C71.993 52.6551 71.637 48.7399 67.5761 46.7002ZM60.3689 47.775C59.9252 48.0377 49.0104 48.619 46.9598 48.2368C44.48 47.7747 43.6856 48.8603 38.7836 59.5427C35.5462 66.5878 35.3771 66.7039 35.1277 62.2164C34.8444 56.5877 33.394 49.8044 33.3357 48.2638C33.2984 46.8752 30.8056 45.4238 20.9193 41.0156C15.9526 38.807 15.2219 38.2268 17.2835 38.0188C19.8489 37.7567 32.2435 36.1189 33.5788 36.3678C34.8664 36.6077 36.1409 35.8583 36.7891 34.4988L43.2104 20.6947C44.349 18.2916 44.3495 18.2917 44.3698 28.5098C44.4451 40.0211 44.2951 39.4992 47.5954 40.8544C51.7185 42.5603 60.8692 47.4735 60.3689 47.775Z" fill="#373737"/>
<path d="M49.3265 58.8427C49.131 59.8919 59.3479 74.9708 60.9791 76.015C64.4144 78.2342 65.7415 76.4085 63.3802 72.6624C57.0426 62.4513 49.9485 55.5045 49.3265 58.8427Z" fill="#373737"/>
<path d="M12.0363 55.0518C1.72483 59.545 0.409029 60.7802 4.98712 61.6333C7.22847 62.051 23.2225 54.8665 23.0332 53.499C22.7388 51.3716 19.3482 51.8254 12.0363 55.0518Z" fill="#373737"/>
<path fill-rule="evenodd" clip-rule="evenodd" d="M165.511 43.2051C165.583 57.3914 164.427 60.4973 158.976 60.605C155.296 60.6911 92.3603 67.0801 79.8009 67.3329C73.0852 67.464 73.9131 64.4504 77.273 61.6736C79.2364 60.0416 91.3758 49.9268 93.7571 47.994C86.1423 42.9422 74.9876 36.1446 73.7654 34.9994C70.0033 31.4609 74.512 30.9727 76.2007 30.7046C83.8368 29.452 132.056 24.2022 140.717 23.8322C148.478 23.4744 157.165 22.8177 157.832 23.0009C158.123 23.083 158.692 22.8794 159.165 22.5727C162.215 20.5676 165.453 31.2315 165.511 43.2051Z" fill="#FDCCB4"/>
<path fill-rule="evenodd" clip-rule="evenodd" d="M165.612 43.2051C165.684 57.3914 164.528 60.4973 159.077 60.605C155.398 60.6911 92.4619 67.0801 79.9024 67.3329C73.1867 67.464 74.0147 64.4504 77.3746 61.6736C79.3379 60.0416 91.4774 49.9268 93.8587 47.994C86.2439 42.9422 75.0892 36.1446 73.867 34.9994C70.1048 31.4609 74.6136 30.9727 76.3022 30.7046C83.9383 29.452 132.158 24.2022 140.819 23.8322C148.58 23.4744 157.266 22.8177 157.934 23.0009C158.224 23.083 158.793 22.8794 159.267 22.5727C162.316 20.5676 165.555 31.2315 165.612 43.2051ZM159.857 26.1992C158.543 26.0292 79.9506 33.9717 79.984 34.2803C79.9931 34.3645 87.5026 37.9231 96.1868 44.7895C100.651 48.3089 97.2858 50.5185 92.5262 54.412C89.3181 57.0305 85.031 61.1284 83.1081 62.6141C81.08 64.1679 80.9936 64.1489 96.6904 62.7047C111.02 61.3801 152.835 57.3066 156.276 57.3598C159.123 57.3921 162.308 55.8549 162.725 54.2484C163.42 51.5615 164.404 26.8424 159.857 26.1992Z" fill="#373737"/>
</svg>
