<svg width="248" height="174" viewBox="0 0 248 174" fill="none" xmlns="http://www.w3.org/2000/svg">
<g filter="url(#filter0_d_189_2981)">
<rect x="10" y="8" width="228" height="42" rx="21" fill="white"/>
</g>
<path d="M37.833 35C39.233 35 40.453 35.819 41.028 37.028C41.142 37.2675 41.1563 37.5425 41.0676 37.7925C40.9789 38.0424 40.7945 38.247 40.555 38.361C40.3155 38.475 40.0405 38.4893 39.7905 38.4006C39.5406 38.3119 39.336 38.1275 39.222 37.888C39.0984 37.6236 38.9023 37.3997 38.6563 37.2425C38.4104 37.0853 38.1249 37.0012 37.833 37H33C32.7348 37 32.4804 36.8946 32.2929 36.7071C32.1054 36.5196 32 36.2652 32 36C32 35.7348 32.1054 35.4804 32.2929 35.2929C32.4804 35.1054 32.7348 35 33 35H37.833ZM51 35C51.2652 35 51.5196 35.1054 51.7071 35.2929C51.8946 35.4804 52 35.7348 52 36C52 36.2652 51.8946 36.5196 51.7071 36.7071C51.5196 36.8946 51.2652 37 51 37H46.167C45.6 37 45.032 37.357 44.778 37.889C44.664 38.1285 44.4594 38.3129 44.2095 38.4016C43.9595 38.4903 43.6845 38.476 43.445 38.362C43.2055 38.248 43.0211 38.0434 42.9324 37.7935C42.8437 37.5435 42.858 37.2685 42.972 37.029C43.2618 36.4261 43.7147 35.9164 44.2794 35.5578C44.8442 35.1991 45.4981 35.0059 46.167 35H51Z" fill="url(#paint0_linear_189_2981)"/>
<path fill-rule="evenodd" clip-rule="evenodd" d="M38.889 20.006C39.4874 20.0373 40.0728 20.1925 40.6081 20.4617C41.1434 20.7309 41.617 21.1083 41.999 21.57C42.405 21.0792 42.9143 20.684 43.4906 20.4126C44.0669 20.1412 44.696 20.0003 45.333 20H52C52.2652 20 52.5196 20.1054 52.7071 20.2929C52.8946 20.4804 53 20.7348 53 21V33.001C53 33.2662 52.8946 33.5206 52.7071 33.7081C52.5196 33.8956 52.2652 34.001 52 34.001L45.333 34C44.675 34 44.248 34.162 43.961 34.354C43.6813 34.5458 43.4571 34.808 43.311 35.114C43.1255 35.4939 43.0197 35.9077 43 36.33V36.339L42.995 36.436C42.9702 36.6827 42.8547 36.9114 42.6709 37.0777C42.487 37.244 42.2479 37.3361 42 37.3361C41.7521 37.3361 41.513 37.244 41.3291 37.0777C41.1453 36.9114 41.0298 36.6827 41.005 36.436L41 36.334V36.329L40.996 36.261C40.9697 35.8612 40.8661 35.4704 40.691 35.11C40.5489 34.8044 40.328 34.5421 40.051 34.35C39.771 34.16 39.353 34 38.708 34H32C31.7348 34 31.4804 33.8946 31.2929 33.7071C31.1054 33.5196 31 33.2652 31 33V21C31 20.7348 31.1054 20.4804 31.2929 20.2929C31.4804 20.1054 31.7348 20 32 20H38.667L38.889 20.006ZM41 22V34.334H43V22H41Z" fill="url(#paint1_linear_189_2981)"/>
<path d="M64.972 36V34.776L68.68 30.762C69.412 29.982 69.994 29.34 70.426 28.836C70.87 28.332 71.194 27.882 71.398 27.486C71.602 27.09 71.704 26.67 71.704 26.226C71.704 25.494 71.488 24.93 71.056 24.534C70.624 24.138 70.054 23.94 69.346 23.94C68.626 23.94 68.014 24.15 67.51 24.57C67.006 24.978 66.658 25.56 66.466 26.316L64.864 25.902C65.02 25.182 65.308 24.558 65.728 24.03C66.148 23.502 66.67 23.094 67.294 22.806C67.918 22.518 68.602 22.374 69.346 22.374C70.162 22.374 70.876 22.536 71.488 22.86C72.112 23.172 72.598 23.61 72.946 24.174C73.306 24.738 73.486 25.392 73.486 26.136C73.486 26.628 73.384 27.108 73.18 27.576C72.976 28.044 72.676 28.542 72.28 29.07C71.884 29.586 71.368 30.186 70.732 30.87L67.42 34.47H73.774V36H64.972ZM81.3094 36.216C80.2414 36.216 79.3054 35.928 78.5014 35.352C77.7094 34.764 77.0914 33.954 76.6474 32.922C76.2034 31.878 75.9814 30.666 75.9814 29.286C75.9814 27.906 76.2034 26.7 76.6474 25.668C77.0914 24.624 77.7094 23.814 78.5014 23.238C79.2934 22.662 80.2234 22.374 81.2914 22.374C82.3594 22.374 83.2894 22.662 84.0814 23.238C84.8734 23.814 85.4914 24.624 85.9354 25.668C86.3914 26.7 86.6194 27.906 86.6194 29.286C86.6194 30.666 86.3974 31.878 85.9534 32.922C85.5094 33.966 84.8854 34.776 84.0814 35.352C83.2894 35.928 82.3654 36.216 81.3094 36.216ZM81.3094 34.578C82.0294 34.578 82.6534 34.362 83.1814 33.93C83.7094 33.486 84.1174 32.868 84.4054 32.076C84.7054 31.284 84.8554 30.354 84.8554 29.286C84.8554 28.218 84.7054 27.288 84.4054 26.496C84.1174 25.704 83.7034 25.092 83.1634 24.66C82.6354 24.228 82.0114 24.012 81.2914 24.012C80.5714 24.012 79.9474 24.228 79.4194 24.66C78.8914 25.092 78.4774 25.704 78.1774 26.496C77.8894 27.288 77.7454 28.218 77.7454 29.286C77.7454 30.342 77.8894 31.266 78.1774 32.058C78.4774 32.85 78.8914 33.468 79.4194 33.912C79.9594 34.356 80.5894 34.578 81.3094 34.578ZM94.3348 36.216C93.2668 36.216 92.3308 35.928 91.5268 35.352C90.7348 34.764 90.1168 33.954 89.6728 32.922C89.2288 31.878 89.0068 30.666 89.0068 29.286C89.0068 27.906 89.2288 26.7 89.6728 25.668C90.1168 24.624 90.7348 23.814 91.5268 23.238C92.3188 22.662 93.2488 22.374 94.3168 22.374C95.3848 22.374 96.3148 22.662 97.1068 23.238C97.8988 23.814 98.5168 24.624 98.9608 25.668C99.4168 26.7 99.6448 27.906 99.6448 29.286C99.6448 30.666 99.4228 31.878 98.9788 32.922C98.5348 33.966 97.9108 34.776 97.1068 35.352C96.3148 35.928 95.3908 36.216 94.3348 36.216ZM94.3348 34.578C95.0548 34.578 95.6788 34.362 96.2068 33.93C96.7348 33.486 97.1428 32.868 97.4308 32.076C97.7308 31.284 97.8808 30.354 97.8808 29.286C97.8808 28.218 97.7308 27.288 97.4308 26.496C97.1428 25.704 96.7288 25.092 96.1888 24.66C95.6608 24.228 95.0368 24.012 94.3168 24.012C93.5968 24.012 92.9728 24.228 92.4448 24.66C91.9168 25.092 91.5028 25.704 91.2028 26.496C90.9148 27.288 90.7708 28.218 90.7708 29.286C90.7708 30.342 90.9148 31.266 91.2028 32.058C91.5028 32.85 91.9168 33.468 92.4448 33.912C92.9848 34.356 93.6148 34.578 94.3348 34.578ZM105.668 36V32.274H101.942V30.708H105.668V27H107.234V30.708H110.942V32.274H107.234V36H105.668ZM116.664 36V22.59H121.398C122.286 22.59 123.066 22.758 123.738 23.094C124.41 23.43 124.932 23.91 125.304 24.534C125.688 25.158 125.88 25.89 125.88 26.73C125.88 27.57 125.688 28.302 125.304 28.926C124.932 29.538 124.41 30.018 123.738 30.366C123.078 30.702 122.298 30.87 121.398 30.87H118.428V36H116.664ZM118.428 29.25H121.452C121.992 29.25 122.46 29.148 122.856 28.944C123.252 28.74 123.558 28.446 123.774 28.062C123.99 27.678 124.098 27.234 124.098 26.73C124.098 26.214 123.99 25.77 123.774 25.398C123.558 25.014 123.252 24.72 122.856 24.516C122.46 24.312 121.992 24.21 121.452 24.21H118.428V29.25ZM128.067 36V26.298H129.705V28.08L129.525 27.828C129.753 27.276 130.101 26.868 130.569 26.604C131.037 26.328 131.607 26.19 132.279 26.19H132.873V27.774H132.027C131.343 27.774 130.791 27.99 130.371 28.422C129.951 28.842 129.741 29.442 129.741 30.222V36H128.067ZM138.968 36.216C138.032 36.216 137.186 36 136.43 35.568C135.674 35.124 135.074 34.518 134.63 33.75C134.186 32.982 133.964 32.112 133.964 31.14C133.964 30.168 134.18 29.304 134.612 28.548C135.056 27.792 135.656 27.192 136.412 26.748C137.168 26.304 138.02 26.082 138.968 26.082C139.904 26.082 140.75 26.304 141.506 26.748C142.262 27.18 142.856 27.774 143.288 28.53C143.732 29.286 143.954 30.156 143.954 31.14C143.954 32.124 143.726 33 143.27 33.768C142.814 34.524 142.208 35.124 141.452 35.568C140.708 36 139.88 36.216 138.968 36.216ZM138.968 34.596C139.568 34.596 140.108 34.446 140.588 34.146C141.08 33.846 141.464 33.432 141.74 32.904C142.028 32.376 142.172 31.788 142.172 31.14C142.172 30.48 142.028 29.898 141.74 29.394C141.464 28.878 141.08 28.47 140.588 28.17C140.108 27.858 139.568 27.702 138.968 27.702C138.356 27.702 137.804 27.858 137.312 28.17C136.832 28.47 136.448 28.878 136.16 29.394C135.872 29.898 135.728 30.48 135.728 31.14C135.728 31.788 135.872 32.376 136.16 32.904C136.448 33.432 136.832 33.846 137.312 34.146C137.804 34.446 138.356 34.596 138.968 34.596ZM150.764 39.96C150.08 39.96 149.444 39.852 148.856 39.636C148.28 39.42 147.782 39.12 147.362 38.736C146.954 38.364 146.642 37.926 146.426 37.422L147.992 36.702C148.16 37.158 148.478 37.542 148.946 37.854C149.426 38.178 150.026 38.34 150.746 38.34C151.298 38.34 151.796 38.232 152.24 38.016C152.696 37.812 153.056 37.5 153.32 37.08C153.584 36.672 153.716 36.174 153.716 35.586V33.408L154.022 33.732C153.686 34.392 153.2 34.896 152.564 35.244C151.94 35.592 151.25 35.766 150.494 35.766C149.582 35.766 148.766 35.556 148.046 35.136C147.326 34.704 146.762 34.122 146.354 33.39C145.946 32.646 145.742 31.824 145.742 30.924C145.742 30.012 145.946 29.19 146.354 28.458C146.762 27.726 147.32 27.15 148.028 26.73C148.748 26.298 149.564 26.082 150.476 26.082C151.232 26.082 151.916 26.256 152.528 26.604C153.152 26.94 153.65 27.408 154.022 28.008L153.77 28.458V26.298H155.408V35.586C155.408 36.426 155.21 37.176 154.814 37.836C154.418 38.496 153.866 39.012 153.158 39.384C152.462 39.768 151.664 39.96 150.764 39.96ZM150.638 34.146C151.214 34.146 151.73 34.002 152.186 33.714C152.654 33.426 153.026 33.042 153.302 32.562C153.578 32.07 153.716 31.524 153.716 30.924C153.716 30.336 153.578 29.796 153.302 29.304C153.026 28.812 152.654 28.422 152.186 28.134C151.73 27.846 151.214 27.702 150.638 27.702C150.05 27.702 149.516 27.846 149.036 28.134C148.556 28.422 148.178 28.812 147.902 29.304C147.638 29.784 147.506 30.324 147.506 30.924C147.506 31.524 147.638 32.07 147.902 32.562C148.178 33.042 148.55 33.426 149.018 33.714C149.498 34.002 150.038 34.146 150.638 34.146ZM158.003 36V26.298H159.641V28.08L159.461 27.828C159.689 27.276 160.037 26.868 160.505 26.604C160.973 26.328 161.543 26.19 162.215 26.19H162.809V27.774H161.963C161.279 27.774 160.727 27.99 160.307 28.422C159.887 28.842 159.677 29.442 159.677 30.222V36H158.003ZM167.14 36.216C166.504 36.216 165.94 36.102 165.448 35.874C164.968 35.634 164.59 35.31 164.314 34.902C164.038 34.482 163.9 34.002 163.9 33.462C163.9 32.946 164.008 32.484 164.224 32.076C164.452 31.656 164.8 31.302 165.268 31.014C165.748 30.726 166.348 30.522 167.068 30.402L170.668 29.808V31.212L167.446 31.752C166.822 31.86 166.366 32.058 166.078 32.346C165.802 32.634 165.664 32.988 165.664 33.408C165.664 33.804 165.82 34.134 166.132 34.398C166.456 34.662 166.858 34.794 167.338 34.794C167.95 34.794 168.478 34.668 168.922 34.416C169.378 34.152 169.732 33.798 169.984 33.354C170.248 32.91 170.38 32.418 170.38 31.878V29.412C170.38 28.884 170.182 28.458 169.786 28.134C169.402 27.798 168.892 27.63 168.256 27.63C167.704 27.63 167.212 27.774 166.78 28.062C166.36 28.338 166.048 28.71 165.844 29.178L164.386 28.422C164.566 27.978 164.854 27.582 165.25 27.234C165.646 26.874 166.108 26.592 166.636 26.388C167.164 26.184 167.716 26.082 168.292 26.082C169.036 26.082 169.69 26.226 170.254 26.514C170.818 26.79 171.256 27.18 171.568 27.684C171.892 28.176 172.054 28.752 172.054 29.412V36H170.416V34.164L170.722 34.272C170.518 34.656 170.242 34.992 169.894 35.28C169.546 35.568 169.138 35.796 168.67 35.964C168.202 36.132 167.692 36.216 167.14 36.216ZM174.65 36V26.298H176.288V28.278L176.054 27.972C176.294 27.36 176.678 26.892 177.206 26.568C177.734 26.244 178.328 26.082 178.988 26.082C179.744 26.082 180.422 26.292 181.022 26.712C181.634 27.132 182.054 27.684 182.282 28.368L181.814 28.386C182.066 27.63 182.492 27.06 183.092 26.676C183.692 26.28 184.358 26.082 185.09 26.082C185.762 26.082 186.368 26.238 186.908 26.55C187.46 26.862 187.898 27.294 188.222 27.846C188.546 28.398 188.708 29.022 188.708 29.718V36H187.016V30.258C187.016 29.718 186.92 29.262 186.728 28.89C186.536 28.518 186.272 28.23 185.936 28.026C185.612 27.81 185.228 27.702 184.784 27.702C184.352 27.702 183.962 27.81 183.614 28.026C183.278 28.23 183.008 28.524 182.804 28.908C182.612 29.28 182.516 29.73 182.516 30.258V36H180.824V30.258C180.824 29.718 180.728 29.262 180.536 28.89C180.344 28.518 180.08 28.23 179.744 28.026C179.42 27.81 179.036 27.702 178.592 27.702C178.16 27.702 177.77 27.81 177.422 28.026C177.086 28.23 176.816 28.524 176.612 28.908C176.42 29.28 176.324 29.73 176.324 30.258V36H174.65ZM194.559 36.216C193.587 36.216 192.741 35.976 192.021 35.496C191.301 35.016 190.791 34.368 190.491 33.552L191.823 32.904C192.099 33.48 192.477 33.936 192.957 34.272C193.437 34.608 193.971 34.776 194.559 34.776C195.087 34.776 195.525 34.65 195.873 34.398C196.221 34.146 196.395 33.816 196.395 33.408C196.395 33.12 196.311 32.892 196.143 32.724C195.987 32.544 195.795 32.406 195.567 32.31C195.339 32.202 195.129 32.124 194.937 32.076L193.479 31.662C192.603 31.41 191.961 31.05 191.553 30.582C191.157 30.114 190.959 29.568 190.959 28.944C190.959 28.368 191.103 27.87 191.391 27.45C191.691 27.018 192.093 26.682 192.597 26.442C193.113 26.202 193.689 26.082 194.325 26.082C195.177 26.082 195.939 26.298 196.611 26.73C197.295 27.162 197.781 27.768 198.069 28.548L196.701 29.178C196.485 28.674 196.161 28.278 195.729 27.99C195.297 27.69 194.811 27.54 194.271 27.54C193.779 27.54 193.389 27.666 193.101 27.918C192.813 28.158 192.669 28.464 192.669 28.836C192.669 29.112 192.741 29.34 192.885 29.52C193.029 29.688 193.203 29.82 193.407 29.916C193.611 30 193.809 30.072 194.001 30.132L195.585 30.6C196.377 30.828 196.989 31.182 197.421 31.662C197.865 32.142 198.087 32.718 198.087 33.39C198.087 33.93 197.937 34.416 197.637 34.848C197.337 35.28 196.923 35.616 196.395 35.856C195.867 36.096 195.255 36.216 194.559 36.216Z" fill="black" fill-opacity="0.8"/>
<g filter="url(#filter1_d_189_2981)">
<rect x="10" y="64" width="228" height="42" rx="21" fill="white"/>
</g>
<path d="M46.5956 85.2353C48.4886 85.2353 50.1171 83.5451 50.1171 81.3439C50.1171 79.1693 48.48 77.5583 46.5956 77.5583C44.7116 77.5583 43.074 79.2045 43.074 81.3615C43.074 83.5451 44.7026 85.2353 46.5956 85.2353ZM36.462 85.4381C38.0996 85.4381 39.5263 83.9586 39.5263 82.0481C39.5263 80.1555 38.0906 78.7553 36.462 78.7553C34.8249 78.7553 33.3806 80.1906 33.3896 82.0661C33.3896 83.9586 34.8159 85.4381 36.4624 85.4381M31.5497 93.3881H38.2406C37.3251 92.0586 38.4433 89.3822 40.3363 87.9208C39.3591 87.2693 38.0996 86.7851 36.4534 86.7851C32.4827 86.7846 30 89.7161 30 92.1551C30 92.9479 30.4401 93.3881 31.5497 93.3881ZM41.058 93.3881H52.1246C53.5067 93.3881 54 92.9916 54 92.2168C54 89.9454 51.156 86.8112 46.587 86.8112C42.0266 86.8112 39.1826 89.9454 39.1826 92.2172C39.1826 92.9916 39.6754 93.3881 41.058 93.3881Z" fill="url(#paint2_linear_189_2981)"/>
<path d="M65.494 92V78.59H74.224V80.21H67.258V84.458H73.864V86.078H67.258V90.38H74.224V92H65.494ZM75.114 92L78.516 87.14L75.132 82.298H77.148L80.046 86.51H79.02L81.882 82.298H83.916L80.532 87.14L83.898 92H81.882L79.02 87.788H80.028L77.166 92H75.114ZM85.4054 95.6V82.298H87.0434V84.386L86.8274 83.972C87.1874 83.396 87.6794 82.94 88.3034 82.604C88.9274 82.256 89.6414 82.082 90.4454 82.082C91.3574 82.082 92.1734 82.304 92.8934 82.748C93.6254 83.192 94.2014 83.798 94.6214 84.566C95.0414 85.322 95.2514 86.186 95.2514 87.158C95.2514 88.106 95.0414 88.964 94.6214 89.732C94.2014 90.5 93.6254 91.106 92.8934 91.55C92.1734 91.994 91.3514 92.216 90.4274 92.216C89.6474 92.216 88.9334 92.042 88.2854 91.694C87.6494 91.346 87.1574 90.854 86.8094 90.218L87.0794 89.93V95.6H85.4054ZM90.3014 90.596C90.9134 90.596 91.4594 90.446 91.9394 90.146C92.4194 89.846 92.7914 89.438 93.0554 88.922C93.3314 88.394 93.4694 87.806 93.4694 87.158C93.4694 86.486 93.3314 85.898 93.0554 85.394C92.7914 84.878 92.4194 84.47 91.9394 84.17C91.4594 83.858 90.9134 83.702 90.3014 83.702C89.6894 83.702 89.1374 83.852 88.6454 84.152C88.1654 84.452 87.7814 84.866 87.4934 85.394C87.2174 85.91 87.0794 86.498 87.0794 87.158C87.0794 87.806 87.2174 88.394 87.4934 88.922C87.7814 89.438 88.1654 89.846 88.6454 90.146C89.1374 90.446 89.6894 90.596 90.3014 90.596ZM101.91 92.216C100.974 92.216 100.14 91.994 99.4084 91.55C98.6764 91.106 98.1004 90.5 97.6804 89.732C97.2604 88.952 97.0504 88.082 97.0504 87.122C97.0504 86.15 97.2544 85.286 97.6624 84.53C98.0824 83.774 98.6464 83.18 99.3544 82.748C100.074 82.304 100.878 82.082 101.766 82.082C102.486 82.082 103.122 82.214 103.674 82.478C104.238 82.73 104.712 83.078 105.096 83.522C105.492 83.954 105.792 84.452 105.996 85.016C106.212 85.568 106.32 86.144 106.32 86.744C106.32 86.876 106.308 87.026 106.284 87.194C106.272 87.35 106.254 87.5 106.23 87.644H98.2744V86.204H105.258L104.466 86.852C104.574 86.228 104.514 85.67 104.286 85.178C104.058 84.686 103.722 84.296 103.278 84.008C102.834 83.72 102.33 83.576 101.766 83.576C101.202 83.576 100.686 83.72 100.218 84.008C99.7504 84.296 99.3844 84.71 99.1204 85.25C98.8684 85.778 98.7664 86.408 98.8144 87.14C98.7664 87.848 98.8744 88.472 99.1384 89.012C99.4144 89.54 99.7984 89.954 100.29 90.254C100.794 90.542 101.34 90.686 101.928 90.686C102.576 90.686 103.122 90.536 103.566 90.236C104.01 89.936 104.37 89.552 104.646 89.084L106.05 89.804C105.858 90.248 105.558 90.656 105.15 91.028C104.754 91.388 104.28 91.676 103.728 91.892C103.188 92.108 102.582 92.216 101.91 92.216ZM108.503 92V82.298H110.141V84.08L109.961 83.828C110.189 83.276 110.537 82.868 111.005 82.604C111.473 82.328 112.043 82.19 112.715 82.19H113.309V83.774H112.463C111.779 83.774 111.227 83.99 110.807 84.422C110.387 84.842 110.177 85.442 110.177 86.222V92H108.503ZM118.826 92.108C117.878 92.108 117.146 91.838 116.63 91.298C116.126 90.758 115.874 89.996 115.874 89.012V83.9H114.11V82.298H114.47C114.902 82.298 115.244 82.166 115.496 81.902C115.748 81.638 115.874 81.29 115.874 80.858V80.066H117.548V82.298H119.726V83.9H117.548V88.958C117.548 89.282 117.596 89.564 117.692 89.804C117.8 90.044 117.974 90.236 118.214 90.38C118.454 90.512 118.772 90.578 119.168 90.578C119.252 90.578 119.354 90.572 119.474 90.56C119.606 90.548 119.726 90.536 119.834 90.524V92C119.678 92.036 119.504 92.06 119.312 92.072C119.12 92.096 118.958 92.108 118.826 92.108ZM125.33 92V78.59H127.094V92H125.33ZM129.878 92V82.298H131.516V84.188L131.246 84.026C131.486 83.414 131.87 82.94 132.398 82.604C132.938 82.256 133.568 82.082 134.288 82.082C134.984 82.082 135.602 82.238 136.142 82.55C136.694 82.862 137.126 83.294 137.438 83.846C137.762 84.398 137.924 85.022 137.924 85.718V92H136.232V86.258C136.232 85.718 136.136 85.262 135.944 84.89C135.752 84.518 135.476 84.23 135.116 84.026C134.768 83.81 134.366 83.702 133.91 83.702C133.454 83.702 133.046 83.81 132.686 84.026C132.338 84.23 132.062 84.524 131.858 84.908C131.654 85.28 131.552 85.73 131.552 86.258V92H129.878ZM143.793 92.216C142.821 92.216 141.975 91.976 141.255 91.496C140.535 91.016 140.025 90.368 139.725 89.552L141.057 88.904C141.333 89.48 141.711 89.936 142.191 90.272C142.671 90.608 143.205 90.776 143.793 90.776C144.321 90.776 144.759 90.65 145.107 90.398C145.455 90.146 145.629 89.816 145.629 89.408C145.629 89.12 145.545 88.892 145.377 88.724C145.221 88.544 145.029 88.406 144.801 88.31C144.573 88.202 144.363 88.124 144.171 88.076L142.713 87.662C141.837 87.41 141.195 87.05 140.787 86.582C140.391 86.114 140.193 85.568 140.193 84.944C140.193 84.368 140.337 83.87 140.625 83.45C140.925 83.018 141.327 82.682 141.831 82.442C142.347 82.202 142.923 82.082 143.559 82.082C144.411 82.082 145.173 82.298 145.845 82.73C146.529 83.162 147.015 83.768 147.303 84.548L145.935 85.178C145.719 84.674 145.395 84.278 144.963 83.99C144.531 83.69 144.045 83.54 143.505 83.54C143.013 83.54 142.623 83.666 142.335 83.918C142.047 84.158 141.903 84.464 141.903 84.836C141.903 85.112 141.975 85.34 142.119 85.52C142.263 85.688 142.437 85.82 142.641 85.916C142.845 86 143.043 86.072 143.235 86.132L144.819 86.6C145.611 86.828 146.223 87.182 146.655 87.662C147.099 88.142 147.321 88.718 147.321 89.39C147.321 89.93 147.171 90.416 146.871 90.848C146.571 91.28 146.157 91.616 145.629 91.856C145.101 92.096 144.489 92.216 143.793 92.216ZM153.455 92.108C152.507 92.108 151.775 91.838 151.259 91.298C150.755 90.758 150.503 89.996 150.503 89.012V83.9H148.739V82.298H149.099C149.531 82.298 149.873 82.166 150.125 81.902C150.377 81.638 150.503 81.29 150.503 80.858V80.066H152.177V82.298H154.355V83.9H152.177V88.958C152.177 89.282 152.225 89.564 152.321 89.804C152.429 90.044 152.603 90.236 152.843 90.38C153.083 90.512 153.401 90.578 153.797 90.578C153.881 90.578 153.983 90.572 154.103 90.56C154.235 90.548 154.355 90.536 154.463 90.524V92C154.307 92.036 154.133 92.06 153.941 92.072C153.749 92.096 153.587 92.108 153.455 92.108ZM156.65 92V82.298H158.288V84.08L158.108 83.828C158.336 83.276 158.684 82.868 159.152 82.604C159.62 82.328 160.19 82.19 160.862 82.19H161.456V83.774H160.61C159.926 83.774 159.374 83.99 158.954 84.422C158.534 84.842 158.324 85.442 158.324 86.222V92H156.65ZM166.38 92.216C165.684 92.216 165.054 92.054 164.49 91.73C163.938 91.406 163.506 90.956 163.194 90.38C162.894 89.792 162.744 89.12 162.744 88.364V82.298H164.418V88.184C164.418 88.664 164.514 89.084 164.706 89.444C164.91 89.804 165.186 90.086 165.534 90.29C165.894 90.494 166.302 90.596 166.758 90.596C167.214 90.596 167.616 90.494 167.964 90.29C168.324 90.086 168.6 89.792 168.792 89.408C168.996 89.024 169.098 88.568 169.098 88.04V82.298H170.79V92H169.152V90.11L169.422 90.272C169.194 90.884 168.804 91.364 168.252 91.712C167.712 92.048 167.088 92.216 166.38 92.216ZM177.884 92.216C176.936 92.216 176.09 91.994 175.346 91.55C174.614 91.106 174.038 90.5 173.618 89.732C173.198 88.964 172.988 88.1 172.988 87.14C172.988 86.168 173.198 85.304 173.618 84.548C174.038 83.792 174.614 83.192 175.346 82.748C176.09 82.304 176.936 82.082 177.884 82.082C178.52 82.082 179.114 82.196 179.666 82.424C180.218 82.652 180.704 82.958 181.124 83.342C181.544 83.726 181.85 84.176 182.042 84.692L180.548 85.412C180.32 84.908 179.972 84.5 179.504 84.188C179.036 83.864 178.496 83.702 177.884 83.702C177.296 83.702 176.762 83.852 176.282 84.152C175.814 84.452 175.442 84.86 175.166 85.376C174.89 85.892 174.752 86.486 174.752 87.158C174.752 87.806 174.89 88.394 175.166 88.922C175.442 89.438 175.814 89.846 176.282 90.146C176.762 90.446 177.296 90.596 177.884 90.596C178.496 90.596 179.036 90.44 179.504 90.128C179.972 89.804 180.32 89.378 180.548 88.85L182.042 89.606C181.85 90.11 181.544 90.56 181.124 90.956C180.704 91.34 180.218 91.646 179.666 91.874C179.114 92.102 178.52 92.216 177.884 92.216ZM188.172 92.108C187.224 92.108 186.492 91.838 185.976 91.298C185.472 90.758 185.22 89.996 185.22 89.012V83.9H183.456V82.298H183.816C184.248 82.298 184.59 82.166 184.842 81.902C185.094 81.638 185.22 81.29 185.22 80.858V80.066H186.894V82.298H189.072V83.9H186.894V88.958C186.894 89.282 186.942 89.564 187.038 89.804C187.146 90.044 187.32 90.236 187.56 90.38C187.8 90.512 188.118 90.578 188.514 90.578C188.598 90.578 188.7 90.572 188.82 90.56C188.952 90.548 189.072 90.536 189.18 90.524V92C189.024 92.036 188.85 92.06 188.658 92.072C188.466 92.096 188.304 92.108 188.172 92.108ZM195.711 92.216C194.775 92.216 193.929 92 193.173 91.568C192.417 91.124 191.817 90.518 191.373 89.75C190.929 88.982 190.707 88.112 190.707 87.14C190.707 86.168 190.923 85.304 191.355 84.548C191.799 83.792 192.399 83.192 193.155 82.748C193.911 82.304 194.763 82.082 195.711 82.082C196.647 82.082 197.493 82.304 198.249 82.748C199.005 83.18 199.599 83.774 200.031 84.53C200.475 85.286 200.697 86.156 200.697 87.14C200.697 88.124 200.469 89 200.013 89.768C199.557 90.524 198.951 91.124 198.195 91.568C197.451 92 196.623 92.216 195.711 92.216ZM195.711 90.596C196.311 90.596 196.851 90.446 197.331 90.146C197.823 89.846 198.207 89.432 198.483 88.904C198.771 88.376 198.915 87.788 198.915 87.14C198.915 86.48 198.771 85.898 198.483 85.394C198.207 84.878 197.823 84.47 197.331 84.17C196.851 83.858 196.311 83.702 195.711 83.702C195.099 83.702 194.547 83.858 194.055 84.17C193.575 84.47 193.191 84.878 192.903 85.394C192.615 85.898 192.471 86.48 192.471 87.14C192.471 87.788 192.615 88.376 192.903 88.904C193.191 89.432 193.575 89.846 194.055 90.146C194.547 90.446 195.099 90.596 195.711 90.596ZM202.88 92V82.298H204.518V84.08L204.338 83.828C204.566 83.276 204.914 82.868 205.382 82.604C205.85 82.328 206.42 82.19 207.092 82.19H207.686V83.774H206.84C206.156 83.774 205.604 83.99 205.184 84.422C204.764 84.842 204.554 85.442 204.554 86.222V92H202.88ZM212.647 92.216C211.675 92.216 210.829 91.976 210.109 91.496C209.389 91.016 208.879 90.368 208.579 89.552L209.911 88.904C210.187 89.48 210.565 89.936 211.045 90.272C211.525 90.608 212.059 90.776 212.647 90.776C213.175 90.776 213.613 90.65 213.961 90.398C214.309 90.146 214.483 89.816 214.483 89.408C214.483 89.12 214.399 88.892 214.231 88.724C214.075 88.544 213.883 88.406 213.655 88.31C213.427 88.202 213.217 88.124 213.025 88.076L211.567 87.662C210.691 87.41 210.049 87.05 209.641 86.582C209.245 86.114 209.047 85.568 209.047 84.944C209.047 84.368 209.191 83.87 209.479 83.45C209.779 83.018 210.181 82.682 210.685 82.442C211.201 82.202 211.777 82.082 212.413 82.082C213.265 82.082 214.027 82.298 214.699 82.73C215.383 83.162 215.869 83.768 216.157 84.548L214.789 85.178C214.573 84.674 214.249 84.278 213.817 83.99C213.385 83.69 212.899 83.54 212.359 83.54C211.867 83.54 211.477 83.666 211.189 83.918C210.901 84.158 210.757 84.464 210.757 84.836C210.757 85.112 210.829 85.34 210.973 85.52C211.117 85.688 211.291 85.82 211.495 85.916C211.699 86 211.897 86.072 212.089 86.132L213.673 86.6C214.465 86.828 215.077 87.182 215.509 87.662C215.953 88.142 216.175 88.718 216.175 89.39C216.175 89.93 216.025 90.416 215.725 90.848C215.425 91.28 215.011 91.616 214.483 91.856C213.955 92.096 213.343 92.216 212.647 92.216Z" fill="black" fill-opacity="0.8"/>
<g filter="url(#filter2_d_189_2981)">
<rect x="10" y="120" width="228" height="42" rx="21" fill="white"/>
</g>
<g clip-path="url(#clip0_189_2981)">
<path d="M47.1595 129.19C46.9991 129.189 46.8409 129.227 46.6982 129.3C46.5555 129.373 46.4325 129.479 46.3395 129.61L42.4695 135.16C42.4452 135.195 42.4302 135.236 42.4261 135.278C42.4219 135.321 42.4287 135.363 42.4457 135.402C42.4627 135.441 42.4895 135.476 42.5234 135.501C42.5573 135.527 42.5973 135.544 42.6395 135.55C43.5428 135.671 44.4019 136.015 45.1395 136.55C45.1835 136.589 45.2404 136.611 45.2995 136.611C45.3585 136.611 45.4155 136.589 45.4595 136.55L46.6995 135.24C46.8401 135.1 47.0307 135.021 47.2295 135.021C47.4282 135.021 47.6188 135.1 47.7595 135.24C47.8982 135.384 47.9757 135.575 47.9757 135.775C47.9757 135.975 47.8982 136.166 47.7595 136.31L46.5095 137.55C46.4738 137.596 46.4544 137.652 46.4544 137.71C46.4544 137.768 46.4738 137.824 46.5095 137.87C47.0308 138.614 47.3574 139.477 47.4595 140.38C47.4656 140.423 47.4826 140.464 47.5089 140.499C47.5351 140.534 47.5697 140.562 47.6095 140.58C47.6475 140.602 47.6906 140.613 47.7345 140.613C47.7784 140.613 47.8215 140.602 47.8595 140.58L53.4195 136.68C53.5501 136.587 53.6564 136.464 53.7295 136.321C53.8026 136.178 53.8403 136.02 53.8395 135.86C53.8095 133.54 49.4595 129.19 47.1595 129.19ZM38.8595 145.49C38.8155 145.451 38.7585 145.429 38.6995 145.429C38.6404 145.429 38.5835 145.451 38.5395 145.49L36.9995 147.06C36.8534 147.143 36.6837 147.175 36.5176 147.15C36.3515 147.125 36.1985 147.045 36.0832 146.923C35.9679 146.8 35.897 146.643 35.8818 146.476C35.8667 146.308 35.9081 146.141 35.9995 146L37.5295 144.47C37.5651 144.424 37.5845 144.368 37.5845 144.31C37.5845 144.252 37.5651 144.196 37.5295 144.15C36.9941 143.412 36.6505 142.553 36.5295 141.65C36.5233 141.607 36.5063 141.566 36.4801 141.531C36.4539 141.496 36.4193 141.468 36.3795 141.45C36.3433 141.428 36.3018 141.416 36.2595 141.416C36.2171 141.416 36.1756 141.428 36.1395 141.45L30.6095 145.34C30.4788 145.433 30.3725 145.556 30.2994 145.699C30.2263 145.841 30.1886 146 30.1895 146.16C30.1895 148.46 34.5395 152.81 36.8395 152.81C36.9998 152.811 37.158 152.773 37.3007 152.7C37.4434 152.627 37.5665 152.521 37.6595 152.39L41.5495 146.83C41.5716 146.794 41.5833 146.752 41.5833 146.71C41.5833 146.668 41.5716 146.626 41.5495 146.59C41.5331 146.549 41.5058 146.513 41.4705 146.487C41.4353 146.46 41.3934 146.444 41.3495 146.44C40.4541 146.332 39.599 146.006 38.8595 145.49ZM45.8795 144.88C45.2271 145.528 44.4226 146.003 43.5395 146.26C43.4974 146.272 43.4594 146.295 43.4295 146.326C43.3995 146.358 43.3788 146.397 43.3695 146.44C43.3596 146.482 43.3599 146.525 43.3704 146.567C43.3808 146.609 43.4011 146.648 43.4295 146.68L47.6595 150.9C47.7999 151.038 47.9777 151.131 48.1707 151.168C48.3638 151.205 48.5635 151.184 48.7449 151.109C48.9263 151.033 49.0813 150.905 49.1906 150.742C49.2999 150.579 49.3587 150.387 49.3595 150.19V148.36H51.1895C51.386 148.359 51.578 148.3 51.7414 148.191C51.9048 148.082 52.0323 147.927 52.1081 147.745C52.1838 147.564 52.2045 147.364 52.1674 147.171C52.1303 146.978 52.0371 146.8 51.8995 146.66L47.6695 142.43C47.6393 142.398 47.6007 142.376 47.5582 142.365C47.5157 142.354 47.471 142.356 47.4295 142.37C47.3882 142.38 47.3505 142.401 47.3205 142.431C47.2905 142.461 47.2694 142.499 47.2595 142.54C47.0044 143.424 46.5296 144.229 45.8795 144.88Z" fill="url(#paint3_linear_189_2981)"/>
<path d="M44.8095 138.16C44.0486 137.433 43.0368 137.028 41.9845 137.028C40.9323 137.028 39.9205 137.433 39.1595 138.16C38.7722 138.527 38.4622 138.969 38.2481 139.458C38.0339 139.947 37.9198 140.474 37.9125 141.008C37.9052 141.541 38.0048 142.071 38.2055 142.566C38.4063 143.061 38.704 143.51 39.0812 143.888C39.4584 144.266 39.9074 144.565 40.4018 144.766C40.8962 144.968 41.4259 145.068 41.9598 145.062C42.4936 145.056 43.0208 144.942 43.5102 144.729C43.9997 144.516 44.4415 144.207 44.8095 143.82C45.1815 143.448 45.4765 143.007 45.6778 142.522C45.8791 142.036 45.9827 141.516 45.9827 140.99C45.9827 140.464 45.8791 139.944 45.6778 139.458C45.4765 138.973 45.1815 138.531 44.8095 138.16Z" fill="url(#paint4_linear_189_2981)"/>
</g>
<path d="M71.668 148.216C70.72 148.216 69.844 148.048 69.04 147.712C68.248 147.364 67.552 146.878 66.952 146.254C66.364 145.63 65.908 144.898 65.584 144.058C65.26 143.218 65.098 142.3 65.098 141.304C65.098 140.296 65.26 139.372 65.584 138.532C65.908 137.692 66.364 136.96 66.952 136.336C67.54 135.712 68.236 135.232 69.04 134.896C69.844 134.548 70.72 134.374 71.668 134.374C72.592 134.374 73.42 134.536 74.152 134.86C74.896 135.184 75.52 135.604 76.024 136.12C76.54 136.636 76.906 137.188 77.122 137.776L75.502 138.514C75.19 137.77 74.704 137.17 74.044 136.714C73.384 136.246 72.592 136.012 71.668 136.012C70.732 136.012 69.898 136.234 69.166 136.678C68.446 137.122 67.882 137.74 67.474 138.532C67.066 139.324 66.862 140.248 66.862 141.304C66.862 142.348 67.066 143.266 67.474 144.058C67.882 144.85 68.446 145.468 69.166 145.912C69.898 146.356 70.732 146.578 71.668 146.578C72.592 146.578 73.384 146.35 74.044 145.894C74.704 145.426 75.19 144.82 75.502 144.076L77.122 144.814C76.906 145.402 76.54 145.954 76.024 146.47C75.52 146.986 74.896 147.406 74.152 147.73C73.42 148.054 72.592 148.216 71.668 148.216ZM83.6116 148.216C82.6756 148.216 81.8416 147.994 81.1096 147.55C80.3776 147.106 79.8016 146.5 79.3816 145.732C78.9616 144.952 78.7516 144.082 78.7516 143.122C78.7516 142.15 78.9556 141.286 79.3636 140.53C79.7836 139.774 80.3476 139.18 81.0556 138.748C81.7756 138.304 82.5796 138.082 83.4676 138.082C84.1876 138.082 84.8236 138.214 85.3756 138.478C85.9396 138.73 86.4136 139.078 86.7976 139.522C87.1936 139.954 87.4936 140.452 87.6976 141.016C87.9136 141.568 88.0216 142.144 88.0216 142.744C88.0216 142.876 88.0096 143.026 87.9856 143.194C87.9736 143.35 87.9556 143.5 87.9316 143.644H79.9756V142.204H86.9596L86.1676 142.852C86.2756 142.228 86.2156 141.67 85.9876 141.178C85.7596 140.686 85.4236 140.296 84.9796 140.008C84.5356 139.72 84.0316 139.576 83.4676 139.576C82.9036 139.576 82.3876 139.72 81.9196 140.008C81.4516 140.296 81.0856 140.71 80.8216 141.25C80.5696 141.778 80.4676 142.408 80.5156 143.14C80.4676 143.848 80.5756 144.472 80.8396 145.012C81.1156 145.54 81.4996 145.954 81.9916 146.254C82.4956 146.542 83.0416 146.686 83.6296 146.686C84.2776 146.686 84.8236 146.536 85.2676 146.236C85.7116 145.936 86.0716 145.552 86.3476 145.084L87.7516 145.804C87.5596 146.248 87.2596 146.656 86.8516 147.028C86.4556 147.388 85.9816 147.676 85.4296 147.892C84.8896 148.108 84.2836 148.216 83.6116 148.216ZM90.2042 148V138.298H91.8422V140.08L91.6622 139.828C91.8902 139.276 92.2382 138.868 92.7062 138.604C93.1742 138.328 93.7442 138.19 94.4162 138.19H95.0102V139.774H94.1642C93.4802 139.774 92.9282 139.99 92.5082 140.422C92.0882 140.842 91.8782 141.442 91.8782 142.222V148H90.2042ZM100.527 148.108C99.5791 148.108 98.8471 147.838 98.3311 147.298C97.8271 146.758 97.5751 145.996 97.5751 145.012V139.9H95.8111V138.298H96.1711C96.6031 138.298 96.9451 138.166 97.1971 137.902C97.4491 137.638 97.5751 137.29 97.5751 136.858V136.066H99.2491V138.298H101.427V139.9H99.2491V144.958C99.2491 145.282 99.2971 145.564 99.3931 145.804C99.5011 146.044 99.6751 146.236 99.9151 146.38C100.155 146.512 100.473 146.578 100.869 146.578C100.953 146.578 101.055 146.572 101.175 146.56C101.307 146.548 101.427 146.536 101.535 146.524V148C101.379 148.036 101.205 148.06 101.013 148.072C100.821 148.096 100.659 148.108 100.527 148.108ZM103.722 148V138.298H105.396V148H103.722ZM103.722 136.75V134.59H105.396V136.75H103.722ZM109.019 148V139.9H107.165V138.298H109.019V137.614C109.019 136.918 109.169 136.33 109.469 135.85C109.781 135.37 110.189 135.004 110.693 134.752C111.209 134.5 111.779 134.374 112.403 134.374C112.535 134.374 112.679 134.386 112.835 134.41C113.003 134.422 113.141 134.44 113.249 134.464V135.958C113.153 135.934 113.039 135.922 112.907 135.922C112.775 135.91 112.673 135.904 112.601 135.904C112.049 135.904 111.593 136.036 111.233 136.3C110.885 136.564 110.711 137.002 110.711 137.614V138.298H115.751V139.9H110.711V148H109.019ZM114.707 148V138.298H116.399V148H114.707ZM123.18 148.216C122.244 148.216 121.41 147.994 120.678 147.55C119.946 147.106 119.37 146.5 118.95 145.732C118.53 144.952 118.32 144.082 118.32 143.122C118.32 142.15 118.524 141.286 118.932 140.53C119.352 139.774 119.916 139.18 120.624 138.748C121.344 138.304 122.148 138.082 123.036 138.082C123.756 138.082 124.392 138.214 124.944 138.478C125.508 138.73 125.982 139.078 126.366 139.522C126.762 139.954 127.062 140.452 127.266 141.016C127.482 141.568 127.59 142.144 127.59 142.744C127.59 142.876 127.578 143.026 127.554 143.194C127.542 143.35 127.524 143.5 127.5 143.644H119.544V142.204H126.528L125.736 142.852C125.844 142.228 125.784 141.67 125.556 141.178C125.328 140.686 124.992 140.296 124.548 140.008C124.104 139.72 123.6 139.576 123.036 139.576C122.472 139.576 121.956 139.72 121.488 140.008C121.02 140.296 120.654 140.71 120.39 141.25C120.138 141.778 120.036 142.408 120.084 143.14C120.036 143.848 120.144 144.472 120.408 145.012C120.684 145.54 121.068 145.954 121.56 146.254C122.064 146.542 122.61 146.686 123.198 146.686C123.846 146.686 124.392 146.536 124.836 146.236C125.28 145.936 125.64 145.552 125.916 145.084L127.32 145.804C127.128 146.248 126.828 146.656 126.42 147.028C126.024 147.388 125.55 147.676 124.998 147.892C124.458 148.108 123.852 148.216 123.18 148.216ZM134.183 148.216C133.271 148.216 132.449 147.994 131.717 147.55C130.997 147.106 130.427 146.5 130.007 145.732C129.587 144.964 129.377 144.106 129.377 143.158C129.377 142.186 129.587 141.322 130.007 140.566C130.427 139.798 130.997 139.192 131.717 138.748C132.449 138.304 133.271 138.082 134.183 138.082C134.987 138.082 135.701 138.256 136.325 138.604C136.949 138.94 137.441 139.396 137.801 139.972L137.531 140.386V134.374H139.223V148H137.585V145.93L137.801 146.218C137.465 146.854 136.973 147.346 136.325 147.694C135.689 148.042 134.975 148.216 134.183 148.216ZM134.327 146.596C134.939 146.596 135.485 146.446 135.965 146.146C136.445 145.846 136.823 145.438 137.099 144.922C137.387 144.394 137.531 143.806 137.531 143.158C137.531 142.498 137.387 141.91 137.099 141.394C136.823 140.866 136.445 140.452 135.965 140.152C135.485 139.852 134.939 139.702 134.327 139.702C133.727 139.702 133.181 139.858 132.689 140.17C132.209 140.47 131.831 140.878 131.555 141.394C131.279 141.898 131.141 142.486 131.141 143.158C131.141 143.806 131.279 144.394 131.555 144.922C131.831 145.438 132.209 145.846 132.689 146.146C133.169 146.446 133.715 146.596 134.327 146.596ZM145.123 148V134.59H146.887V146.38H152.773V148H145.123ZM159.022 148.216C158.086 148.216 157.252 147.994 156.52 147.55C155.788 147.106 155.212 146.5 154.792 145.732C154.372 144.952 154.162 144.082 154.162 143.122C154.162 142.15 154.366 141.286 154.774 140.53C155.194 139.774 155.758 139.18 156.466 138.748C157.186 138.304 157.99 138.082 158.878 138.082C159.598 138.082 160.234 138.214 160.786 138.478C161.35 138.73 161.824 139.078 162.208 139.522C162.604 139.954 162.904 140.452 163.108 141.016C163.324 141.568 163.432 142.144 163.432 142.744C163.432 142.876 163.42 143.026 163.396 143.194C163.384 143.35 163.366 143.5 163.342 143.644H155.386V142.204H162.37L161.578 142.852C161.686 142.228 161.626 141.67 161.398 141.178C161.17 140.686 160.834 140.296 160.39 140.008C159.946 139.72 159.442 139.576 158.878 139.576C158.314 139.576 157.798 139.72 157.33 140.008C156.862 140.296 156.496 140.71 156.232 141.25C155.98 141.778 155.878 142.408 155.926 143.14C155.878 143.848 155.986 144.472 156.25 145.012C156.526 145.54 156.91 145.954 157.402 146.254C157.906 146.542 158.452 146.686 159.04 146.686C159.688 146.686 160.234 146.536 160.678 146.236C161.122 145.936 161.482 145.552 161.758 145.084L163.162 145.804C162.97 146.248 162.67 146.656 162.262 147.028C161.866 147.388 161.392 147.676 160.84 147.892C160.3 148.108 159.694 148.216 159.022 148.216ZM168.335 148.216C167.699 148.216 167.135 148.102 166.643 147.874C166.163 147.634 165.785 147.31 165.509 146.902C165.233 146.482 165.095 146.002 165.095 145.462C165.095 144.946 165.203 144.484 165.419 144.076C165.647 143.656 165.995 143.302 166.463 143.014C166.943 142.726 167.543 142.522 168.263 142.402L171.863 141.808V143.212L168.641 143.752C168.017 143.86 167.561 144.058 167.273 144.346C166.997 144.634 166.859 144.988 166.859 145.408C166.859 145.804 167.015 146.134 167.327 146.398C167.651 146.662 168.053 146.794 168.533 146.794C169.145 146.794 169.673 146.668 170.117 146.416C170.573 146.152 170.927 145.798 171.179 145.354C171.443 144.91 171.575 144.418 171.575 143.878V141.412C171.575 140.884 171.377 140.458 170.981 140.134C170.597 139.798 170.087 139.63 169.451 139.63C168.899 139.63 168.407 139.774 167.975 140.062C167.555 140.338 167.243 140.71 167.039 141.178L165.581 140.422C165.761 139.978 166.049 139.582 166.445 139.234C166.841 138.874 167.303 138.592 167.831 138.388C168.359 138.184 168.911 138.082 169.487 138.082C170.231 138.082 170.885 138.226 171.449 138.514C172.013 138.79 172.451 139.18 172.763 139.684C173.087 140.176 173.249 140.752 173.249 141.412V148H171.611V146.164L171.917 146.272C171.713 146.656 171.437 146.992 171.089 147.28C170.741 147.568 170.333 147.796 169.865 147.964C169.397 148.132 168.887 148.216 168.335 148.216ZM175.845 148V138.298H177.483V140.08L177.303 139.828C177.531 139.276 177.879 138.868 178.347 138.604C178.815 138.328 179.385 138.19 180.057 138.19H180.651V139.774H179.805C179.121 139.774 178.569 139.99 178.149 140.422C177.729 140.842 177.519 141.442 177.519 142.222V148H175.845ZM182.138 148V138.298H183.776V140.188L183.506 140.026C183.746 139.414 184.13 138.94 184.658 138.604C185.198 138.256 185.828 138.082 186.548 138.082C187.244 138.082 187.862 138.238 188.402 138.55C188.954 138.862 189.386 139.294 189.698 139.846C190.022 140.398 190.184 141.022 190.184 141.718V148H188.492V142.258C188.492 141.718 188.396 141.262 188.204 140.89C188.012 140.518 187.736 140.23 187.376 140.026C187.028 139.81 186.626 139.702 186.17 139.702C185.714 139.702 185.306 139.81 184.946 140.026C184.598 140.23 184.322 140.524 184.118 140.908C183.914 141.28 183.812 141.73 183.812 142.258V148H182.138ZM192.579 148V138.298H194.253V148H192.579ZM192.579 136.75V134.59H194.253V136.75H192.579ZM196.851 148V138.298H198.489V140.188L198.219 140.026C198.459 139.414 198.843 138.94 199.371 138.604C199.911 138.256 200.541 138.082 201.261 138.082C201.957 138.082 202.575 138.238 203.115 138.55C203.667 138.862 204.099 139.294 204.411 139.846C204.735 140.398 204.897 141.022 204.897 141.718V148H203.205V142.258C203.205 141.718 203.109 141.262 202.917 140.89C202.725 140.518 202.449 140.23 202.089 140.026C201.741 139.81 201.339 139.702 200.883 139.702C200.427 139.702 200.019 139.81 199.659 140.026C199.311 140.23 199.035 140.524 198.831 140.908C198.627 141.28 198.525 141.73 198.525 142.258V148H196.851ZM211.918 151.96C211.234 151.96 210.598 151.852 210.01 151.636C209.434 151.42 208.936 151.12 208.516 150.736C208.108 150.364 207.796 149.926 207.58 149.422L209.146 148.702C209.314 149.158 209.632 149.542 210.1 149.854C210.58 150.178 211.18 150.34 211.9 150.34C212.452 150.34 212.95 150.232 213.394 150.016C213.85 149.812 214.21 149.5 214.474 149.08C214.738 148.672 214.87 148.174 214.87 147.586V145.408L215.176 145.732C214.84 146.392 214.354 146.896 213.718 147.244C213.094 147.592 212.404 147.766 211.648 147.766C210.736 147.766 209.92 147.556 209.2 147.136C208.48 146.704 207.916 146.122 207.508 145.39C207.1 144.646 206.896 143.824 206.896 142.924C206.896 142.012 207.1 141.19 207.508 140.458C207.916 139.726 208.474 139.15 209.182 138.73C209.902 138.298 210.718 138.082 211.63 138.082C212.386 138.082 213.07 138.256 213.682 138.604C214.306 138.94 214.804 139.408 215.176 140.008L214.924 140.458V138.298H216.562V147.586C216.562 148.426 216.364 149.176 215.968 149.836C215.572 150.496 215.02 151.012 214.312 151.384C213.616 151.768 212.818 151.96 211.918 151.96ZM211.792 146.146C212.368 146.146 212.884 146.002 213.34 145.714C213.808 145.426 214.18 145.042 214.456 144.562C214.732 144.07 214.87 143.524 214.87 142.924C214.87 142.336 214.732 141.796 214.456 141.304C214.18 140.812 213.808 140.422 213.34 140.134C212.884 139.846 212.368 139.702 211.792 139.702C211.204 139.702 210.67 139.846 210.19 140.134C209.71 140.422 209.332 140.812 209.056 141.304C208.792 141.784 208.66 142.324 208.66 142.924C208.66 143.524 208.792 144.07 209.056 144.562C209.332 145.042 209.704 145.426 210.172 145.714C210.652 146.002 211.192 146.146 211.792 146.146Z" fill="black" fill-opacity="0.8"/>
<defs>
<filter id="filter0_d_189_2981" x="0" y="0" width="248" height="62" filterUnits="userSpaceOnUse" color-interpolation-filters="sRGB">
<feFlood flood-opacity="0" result="BackgroundImageFix"/>
<feColorMatrix in="SourceAlpha" type="matrix" values="0 0 0 0 0 0 0 0 0 0 0 0 0 0 0 0 0 0 127 0" result="hardAlpha"/>
<feOffset dy="2"/>
<feGaussianBlur stdDeviation="5"/>
<feComposite in2="hardAlpha" operator="out"/>
<feColorMatrix type="matrix" values="0 0 0 0 0.461538 0 0 0 0 0.461538 0 0 0 0 0.461538 0 0 0 0.25 0"/>
<feBlend mode="normal" in2="BackgroundImageFix" result="effect1_dropShadow_189_2981"/>
<feBlend mode="normal" in="SourceGraphic" in2="effect1_dropShadow_189_2981" result="shape"/>
</filter>
<filter id="filter1_d_189_2981" x="0" y="56" width="248" height="62" filterUnits="userSpaceOnUse" color-interpolation-filters="sRGB">
<feFlood flood-opacity="0" result="BackgroundImageFix"/>
<feColorMatrix in="SourceAlpha" type="matrix" values="0 0 0 0 0 0 0 0 0 0 0 0 0 0 0 0 0 0 127 0" result="hardAlpha"/>
<feOffset dy="2"/>
<feGaussianBlur stdDeviation="5"/>
<feComposite in2="hardAlpha" operator="out"/>
<feColorMatrix type="matrix" values="0 0 0 0 0.461538 0 0 0 0 0.461538 0 0 0 0 0.461538 0 0 0 0.25 0"/>
<feBlend mode="normal" in2="BackgroundImageFix" result="effect1_dropShadow_189_2981"/>
<feBlend mode="normal" in="SourceGraphic" in2="effect1_dropShadow_189_2981" result="shape"/>
</filter>
<filter id="filter2_d_189_2981" x="0" y="112" width="248" height="62" filterUnits="userSpaceOnUse" color-interpolation-filters="sRGB">
<feFlood flood-opacity="0" result="BackgroundImageFix"/>
<feColorMatrix in="SourceAlpha" type="matrix" values="0 0 0 0 0 0 0 0 0 0 0 0 0 0 0 0 0 0 127 0" result="hardAlpha"/>
<feOffset dy="2"/>
<feGaussianBlur stdDeviation="5"/>
<feComposite in2="hardAlpha" operator="out"/>
<feColorMatrix type="matrix" values="0 0 0 0 0.461538 0 0 0 0 0.461538 0 0 0 0 0.461538 0 0 0 0.25 0"/>
<feBlend mode="normal" in2="BackgroundImageFix" result="effect1_dropShadow_189_2981"/>
<feBlend mode="normal" in="SourceGraphic" in2="effect1_dropShadow_189_2981" result="shape"/>
</filter>
<linearGradient id="paint0_linear_189_2981" x1="33.807" y1="36.3805" x2="40.973" y2="46.2031" gradientUnits="userSpaceOnUse">
<stop stop-color="#C0412C"/>
<stop offset="1" stop-color="#F4C15D"/>
</linearGradient>
<linearGradient id="paint1_linear_189_2981" x1="32.9878" y1="26.9184" x2="53.7975" y2="33.1792" gradientUnits="userSpaceOnUse">
<stop stop-color="#C0412C"/>
<stop offset="1" stop-color="#F4C15D"/>
</linearGradient>
<linearGradient id="paint2_linear_189_2981" x1="32.1685" y1="83.8756" x2="54.0922" y2="91.756" gradientUnits="userSpaceOnUse">
<stop stop-color="#C0412C"/>
<stop offset="1" stop-color="#F4C15D"/>
</linearGradient>
<linearGradient id="paint3_linear_189_2981" x1="32.3263" y1="138.616" x2="55.4203" y2="144.098" gradientUnits="userSpaceOnUse">
<stop stop-color="#C0412C"/>
<stop offset="1" stop-color="#F4C15D"/>
</linearGradient>
<linearGradient id="paint4_linear_189_2981" x1="38.6413" y1="140.234" x2="46.5195" y2="142.11" gradientUnits="userSpaceOnUse">
<stop stop-color="#C0412C"/>
<stop offset="1" stop-color="#F4C15D"/>
</linearGradient>
<clipPath id="clip0_189_2981">
<rect width="24" height="24" fill="white" transform="translate(30 129)"/>
</clipPath>
</defs>
</svg>
