<svg width="732" height="55" viewBox="0 0 732 55" fill="none" xmlns="http://www.w3.org/2000/svg">
<path d="M11.2008 42.3921L0.000765674 0.672086H8.17677L16.9688 36.2321H14.8408L24.0248 0.672086H31.9208L41.0488 36.2321H38.9208L47.7128 0.672086H55.8888L44.6888 42.3921H35.9528L26.7128 7.78409H29.1768L19.9368 42.3921H11.2008ZM59.8945 42.3921V8.82149e-05H67.2305V17.9201L66.2225 16.8561C66.9318 15.0268 68.0892 13.6454 69.6945 12.7121C71.3372 11.7414 73.2412 11.2561 75.4065 11.2561C77.6465 11.2561 79.6252 11.7414 81.3425 12.7121C83.0972 13.6828 84.4599 15.0454 85.4305 16.8001C86.4012 18.5174 86.8865 20.5148 86.8865 22.7921V42.3921H79.5505V24.5281C79.5505 23.1841 79.2892 22.0268 78.7665 21.0561C78.2438 20.0854 77.5158 19.3388 76.5825 18.8161C75.6865 18.2561 74.6225 17.9761 73.3905 17.9761C72.1958 17.9761 71.1318 18.2561 70.1985 18.8161C69.2652 19.3388 68.5372 20.0854 68.0145 21.0561C67.4918 22.0268 67.2305 23.1841 67.2305 24.5281V42.3921H59.8945ZM102.33 43.0641C100.202 43.0641 98.3538 42.7094 96.7858 42.0001C95.2178 41.2908 94.0045 40.2828 93.1458 38.9761C92.2872 37.6321 91.8578 36.0828 91.8578 34.3281C91.8578 32.6481 92.2312 31.1548 92.9778 29.8481C93.7245 28.5041 94.8818 27.3841 96.4498 26.4881C98.0178 25.5921 99.9965 24.9574 102.386 24.5841L112.354 22.9601V28.5601L103.786 30.0161C102.33 30.2774 101.247 30.7441 100.538 31.4161C99.8285 32.0881 99.4738 32.9654 99.4738 34.0481C99.4738 35.0934 99.8658 35.9334 100.65 36.5681C101.471 37.1654 102.479 37.4641 103.674 37.4641C105.204 37.4641 106.548 37.1468 107.706 36.5121C108.9 35.8401 109.815 34.9254 110.45 33.7681C111.122 32.6108 111.458 31.3414 111.458 29.9601V22.1201C111.458 20.8134 110.935 19.7308 109.89 18.8721C108.882 17.9761 107.538 17.5281 105.858 17.5281C104.29 17.5281 102.89 17.9574 101.658 18.8161C100.463 19.6374 99.5858 20.7388 99.0258 22.1201L93.0338 19.2081C93.6312 17.6028 94.5645 16.2214 95.8338 15.0641C97.1405 13.8694 98.6712 12.9361 100.426 12.2641C102.18 11.5921 104.084 11.2561 106.138 11.2561C108.639 11.2561 110.842 11.7228 112.746 12.6561C114.65 13.5521 116.124 14.8214 117.17 16.4641C118.252 18.0694 118.794 19.9548 118.794 22.1201V42.3921H111.85V37.1841L113.418 37.0721C112.634 38.3788 111.7 39.4801 110.618 40.3761C109.535 41.2348 108.303 41.9068 106.922 42.3921C105.54 42.8401 104.01 43.0641 102.33 43.0641ZM138.915 42.7281C135.481 42.7281 132.811 41.7948 130.907 39.9281C129.041 38.0241 128.107 35.3548 128.107 31.9201V18.4801H122.843V11.9281H123.403C124.897 11.9281 126.054 11.5361 126.875 10.7521C127.697 9.96809 128.107 8.82942 128.107 7.33609V4.98409H135.443V11.9281H142.443V18.4801H135.443V31.5281C135.443 32.5361 135.611 33.3948 135.947 34.1041C136.321 34.8134 136.881 35.3548 137.627 35.7281C138.411 36.1014 139.401 36.2881 140.595 36.2881C140.857 36.2881 141.155 36.2694 141.491 36.2321C141.865 36.1948 142.219 36.1574 142.555 36.1201V42.3921C142.033 42.4668 141.435 42.5414 140.763 42.6161C140.091 42.6908 139.475 42.7281 138.915 42.7281ZM158.729 42.3921V0.672086H166.345V42.3921H158.729ZM185.346 43.0641C182.098 43.0641 179.261 42.2988 176.834 40.7681C174.445 39.2001 172.802 37.0908 171.906 34.4401L177.394 31.8081C178.178 33.5254 179.261 34.8694 180.642 35.8401C182.061 36.8108 183.629 37.2961 185.346 37.2961C186.69 37.2961 187.754 36.9974 188.538 36.4001C189.322 35.8028 189.714 35.0188 189.714 34.0481C189.714 33.4508 189.546 32.9654 189.21 32.5921C188.911 32.1814 188.482 31.8454 187.922 31.5841C187.399 31.2854 186.821 31.0428 186.186 30.8561L181.202 29.4561C178.626 28.7094 176.666 27.5708 175.322 26.0401C174.015 24.5094 173.362 22.6988 173.362 20.6081C173.362 18.7414 173.829 17.1174 174.762 15.7361C175.733 14.3174 177.058 13.2161 178.738 12.4321C180.455 11.6481 182.415 11.2561 184.618 11.2561C187.493 11.2561 190.031 11.9468 192.234 13.3281C194.437 14.7094 196.005 16.6508 196.938 19.1521L191.338 21.7841C190.815 20.4028 189.938 19.3014 188.706 18.4801C187.474 17.6588 186.093 17.2481 184.562 17.2481C183.33 17.2481 182.359 17.5281 181.65 18.0881C180.941 18.6481 180.586 19.3761 180.586 20.2721C180.586 20.8321 180.735 21.3174 181.034 21.7281C181.333 22.1388 181.743 22.4748 182.266 22.7361C182.826 22.9974 183.461 23.2401 184.17 23.4641L189.042 24.9201C191.543 25.6668 193.466 26.7868 194.81 28.2801C196.191 29.7734 196.882 31.6028 196.882 33.7681C196.882 35.5974 196.397 37.2214 195.426 38.6401C194.455 40.0214 193.111 41.1041 191.394 41.8881C189.677 42.6721 187.661 43.0641 185.346 43.0641Z" fill="black"/>
<path d="M213.089 42.3921V0.672086H240.809V7.39209H220.705V18.0881H239.689V24.8081H220.705V35.6721H240.809V42.3921H213.089ZM245.777 42.3921V11.9281H252.665V17.9201L252.105 16.8561C252.815 15.0268 253.972 13.6454 255.577 12.7121C257.22 11.7414 259.124 11.2561 261.289 11.2561C263.529 11.2561 265.508 11.7414 267.225 12.7121C268.98 13.6828 270.343 15.0454 271.313 16.8001C272.284 18.5174 272.769 20.5148 272.769 22.7921V42.3921H265.433V24.5281C265.433 23.1841 265.172 22.0268 264.649 21.0561C264.127 20.0854 263.399 19.3388 262.465 18.8161C261.569 18.2561 260.505 17.9761 259.273 17.9761C258.079 17.9761 257.015 18.2561 256.081 18.8161C255.148 19.3388 254.42 20.0854 253.897 21.0561C253.375 22.0268 253.113 23.1841 253.113 24.5281V42.3921H245.777ZM288.213 43.0641C286.085 43.0641 284.237 42.7094 282.669 42.0001C281.101 41.2908 279.887 40.2828 279.029 38.9761C278.17 37.6321 277.741 36.0828 277.741 34.3281C277.741 32.6481 278.114 31.1548 278.861 29.8481C279.607 28.5041 280.765 27.3841 282.333 26.4881C283.901 25.5921 285.879 24.9574 288.269 24.5841L298.237 22.9601V28.5601L289.669 30.0161C288.213 30.2774 287.13 30.7441 286.421 31.4161C285.711 32.0881 285.357 32.9654 285.357 34.0481C285.357 35.0934 285.749 35.9334 286.533 36.5681C287.354 37.1654 288.362 37.4641 289.557 37.4641C291.087 37.4641 292.431 37.1468 293.589 36.5121C294.783 35.8401 295.698 34.9254 296.333 33.7681C297.005 32.6108 297.341 31.3414 297.341 29.9601V22.1201C297.341 20.8134 296.818 19.7308 295.773 18.8721C294.765 17.9761 293.421 17.5281 291.741 17.5281C290.173 17.5281 288.773 17.9574 287.541 18.8161C286.346 19.6374 285.469 20.7388 284.909 22.1201L278.917 19.2081C279.514 17.6028 280.447 16.2214 281.717 15.0641C283.023 13.8694 284.554 12.9361 286.309 12.2641C288.063 11.5921 289.967 11.2561 292.021 11.2561C294.522 11.2561 296.725 11.7228 298.629 12.6561C300.533 13.5521 302.007 14.8214 303.053 16.4641C304.135 18.0694 304.677 19.9548 304.677 22.1201V42.3921H297.733V37.1841L299.301 37.0721C298.517 38.3788 297.583 39.4801 296.501 40.3761C295.418 41.2348 294.186 41.9068 292.805 42.3921C291.423 42.8401 289.893 43.0641 288.213 43.0641ZM328.089 43.0641C325.886 43.0641 323.852 42.6348 321.985 41.7761C320.156 40.8801 318.7 39.6108 317.617 37.9681L318.345 36.5121V42.3921H311.457V8.82149e-05H318.793V17.9761L317.673 16.4641C318.718 14.8214 320.137 13.5521 321.929 12.6561C323.721 11.7228 325.793 11.2561 328.145 11.2561C331.02 11.2561 333.614 11.9654 335.929 13.3841C338.244 14.8028 340.073 16.7068 341.417 19.0961C342.798 21.4854 343.489 24.1734 343.489 27.1601C343.489 30.1094 342.817 32.7974 341.473 35.2241C340.129 37.6508 338.3 39.5734 335.985 40.9921C333.67 42.3734 331.038 43.0641 328.089 43.0641ZM327.249 36.3441C328.929 36.3441 330.422 35.9521 331.729 35.1681C333.036 34.3841 334.044 33.3014 334.753 31.9201C335.5 30.5388 335.873 28.9521 335.873 27.1601C335.873 25.3681 335.5 23.8001 334.753 22.4561C334.044 21.0748 333.036 19.9921 331.729 19.2081C330.422 18.3868 328.929 17.9761 327.249 17.9761C325.644 17.9761 324.188 18.3681 322.881 19.1521C321.612 19.9361 320.604 21.0374 319.857 22.4561C319.148 23.8374 318.793 25.4054 318.793 27.1601C318.793 28.9521 319.148 30.5388 319.857 31.9201C320.604 33.3014 321.612 34.3841 322.881 35.1681C324.188 35.9521 325.644 36.3441 327.249 36.3441ZM349.082 42.3921V8.82149e-05H356.418V42.3921H349.082ZM377.639 43.0641C374.503 43.0641 371.759 42.3548 369.407 40.9361C367.055 39.5174 365.226 37.5948 363.919 35.1681C362.613 32.7414 361.959 30.0534 361.959 27.1041C361.959 24.0428 362.613 21.3361 363.919 18.9841C365.263 16.5948 367.074 14.7094 369.351 13.3281C371.666 11.9468 374.242 11.2561 377.079 11.2561C379.469 11.2561 381.559 11.6481 383.351 12.4321C385.181 13.2161 386.73 14.2988 387.999 15.6801C389.269 17.0614 390.239 18.6481 390.911 20.4401C391.583 22.1948 391.919 24.0988 391.919 26.1521C391.919 26.6748 391.882 27.2161 391.807 27.7761C391.77 28.3361 391.677 28.8214 391.527 29.2321H368.007V23.6321H387.383L383.911 26.2641C384.247 24.5468 384.154 23.0161 383.631 21.6721C383.146 20.3281 382.325 19.2641 381.167 18.4801C380.047 17.6961 378.685 17.3041 377.079 17.3041C375.549 17.3041 374.186 17.6961 372.991 18.4801C371.797 19.2268 370.882 20.3468 370.247 21.8401C369.65 23.2961 369.426 25.0694 369.575 27.1601C369.426 29.0268 369.669 30.6881 370.303 32.1441C370.975 33.5628 371.946 34.6641 373.215 35.4481C374.522 36.2321 376.015 36.6241 377.695 36.6241C379.375 36.6241 380.794 36.2694 381.951 35.5601C383.146 34.8508 384.079 33.8988 384.751 32.7041L390.687 35.6161C390.09 37.0721 389.157 38.3601 387.887 39.4801C386.618 40.6001 385.106 41.4774 383.351 42.1121C381.634 42.7468 379.73 43.0641 377.639 43.0641ZM411.648 43.0641C408.699 43.0641 406.067 42.3734 403.752 40.9921C401.438 39.5734 399.608 37.6508 398.264 35.2241C396.92 32.7974 396.248 30.1094 396.248 27.1601C396.248 24.1734 396.92 21.4854 398.264 19.0961C399.608 16.7068 401.438 14.8028 403.752 13.3841C406.104 11.9654 408.718 11.2561 411.592 11.2561C413.907 11.2561 415.96 11.7228 417.752 12.6561C419.582 13.5521 421.019 14.8214 422.064 16.4641L420.944 17.9761V8.82149e-05H428.28V42.3921H421.336V36.5121L422.12 37.9681C421.075 39.6108 419.619 40.8801 417.752 41.7761C415.886 42.6348 413.851 43.0641 411.648 43.0641ZM412.432 36.3441C414.112 36.3441 415.587 35.9521 416.856 35.1681C418.126 34.3841 419.115 33.3014 419.824 31.9201C420.571 30.5388 420.944 28.9521 420.944 27.1601C420.944 25.4054 420.571 23.8374 419.824 22.4561C419.115 21.0374 418.126 19.9361 416.856 19.1521C415.587 18.3681 414.112 17.9761 412.432 17.9761C410.79 17.9761 409.315 18.3868 408.008 19.2081C406.702 19.9921 405.675 21.0748 404.928 22.4561C404.219 23.8001 403.864 25.3681 403.864 27.1601C403.864 28.9521 404.219 30.5388 404.928 31.9201C405.675 33.3014 406.702 34.3841 408.008 35.1681C409.315 35.9521 410.79 36.3441 412.432 36.3441ZM442.259 42.3921L456.651 0.672086H466.507L480.899 42.3921H472.611L469.643 33.4321H453.515L450.491 42.3921H442.259ZM455.699 26.7121H467.459L460.515 5.93609H462.643L455.699 26.7121ZM498.504 43.0641C495.48 43.0641 492.755 42.3734 490.328 40.9921C487.939 39.5734 486.053 37.6694 484.672 35.2801C483.291 32.8534 482.6 30.1281 482.6 27.1041C482.6 24.0801 483.291 21.3734 484.672 18.9841C486.053 16.5948 487.939 14.7094 490.328 13.3281C492.755 11.9468 495.48 11.2561 498.504 11.2561C500.669 11.2561 502.685 11.6481 504.552 12.4321C506.419 13.1788 508.024 14.2241 509.368 15.5681C510.749 16.8748 511.739 18.4428 512.336 20.2721L505.896 23.0721C505.336 21.5414 504.384 20.3094 503.04 19.3761C501.733 18.4428 500.221 17.9761 498.504 17.9761C496.899 17.9761 495.461 18.3681 494.192 19.1521C492.96 19.9361 491.989 21.0188 491.28 22.4001C490.571 23.7814 490.216 25.3681 490.216 27.1601C490.216 28.9521 490.571 30.5388 491.28 31.9201C491.989 33.3014 492.96 34.3841 494.192 35.1681C495.461 35.9521 496.899 36.3441 498.504 36.3441C500.259 36.3441 501.789 35.8774 503.096 34.9441C504.403 34.0108 505.336 32.7601 505.896 31.1921L512.336 34.1041C511.739 35.8214 510.768 37.3708 509.424 38.7521C508.08 40.0961 506.475 41.1601 504.608 41.9441C502.741 42.6908 500.707 43.0641 498.504 43.0641ZM527.033 43.0641C524.905 43.0641 523.057 42.7094 521.489 42.0001C519.921 41.2908 518.708 40.2828 517.849 38.9761C516.99 37.6321 516.561 36.0828 516.561 34.3281C516.561 32.6481 516.934 31.1548 517.681 29.8481C518.428 28.5041 519.585 27.3841 521.153 26.4881C522.721 25.5921 524.7 24.9574 527.089 24.5841L537.057 22.9601V28.5601L528.489 30.0161C527.033 30.2774 525.95 30.7441 525.241 31.4161C524.532 32.0881 524.177 32.9654 524.177 34.0481C524.177 35.0934 524.569 35.9334 525.353 36.5681C526.174 37.1654 527.182 37.4641 528.377 37.4641C529.908 37.4641 531.252 37.1468 532.409 36.5121C533.604 35.8401 534.518 34.9254 535.153 33.7681C535.825 32.6108 536.161 31.3414 536.161 29.9601V22.1201C536.161 20.8134 535.638 19.7308 534.593 18.8721C533.585 17.9761 532.241 17.5281 530.561 17.5281C528.993 17.5281 527.593 17.9574 526.361 18.8161C525.166 19.6374 524.289 20.7388 523.729 22.1201L517.737 19.2081C518.334 17.6028 519.268 16.2214 520.537 15.0641C521.844 13.8694 523.374 12.9361 525.129 12.2641C526.884 11.5921 528.788 11.2561 530.841 11.2561C533.342 11.2561 535.545 11.7228 537.449 12.6561C539.353 13.5521 540.828 14.8214 541.873 16.4641C542.956 18.0694 543.497 19.9548 543.497 22.1201V42.3921H536.553V37.1841L538.121 37.0721C537.337 38.3788 536.404 39.4801 535.321 40.3761C534.238 41.2348 533.006 41.9068 531.625 42.3921C530.244 42.8401 528.713 43.0641 527.033 43.0641ZM564.445 43.0641C561.496 43.0641 558.864 42.3734 556.549 40.9921C554.235 39.5734 552.405 37.6508 551.061 35.2241C549.717 32.7974 549.045 30.1094 549.045 27.1601C549.045 24.1734 549.717 21.4854 551.061 19.0961C552.405 16.7068 554.235 14.8028 556.549 13.3841C558.901 11.9654 561.515 11.2561 564.389 11.2561C566.704 11.2561 568.757 11.7228 570.549 12.6561C572.379 13.5521 573.816 14.8214 574.861 16.4641L573.741 17.9761V8.82149e-05H581.077V42.3921H574.133V36.5121L574.917 37.9681C573.872 39.6108 572.416 40.8801 570.549 41.7761C568.683 42.6348 566.648 43.0641 564.445 43.0641ZM565.229 36.3441C566.909 36.3441 568.384 35.9521 569.653 35.1681C570.923 34.3841 571.912 33.3014 572.621 31.9201C573.368 30.5388 573.741 28.9521 573.741 27.1601C573.741 25.4054 573.368 23.8374 572.621 22.4561C571.912 21.0374 570.923 19.9361 569.653 19.1521C568.384 18.3681 566.909 17.9761 565.229 17.9761C563.587 17.9761 562.112 18.3868 560.805 19.2081C559.499 19.9921 558.472 21.0748 557.725 22.4561C557.016 23.8001 556.661 25.3681 556.661 27.1601C556.661 28.9521 557.016 30.5388 557.725 31.9201C558.472 33.3014 559.499 34.3841 560.805 35.1681C562.112 35.9521 563.587 36.3441 565.229 36.3441ZM602.35 43.0641C599.214 43.0641 596.47 42.3548 594.118 40.9361C591.766 39.5174 589.937 37.5948 588.63 35.1681C587.324 32.7414 586.67 30.0534 586.67 27.1041C586.67 24.0428 587.324 21.3361 588.63 18.9841C589.974 16.5948 591.785 14.7094 594.062 13.3281C596.377 11.9468 598.953 11.2561 601.79 11.2561C604.18 11.2561 606.27 11.6481 608.062 12.4321C609.892 13.2161 611.441 14.2988 612.71 15.6801C613.98 17.0614 614.95 18.6481 615.622 20.4401C616.294 22.1948 616.63 24.0988 616.63 26.1521C616.63 26.6748 616.593 27.2161 616.518 27.7761C616.481 28.3361 616.388 28.8214 616.238 29.2321H592.718V23.6321H612.094L608.622 26.2641C608.958 24.5468 608.865 23.0161 608.342 21.6721C607.857 20.3281 607.036 19.2641 605.878 18.4801C604.758 17.6961 603.396 17.3041 601.79 17.3041C600.26 17.3041 598.897 17.6961 597.702 18.4801C596.508 19.2268 595.593 20.3468 594.958 21.8401C594.361 23.2961 594.137 25.0694 594.286 27.1601C594.137 29.0268 594.38 30.6881 595.014 32.1441C595.686 33.5628 596.657 34.6641 597.926 35.4481C599.233 36.2321 600.726 36.6241 602.406 36.6241C604.086 36.6241 605.505 36.2694 606.662 35.5601C607.857 34.8508 608.79 33.8988 609.462 32.7041L615.398 35.6161C614.801 37.0721 613.868 38.3601 612.598 39.4801C611.329 40.6001 609.817 41.4774 608.062 42.1121C606.345 42.7468 604.441 43.0641 602.35 43.0641ZM622.191 42.3921V11.9281H629.079V18.9841L628.295 17.8081C628.855 15.6054 629.975 13.9628 631.655 12.8801C633.335 11.7974 635.314 11.2561 637.591 11.2561C640.093 11.2561 642.295 11.9094 644.199 13.2161C646.103 14.5228 647.335 16.2401 647.895 18.3681L645.823 18.5361C646.757 16.1094 648.157 14.2988 650.023 13.1041C651.89 11.8721 654.037 11.2561 656.463 11.2561C658.629 11.2561 660.551 11.7414 662.231 12.7121C663.949 13.6828 665.293 15.0454 666.263 16.8001C667.234 18.5174 667.719 20.5148 667.719 22.7921V42.3921H660.383V24.5281C660.383 23.1841 660.141 22.0268 659.655 21.0561C659.17 20.0854 658.498 19.3388 657.639 18.8161C656.781 18.2561 655.735 17.9761 654.503 17.9761C653.346 17.9761 652.319 18.2561 651.423 18.8161C650.527 19.3388 649.837 20.0854 649.351 21.0561C648.866 22.0268 648.623 23.1841 648.623 24.5281V42.3921H641.287V24.5281C641.287 23.1841 641.045 22.0268 640.559 21.0561C640.074 20.0854 639.383 19.3388 638.487 18.8161C637.629 18.2561 636.602 17.9761 635.407 17.9761C634.25 17.9761 633.223 18.2561 632.327 18.8161C631.431 19.3388 630.741 20.0854 630.255 21.0561C629.77 22.0268 629.527 23.1841 629.527 24.5281V42.3921H622.191ZM677.075 54.7121C676.254 54.7121 675.451 54.6374 674.667 54.4881C673.883 54.3761 673.174 54.1521 672.539 53.8161V47.7121C673.024 47.8241 673.603 47.9361 674.275 48.0481C674.984 48.1601 675.638 48.2161 676.235 48.2161C677.915 48.2161 679.128 47.8241 679.875 47.0401C680.659 46.2934 681.35 45.2854 681.947 44.0161L683.963 39.3121L683.851 45.4721L670.579 11.9281H678.475L687.771 36.6801H684.971L694.211 11.9281H702.163L688.891 45.4721C688.107 47.4134 687.155 49.0748 686.035 50.4561C684.915 51.8374 683.608 52.8828 682.115 53.5921C680.659 54.3388 678.979 54.7121 677.075 54.7121ZM714.591 29.7361V28.6161C714.591 26.9734 714.834 25.5174 715.319 24.2481C715.842 22.9788 716.495 21.8588 717.279 20.8881C718.063 19.8801 718.885 18.9654 719.743 18.1441C720.901 16.9868 721.927 15.9228 722.823 14.9521C723.757 13.9441 724.223 12.7681 724.223 11.4241C724.223 10.6028 724.018 9.83742 723.607 9.12809C723.197 8.41875 722.581 7.85875 721.759 7.44809C720.975 7.03742 720.005 6.83209 718.847 6.83209C717.279 6.83209 715.917 7.31742 714.759 8.28809C713.639 9.25876 712.949 10.5468 712.687 12.1521L705.855 10.4721C706.191 8.38142 706.938 6.55209 708.095 4.98409C709.29 3.41609 710.821 2.20275 712.687 1.34409C714.591 0.448088 716.701 8.82149e-05 719.015 8.82149e-05C721.741 8.82149e-05 724.055 0.541421 725.959 1.62409C727.901 2.70675 729.375 4.10675 730.383 5.82409C731.391 7.54142 731.895 9.35209 731.895 11.2561C731.895 12.7494 731.597 14.0748 730.999 15.2321C730.402 16.3894 729.655 17.4534 728.759 18.4241C727.901 19.3574 727.005 20.2908 726.071 21.2241C724.877 22.3441 723.831 23.5201 722.935 24.7521C722.039 25.9841 721.591 27.4214 721.591 29.0641V29.7361H714.591ZM714.423 42.3921V34.5521H721.871V42.3921H714.423Z" fill="url(#paint0_linear_49_579)"/>
<defs>
<linearGradient id="paint0_linear_49_579" x1="69.3176" y1="12.7262" x2="173.278" y2="281.415" gradientUnits="userSpaceOnUse">
<stop stop-color="#C0412C"/>
<stop offset="1" stop-color="#F4C15D"/>
</linearGradient>
</defs>
</svg>
