<svg width="238" height="64" viewBox="0 0 238 64" fill="none" xmlns="http://www.w3.org/2000/svg">
<rect width="238" height="64" rx="32" fill="url(#paint0_linear_2035_4176)"/>
<rect x="0.5" y="0.5" width="237" height="63" rx="31.5" stroke="url(#paint1_linear_2035_4176)" stroke-opacity="0.16"/>
<path d="M25.6923 40.5V25.6H35.3923V27.7H28.0523V32.18H34.5923V34.28H28.0523V40.5H25.6923ZM42.0791 40.74C41.0391 40.74 40.0857 40.4933 39.2191 40C38.3657 39.5067 37.6857 38.8333 37.1791 37.98C36.6724 37.1267 36.4191 36.16 36.4191 35.08C36.4191 33.9867 36.6724 33.02 37.1791 32.18C37.6857 31.3267 38.3657 30.66 39.2191 30.18C40.0724 29.6867 41.0257 29.44 42.0791 29.44C43.1457 29.44 44.0991 29.6867 44.9391 30.18C45.7924 30.66 46.4657 31.3267 46.9591 32.18C47.4657 33.02 47.7191 33.9867 47.7191 35.08C47.7191 36.1733 47.4657 37.1467 46.9591 38C46.4524 38.8533 45.7724 39.5267 44.9191 40.02C44.0657 40.5 43.1191 40.74 42.0791 40.74ZM42.0791 38.64C42.7191 38.64 43.2857 38.4867 43.7791 38.18C44.2724 37.8733 44.6591 37.4533 44.9391 36.92C45.2324 36.3733 45.3791 35.76 45.3791 35.08C45.3791 34.4 45.2324 33.7933 44.9391 33.26C44.6591 32.7267 44.2724 32.3067 43.7791 32C43.2857 31.6933 42.7191 31.54 42.0791 31.54C41.4524 31.54 40.8857 31.6933 40.3791 32C39.8857 32.3067 39.4924 32.7267 39.1991 33.26C38.9191 33.7933 38.7791 34.4 38.7791 35.08C38.7791 35.76 38.9191 36.3733 39.1991 36.92C39.4924 37.4533 39.8857 37.8733 40.3791 38.18C40.8857 38.4867 41.4524 38.64 42.0791 38.64ZM49.9255 40.5V29.68H52.0855V31.86L51.8855 31.54C52.1255 30.8333 52.5121 30.3267 53.0455 30.02C53.5788 29.7 54.2188 29.54 54.9655 29.54H55.6255V31.6H54.6855C53.9388 31.6 53.3321 31.8333 52.8655 32.3C52.4121 32.7533 52.1855 33.4067 52.1855 34.26V40.5H49.9255ZM60.8877 40.5V25.6H70.7077V27.7H63.2477V31.98H70.3077V34.08H63.2477V38.4H70.7077V40.5H60.8877ZM72.6794 40.5V29.68H74.8394V32.02L74.5594 31.66C74.786 30.9267 75.1994 30.3733 75.7994 30C76.3994 29.6267 77.086 29.44 77.8594 29.44C78.726 29.44 79.4927 29.6733 80.1594 30.14C80.8394 30.5933 81.2927 31.2 81.5194 31.96L80.8794 32.02C81.1994 31.1533 81.686 30.5067 82.3394 30.08C83.006 29.6533 83.766 29.44 84.6194 29.44C85.366 29.44 86.0394 29.6133 86.6394 29.96C87.2527 30.3067 87.7394 30.7867 88.0994 31.4C88.4594 32.0133 88.6394 32.7133 88.6394 33.5V40.5H86.3794V34.12C86.3794 33.5733 86.2794 33.1133 86.0794 32.74C85.8927 32.3533 85.626 32.06 85.2794 31.86C84.946 31.6467 84.5527 31.54 84.0994 31.54C83.646 31.54 83.246 31.6467 82.8994 31.86C82.5527 32.06 82.2794 32.3533 82.0794 32.74C81.8794 33.1267 81.7794 33.5867 81.7794 34.12V40.5H79.5394V34.12C79.5394 33.5733 79.4394 33.1133 79.2394 32.74C79.0527 32.3533 78.786 32.06 78.4394 31.86C78.106 31.6467 77.706 31.54 77.2394 31.54C76.786 31.54 76.386 31.6467 76.0394 31.86C75.6927 32.06 75.4194 32.3533 75.2194 32.74C75.0327 33.1267 74.9394 33.5867 74.9394 34.12V40.5H72.6794ZM91.0583 44.5V29.68H93.2183V31.92L92.9583 31.4C93.3583 30.7867 93.8916 30.3067 94.5583 29.96C95.2249 29.6133 95.9849 29.44 96.8383 29.44C97.8649 29.44 98.7849 29.6867 99.5983 30.18C100.425 30.6733 101.072 31.3467 101.538 32.2C102.018 33.0533 102.258 34.0133 102.258 35.08C102.258 36.1467 102.018 37.1067 101.538 37.96C101.072 38.8133 100.432 39.4933 99.6183 40C98.8049 40.4933 97.8783 40.74 96.8383 40.74C95.9983 40.74 95.2316 40.5667 94.5383 40.22C93.8583 39.8733 93.3316 39.3733 92.9583 38.72L93.3183 38.3V44.5H91.0583ZM96.6183 38.64C97.2583 38.64 97.8249 38.4867 98.3183 38.18C98.8116 37.8733 99.1983 37.4533 99.4783 36.92C99.7716 36.3733 99.9183 35.76 99.9183 35.08C99.9183 34.4 99.7716 33.7933 99.4783 33.26C99.1983 32.7267 98.8116 32.3067 98.3183 32C97.8249 31.6933 97.2583 31.54 96.6183 31.54C95.9916 31.54 95.4249 31.6933 94.9183 32C94.4249 32.3067 94.0316 32.7267 93.7383 33.26C93.4583 33.7933 93.3183 34.4 93.3183 35.08C93.3183 35.76 93.4583 36.3733 93.7383 36.92C94.0316 37.4533 94.4249 37.8733 94.9183 38.18C95.4249 38.4867 95.9916 38.64 96.6183 38.64ZM104.457 40.5V25.36H106.717V40.5H104.457ZM114.579 40.74C113.539 40.74 112.586 40.4933 111.719 40C110.866 39.5067 110.186 38.8333 109.679 37.98C109.172 37.1267 108.919 36.16 108.919 35.08C108.919 33.9867 109.172 33.02 109.679 32.18C110.186 31.3267 110.866 30.66 111.719 30.18C112.572 29.6867 113.526 29.44 114.579 29.44C115.646 29.44 116.599 29.6867 117.439 30.18C118.292 30.66 118.966 31.3267 119.459 32.18C119.966 33.02 120.219 33.9867 120.219 35.08C120.219 36.1733 119.966 37.1467 119.459 38C118.952 38.8533 118.272 39.5267 117.419 40.02C116.566 40.5 115.619 40.74 114.579 40.74ZM114.579 38.64C115.219 38.64 115.786 38.4867 116.279 38.18C116.772 37.8733 117.159 37.4533 117.439 36.92C117.732 36.3733 117.879 35.76 117.879 35.08C117.879 34.4 117.732 33.7933 117.439 33.26C117.159 32.7267 116.772 32.3067 116.279 32C115.786 31.6933 115.219 31.54 114.579 31.54C113.952 31.54 113.386 31.6933 112.879 32C112.386 32.3067 111.992 32.7267 111.699 33.26C111.419 33.7933 111.279 34.4 111.279 35.08C111.279 35.76 111.419 36.3733 111.699 36.92C111.992 37.4533 112.386 37.8733 112.879 38.18C113.386 38.4867 113.952 38.64 114.579 38.64ZM123.19 44.9C122.923 44.9 122.657 44.8733 122.39 44.82C122.137 44.78 121.903 44.7133 121.69 44.62V42.68C121.85 42.72 122.043 42.7533 122.27 42.78C122.497 42.82 122.717 42.84 122.93 42.84C123.557 42.84 124.017 42.7 124.31 42.42C124.617 42.1533 124.89 41.74 125.13 41.18L125.85 39.54L125.81 41.44L121.13 29.68H123.55L127.01 38.7H126.19L129.63 29.68H132.07L127.29 41.68C127.037 42.32 126.717 42.88 126.33 43.36C125.957 43.8533 125.51 44.2333 124.99 44.5C124.483 44.7667 123.883 44.9 123.19 44.9ZM138.502 40.74C137.422 40.74 136.462 40.4933 135.622 40C134.795 39.4933 134.148 38.8133 133.682 37.96C133.215 37.0933 132.982 36.1267 132.982 35.06C132.982 33.9667 133.215 33 133.682 32.16C134.162 31.32 134.802 30.66 135.602 30.18C136.402 29.6867 137.308 29.44 138.322 29.44C139.135 29.44 139.862 29.58 140.502 29.86C141.142 30.14 141.682 30.5267 142.122 31.02C142.562 31.5 142.895 32.0533 143.122 32.68C143.362 33.3067 143.482 33.9733 143.482 34.68C143.482 34.8533 143.475 35.0333 143.462 35.22C143.448 35.4067 143.422 35.58 143.382 35.74H134.762V33.94H142.102L141.022 34.76C141.155 34.1067 141.108 33.5267 140.882 33.02C140.668 32.5 140.335 32.0933 139.882 31.8C139.442 31.4933 138.922 31.34 138.322 31.34C137.722 31.34 137.188 31.4933 136.722 31.8C136.255 32.0933 135.895 32.52 135.642 33.08C135.388 33.6267 135.288 34.2933 135.342 35.08C135.275 35.8133 135.375 36.4533 135.642 37C135.922 37.5467 136.308 37.9733 136.802 38.28C137.308 38.5867 137.882 38.74 138.522 38.74C139.175 38.74 139.728 38.5933 140.182 38.3C140.648 38.0067 141.015 37.6267 141.282 37.16L143.122 38.06C142.908 38.5667 142.575 39.0267 142.122 39.44C141.682 39.84 141.148 40.16 140.522 40.4C139.908 40.6267 139.235 40.74 138.502 40.74ZM145.687 40.5V29.68H147.847V31.86L147.647 31.54C147.887 30.8333 148.274 30.3267 148.807 30.02C149.341 29.7 149.981 29.54 150.727 29.54H151.387V31.6H150.447C149.701 31.6 149.094 31.8333 148.627 32.3C148.174 32.7533 147.947 33.4067 147.947 34.26V40.5H145.687ZM156.933 40.74C155.827 40.74 154.853 40.4667 154.013 39.92C153.187 39.3733 152.607 38.64 152.273 37.72L154.013 36.9C154.307 37.5133 154.707 38 155.213 38.36C155.733 38.72 156.307 38.9 156.933 38.9C157.467 38.9 157.9 38.78 158.233 38.54C158.567 38.3 158.733 37.9733 158.733 37.56C158.733 37.2933 158.66 37.08 158.513 36.92C158.367 36.7467 158.18 36.6067 157.953 36.5C157.74 36.3933 157.52 36.3133 157.293 36.26L155.593 35.78C154.66 35.5133 153.96 35.1133 153.493 34.58C153.04 34.0333 152.813 33.4 152.813 32.68C152.813 32.0267 152.98 31.46 153.313 30.98C153.647 30.4867 154.107 30.1067 154.693 29.84C155.28 29.5733 155.94 29.44 156.673 29.44C157.66 29.44 158.54 29.6867 159.313 30.18C160.087 30.66 160.633 31.3333 160.953 32.2L159.213 33.02C159 32.5 158.66 32.0867 158.193 31.78C157.74 31.4733 157.227 31.32 156.653 31.32C156.16 31.32 155.767 31.44 155.473 31.68C155.18 31.9067 155.033 32.2067 155.033 32.58C155.033 32.8333 155.1 33.0467 155.233 33.22C155.367 33.38 155.54 33.5133 155.753 33.62C155.967 33.7133 156.187 33.7933 156.413 33.86L158.173 34.38C159.067 34.6333 159.753 35.0333 160.233 35.58C160.713 36.1133 160.953 36.7533 160.953 37.5C160.953 38.14 160.78 38.7067 160.433 39.2C160.1 39.68 159.633 40.06 159.033 40.34C158.433 40.6067 157.733 40.74 156.933 40.74Z" fill="black"/>
<g clip-path="url(#clip0_2035_4176)">
<rect x="182" y="8" width="48" height="48" rx="24" fill="black" fill-opacity="0.16"/>
<path d="M219.061 33.0607C219.646 32.4749 219.646 31.5251 219.061 30.9393L209.515 21.3934C208.929 20.8076 207.979 20.8076 207.393 21.3934C206.808 21.9792 206.808 22.9289 207.393 23.5147L215.879 32L207.393 40.4853C206.808 41.0711 206.808 42.0208 207.393 42.6066C207.979 43.1924 208.929 43.1924 209.515 42.6066L219.061 33.0607ZM194 32V33.5H218V32V30.5H194V32Z" fill="#182434"/>
</g>
<defs>
<linearGradient id="paint0_linear_2035_4176" x1="0" y1="32" x2="238" y2="32" gradientUnits="userSpaceOnUse">
<stop stop-color="#FFD071"/>
<stop offset="1" stop-color="#EFB745"/>
</linearGradient>
<linearGradient id="paint1_linear_2035_4176" x1="159.727" y1="64" x2="97.5443" y2="-15.142" gradientUnits="userSpaceOnUse">
<stop stop-color="white"/>
<stop offset="1"/>
</linearGradient>
<clipPath id="clip0_2035_4176">
<rect x="182" y="8" width="48" height="48" rx="24" fill="white"/>
</clipPath>
</defs>
</svg>
