<svg width="255" height="64" viewBox="0 0 255 64" fill="none" xmlns="http://www.w3.org/2000/svg">
<rect width="255" height="64" rx="32" fill="url(#paint0_linear_2035_16)"/>
<rect x="0.5" y="0.5" width="254" height="63" rx="31.5" stroke="url(#paint1_linear_2035_16)" stroke-opacity="0.16"/>
<path d="M25.6084 40.5V25.6H31.8884C32.8217 25.6 33.6284 25.7667 34.3084 26.1C34.9884 26.42 35.5084 26.8867 35.8684 27.5C36.2284 28.1 36.4084 28.8133 36.4084 29.64C36.4084 30.36 36.2217 31.02 35.8484 31.62C35.4884 32.2067 34.9217 32.6733 34.1484 33.02V32.02C34.8284 32.2867 35.3817 32.6267 35.8084 33.04C36.235 33.44 36.5417 33.8933 36.7284 34.4C36.9284 34.9067 37.0284 35.44 37.0284 36C37.0284 37.4 36.5684 38.5 35.6484 39.3C34.7417 40.1 33.495 40.5 31.9084 40.5H25.6084ZM27.9684 38.4H32.0884C32.875 38.4 33.5017 38.1867 33.9684 37.76C34.435 37.32 34.6684 36.74 34.6684 36.02C34.6684 35.2867 34.435 34.7067 33.9684 34.28C33.5017 33.84 32.875 33.62 32.0884 33.62H27.9684V38.4ZM27.9684 31.54H31.9484C32.5884 31.54 33.1017 31.36 33.4884 31C33.875 30.6267 34.0684 30.14 34.0684 29.54C34.0684 28.94 33.875 28.4733 33.4884 28.14C33.1017 27.8067 32.5884 27.64 31.9484 27.64H27.9684V31.54ZM44.456 40.74C43.416 40.74 42.4627 40.4933 41.596 40C40.7427 39.5067 40.0627 38.8333 39.556 37.98C39.0493 37.1267 38.796 36.16 38.796 35.08C38.796 33.9867 39.0493 33.02 39.556 32.18C40.0627 31.3267 40.7427 30.66 41.596 30.18C42.4493 29.6867 43.4027 29.44 44.456 29.44C45.5227 29.44 46.476 29.6867 47.316 30.18C48.1693 30.66 48.8427 31.3267 49.336 32.18C49.8427 33.02 50.096 33.9867 50.096 35.08C50.096 36.1733 49.8427 37.1467 49.336 38C48.8293 38.8533 48.1493 39.5267 47.296 40.02C46.4427 40.5 45.496 40.74 44.456 40.74ZM44.456 38.64C45.096 38.64 45.6627 38.4867 46.156 38.18C46.6493 37.8733 47.036 37.4533 47.316 36.92C47.6093 36.3733 47.756 35.76 47.756 35.08C47.756 34.4 47.6093 33.7933 47.316 33.26C47.036 32.7267 46.6493 32.3067 46.156 32C45.6627 31.6933 45.096 31.54 44.456 31.54C43.8293 31.54 43.2627 31.6933 42.756 32C42.2627 32.3067 41.8693 32.7267 41.576 33.26C41.296 33.7933 41.156 34.4 41.156 35.08C41.156 35.76 41.296 36.3733 41.576 36.92C41.8693 37.4533 42.2627 37.8733 42.756 38.18C43.2627 38.4867 43.8293 38.64 44.456 38.64ZM57.5224 40.74C56.4824 40.74 55.5291 40.4933 54.6624 40C53.8091 39.5067 53.1291 38.8333 52.6224 37.98C52.1158 37.1267 51.8624 36.16 51.8624 35.08C51.8624 33.9867 52.1158 33.02 52.6224 32.18C53.1291 31.3267 53.8091 30.66 54.6624 30.18C55.5158 29.6867 56.4691 29.44 57.5224 29.44C58.5891 29.44 59.5424 29.6867 60.3824 30.18C61.2358 30.66 61.9091 31.3267 62.4024 32.18C62.9091 33.02 63.1624 33.9867 63.1624 35.08C63.1624 36.1733 62.9091 37.1467 62.4024 38C61.8958 38.8533 61.2158 39.5267 60.3624 40.02C59.5091 40.5 58.5624 40.74 57.5224 40.74ZM57.5224 38.64C58.1624 38.64 58.7291 38.4867 59.2224 38.18C59.7158 37.8733 60.1024 37.4533 60.3824 36.92C60.6758 36.3733 60.8224 35.76 60.8224 35.08C60.8224 34.4 60.6758 33.7933 60.3824 33.26C60.1024 32.7267 59.7158 32.3067 59.2224 32C58.7291 31.6933 58.1624 31.54 57.5224 31.54C56.8958 31.54 56.3291 31.6933 55.8224 32C55.3291 32.3067 54.9358 32.7267 54.6424 33.26C54.3624 33.7933 54.2224 34.4 54.2224 35.08C54.2224 35.76 54.3624 36.3733 54.6424 36.92C54.9358 37.4533 55.3291 37.8733 55.8224 38.18C56.3291 38.4867 56.8958 38.64 57.5224 38.64ZM65.3688 40.5V25.36H67.6288V35.5L66.7488 35.28L72.1688 29.68H74.9888L70.9088 34.02L75.1688 40.5H72.5688L68.7688 34.76L70.1088 34.58L66.9088 37.98L67.6288 36.48V40.5H65.3688ZM83.4526 40.74C82.7192 40.74 82.0726 40.6133 81.5126 40.36C80.9659 40.0933 80.5392 39.7333 80.2326 39.28C79.9259 38.8133 79.7726 38.2667 79.7726 37.64C79.7726 37.0533 79.8992 36.5267 80.1526 36.06C80.4192 35.5933 80.8259 35.2 81.3726 34.88C81.9192 34.56 82.6059 34.3333 83.4326 34.2L87.1926 33.58V35.36L83.8726 35.94C83.2726 36.0467 82.8326 36.24 82.5526 36.52C82.2726 36.7867 82.1326 37.1333 82.1326 37.56C82.1326 37.9733 82.2859 38.3133 82.5926 38.58C82.9126 38.8333 83.3192 38.96 83.8126 38.96C84.4259 38.96 84.9592 38.8267 85.4126 38.56C85.8792 38.2933 86.2392 37.94 86.4926 37.5C86.7459 37.0467 86.8726 36.5467 86.8726 36V33.22C86.8726 32.6867 86.6726 32.2533 86.2726 31.92C85.8859 31.5733 85.3659 31.4 84.7126 31.4C84.1126 31.4 83.5859 31.56 83.1326 31.88C82.6926 32.1867 82.3659 32.5867 82.1526 33.08L80.2726 32.14C80.4726 31.6067 80.7992 31.14 81.2526 30.74C81.7059 30.3267 82.2326 30.0067 82.8326 29.78C83.4459 29.5533 84.0926 29.44 84.7726 29.44C85.6259 29.44 86.3792 29.6 87.0326 29.92C87.6992 30.24 88.2126 30.6867 88.5726 31.26C88.9459 31.82 89.1326 32.4733 89.1326 33.22V40.5H86.9726V38.54L87.4326 38.6C87.1792 39.04 86.8526 39.42 86.4526 39.74C86.0659 40.06 85.6192 40.3067 85.1126 40.48C84.6192 40.6533 84.0659 40.74 83.4526 40.74ZM102.431 40.74C101.378 40.74 100.398 40.5467 99.4912 40.16C98.5978 39.7733 97.8178 39.24 97.1512 38.56C96.4978 37.8667 95.9845 37.0533 95.6112 36.12C95.2378 35.1867 95.0512 34.16 95.0512 33.04C95.0512 31.9333 95.2312 30.9133 95.5912 29.98C95.9645 29.0333 96.4845 28.22 97.1512 27.54C97.8178 26.8467 98.5978 26.3133 99.4912 25.94C100.385 25.5533 101.365 25.36 102.431 25.36C103.485 25.36 104.425 25.54 105.251 25.9C106.091 26.26 106.798 26.7333 107.371 27.32C107.945 27.8933 108.358 28.52 108.611 29.2L106.491 30.2C106.171 29.4 105.658 28.7533 104.951 28.26C104.258 27.7533 103.418 27.5 102.431 27.5C101.445 27.5 100.571 27.7333 99.8112 28.2C99.0512 28.6667 98.4578 29.3133 98.0312 30.14C97.6178 30.9667 97.4112 31.9333 97.4112 33.04C97.4112 34.1467 97.6178 35.12 98.0312 35.96C98.4578 36.7867 99.0512 37.4333 99.8112 37.9C100.571 38.3533 101.445 38.58 102.431 38.58C103.418 38.58 104.258 38.3333 104.951 37.84C105.658 37.3467 106.171 36.7 106.491 35.9L108.611 36.9C108.358 37.5667 107.945 38.1933 107.371 38.78C106.798 39.3667 106.091 39.84 105.251 40.2C104.425 40.56 103.485 40.74 102.431 40.74ZM113.863 40.74C113.129 40.74 112.483 40.6133 111.923 40.36C111.376 40.0933 110.949 39.7333 110.643 39.28C110.336 38.8133 110.183 38.2667 110.183 37.64C110.183 37.0533 110.309 36.5267 110.563 36.06C110.829 35.5933 111.236 35.2 111.783 34.88C112.329 34.56 113.016 34.3333 113.843 34.2L117.603 33.58V35.36L114.283 35.94C113.683 36.0467 113.243 36.24 112.963 36.52C112.683 36.7867 112.543 37.1333 112.543 37.56C112.543 37.9733 112.696 38.3133 113.003 38.58C113.323 38.8333 113.729 38.96 114.223 38.96C114.836 38.96 115.369 38.8267 115.823 38.56C116.289 38.2933 116.649 37.94 116.903 37.5C117.156 37.0467 117.283 36.5467 117.283 36V33.22C117.283 32.6867 117.083 32.2533 116.683 31.92C116.296 31.5733 115.776 31.4 115.123 31.4C114.523 31.4 113.996 31.56 113.543 31.88C113.103 32.1867 112.776 32.5867 112.563 33.08L110.683 32.14C110.883 31.6067 111.209 31.14 111.663 30.74C112.116 30.3267 112.643 30.0067 113.243 29.78C113.856 29.5533 114.503 29.44 115.183 29.44C116.036 29.44 116.789 29.6 117.443 29.92C118.109 30.24 118.623 30.6867 118.983 31.26C119.356 31.82 119.543 32.4733 119.543 33.22V40.5H117.383V38.54L117.843 38.6C117.589 39.04 117.263 39.42 116.863 39.74C116.476 40.06 116.029 40.3067 115.523 40.48C115.029 40.6533 114.476 40.74 113.863 40.74ZM122.185 40.5V25.36H124.445V40.5H122.185ZM127.088 40.5V25.36H129.348V40.5H127.088ZM135.706 40.5V25.6H137.606L145.966 37.14L145.066 37.28V25.6H147.406V40.5H145.506L137.206 28.88L138.066 28.72V40.5H135.706ZM155.491 40.74C154.451 40.74 153.498 40.4933 152.631 40C151.778 39.5067 151.098 38.8333 150.591 37.98C150.085 37.1267 149.831 36.16 149.831 35.08C149.831 33.9867 150.085 33.02 150.591 32.18C151.098 31.3267 151.778 30.66 152.631 30.18C153.485 29.6867 154.438 29.44 155.491 29.44C156.558 29.44 157.511 29.6867 158.351 30.18C159.205 30.66 159.878 31.3267 160.371 32.18C160.878 33.02 161.131 33.9867 161.131 35.08C161.131 36.1733 160.878 37.1467 160.371 38C159.865 38.8533 159.185 39.5267 158.331 40.02C157.478 40.5 156.531 40.74 155.491 40.74ZM155.491 38.64C156.131 38.64 156.698 38.4867 157.191 38.18C157.685 37.8733 158.071 37.4533 158.351 36.92C158.645 36.3733 158.791 35.76 158.791 35.08C158.791 34.4 158.645 33.7933 158.351 33.26C158.071 32.7267 157.685 32.3067 157.191 32C156.698 31.6933 156.131 31.54 155.491 31.54C154.865 31.54 154.298 31.6933 153.791 32C153.298 32.3067 152.905 32.7267 152.611 33.26C152.331 33.7933 152.191 34.4 152.191 35.08C152.191 35.76 152.331 36.3733 152.611 36.92C152.905 37.4533 153.298 37.8733 153.791 38.18C154.298 38.4867 154.865 38.64 155.491 38.64ZM165.762 40.5L162.042 29.68H164.442L167.282 38.3H166.442L169.342 29.68H171.402L174.282 38.3H173.442L176.302 29.68H178.702L174.962 40.5H172.922L170.002 31.68H170.742L167.822 40.5H165.762Z" fill="white"/>
<g clip-path="url(#clip0_2035_16)">
<rect x="199" y="8" width="48" height="48" rx="24" fill="white" fill-opacity="0.16"/>
<path d="M236.061 33.0607C236.646 32.4749 236.646 31.5251 236.061 30.9393L226.515 21.3934C225.929 20.8076 224.979 20.8076 224.393 21.3934C223.808 21.9792 223.808 22.9289 224.393 23.5147L232.879 32L224.393 40.4853C223.808 41.0711 223.808 42.0208 224.393 42.6066C224.979 43.1924 225.929 43.1924 226.515 42.6066L236.061 33.0607ZM211 32V33.5H235V32V30.5H211V32Z" fill="white"/>
</g>
<defs>
<linearGradient id="paint0_linear_2035_16" x1="0" y1="32" x2="255" y2="32" gradientUnits="userSpaceOnUse">
<stop stop-color="#2B476D"/>
<stop offset="1" stop-color="#182434"/>
</linearGradient>
<linearGradient id="paint1_linear_2035_16" x1="171.136" y1="64" x2="110.096" y2="-19.237" gradientUnits="userSpaceOnUse">
<stop stop-color="white"/>
<stop offset="1"/>
</linearGradient>
<clipPath id="clip0_2035_16">
<rect x="199" y="8" width="48" height="48" rx="24" fill="white"/>
</clipPath>
</defs>
</svg>
