<svg width="248" height="64" viewBox="0 0 248 64" fill="none" xmlns="http://www.w3.org/2000/svg">
<path d="M0 32C0 14.3269 14.3269 0 32 0H216C233.673 0 248 14.3269 248 32C248 49.6731 233.673 64 216 64H32C14.3269 64 0 49.6731 0 32Z" fill="url(#paint0_linear_49_1551)"/>
<path d="M32 0.5H216C233.397 0.5 247.5 14.603 247.5 32C247.5 49.397 233.397 63.5 216 63.5H32C14.603 63.5 0.5 49.397 0.5 32C0.5 14.603 14.603 0.5 32 0.5Z" stroke="url(#paint1_linear_49_1551)" stroke-opacity="0.16"/>
<defs>
<linearGradient id="paint0_linear_49_1551" x1="0" y1="32" x2="248" y2="32" gradientUnits="userSpaceOnUse">
<stop stop-color="#FFD071"/>
<stop offset="1" stop-color="#EFB745"/>
</linearGradient>
<linearGradient id="paint1_linear_49_1551" x1="166.438" y1="64" x2="104.907" y2="-17.6033" gradientUnits="userSpaceOnUse">
<stop stop-color="white"/>
<stop offset="1"/>
</linearGradient>
</defs>
</svg>
