<svg width="520" height="689" viewBox="0 0 520 689" fill="none" xmlns="http://www.w3.org/2000/svg">
<path d="M329.5 0C434.71 0 520 85.2898 520 190.5V488C520 500.15 510.15 510 498 510H381V667C381 679.15 371.15 689 359 689H22L21.4326 688.993C9.73312 688.697 0.303007 679.267 0.00683594 667.567L0 667V201C0 189.039 9.54457 179.308 21.4326 179.007L22 179H139.343C145.289 79.1444 228.151 0 329.5 0ZM22 182C11.5066 182 3 190.507 3 201V667C3 677.493 11.5066 686 22 686H359C369.493 686 378 677.493 378 667V510H161L160.433 509.993C148.733 509.697 139.303 500.267 139.007 488.567L139 488V190.5C139 187.652 139.063 184.818 139.187 182H22ZM142.189 182C142.082 184.417 142.019 186.847 142.004 189.287L142 190.5V488C142 498.493 150.507 507 161 507H378V201C378 190.507 369.493 182 359 182H142.189ZM329.5 3C229.808 3 148.289 80.8023 142.348 179H359C371.15 179 381 188.85 381 201V507H498C508.493 507 517 498.493 517 488V190.5C517 86.9466 433.053 3 329.5 3Z" fill="#373737"/>
</svg>
