<svg width="241" height="459" viewBox="0 0 241 459" fill="none" xmlns="http://www.w3.org/2000/svg">
<path d="M239.265 70.1221C239.264 70.118 239.263 70.1139 237.516 70.3662L213.061 73.9307C211.408 74.1697 211.319 74.1791 211.313 74.1768L211.329 74.2979C211.349 74.4444 211.382 74.6992 211.423 75.0547C211.505 75.7665 211.62 76.8811 211.727 78.3447C211.941 81.2772 212.123 85.5824 211.962 90.8398C211.638 101.418 209.937 115.496 204.576 129.913C199.246 144.248 190.356 158.79 175.633 170.772C160.942 182.728 139.7 192.744 108.668 196.945H108.667C47.8375 205.173 10.8025 230.758 -11.0078 255.127C-21.8144 267.201 -28.7259 278.796 -32.9688 287.485C-35.0918 291.833 -36.555 295.47 -37.5088 298.101C-37.9859 299.417 -38.3362 300.484 -38.5791 301.265C-38.7006 301.655 -38.7952 301.975 -38.8652 302.219C-38.9002 302.341 -38.9291 302.444 -38.9521 302.527C-38.9636 302.569 -38.9738 302.606 -38.9824 302.638C-38.9868 302.654 -38.9905 302.669 -38.9941 302.683C-38.9959 302.689 -38.9991 302.698 -39 302.701C-39.0024 302.71 -39.0041 302.719 -25.3281 306.188C-11.7781 309.626 -11.6544 309.666 -11.6553 309.674C-11.6559 309.676 -11.658 309.683 -11.6592 309.688C-11.6407 309.623 -11.6024 309.496 -11.5439 309.308C-11.4199 308.909 -11.2023 308.24 -10.875 307.337C-10.2198 305.53 -9.12784 302.792 -7.46875 299.395C-4.1468 292.591 1.41785 283.206 10.2559 273.331C27.7354 253.801 58.6667 231.608 112.539 224.321H112.54C114.287 224.085 116.012 223.831 117.715 223.561C118.418 228.876 119.14 235.549 119.636 243.22C120.952 263.604 120.636 290.572 114.396 317.677C108.158 344.77 96.1728 371.29 74.7021 391.781C53.4252 412.087 21.7055 427.555 -26.1787 430.822L-24.2119 458.39C29.3772 454.734 67.7132 437.065 94.4385 411.56C120.97 386.239 134.935 354.274 141.964 323.747C148.989 293.232 149.256 263.444 147.838 241.479C147.21 231.749 146.244 223.463 145.355 217.212C164.991 211.133 180.907 202.434 193.707 192.017C212.964 176.344 224.428 157.391 231.133 139.357C237.808 121.405 239.822 104.239 240.207 91.666C240.4 85.3483 240.184 80.101 239.912 76.375C239.776 74.5096 239.624 73.0177 239.502 71.9561C239.441 71.4252 239.387 71.0008 239.346 70.6904C239.325 70.5354 239.307 70.4081 239.293 70.3105C239.286 70.262 239.279 70.2205 239.274 70.1865C239.272 70.1695 239.27 70.1539 239.268 70.1406C239.267 70.1341 239.265 70.1255 239.265 70.1221ZM-11.6621 309.698C-11.6675 309.717 -11.6706 309.729 -11.6719 309.733C-11.6709 309.73 -11.6683 309.722 -11.665 309.71L-11.6621 309.698ZM88.1748 0C57.9588 3.58008e-05 31.6365 16.2701 17.8066 40.29L17.4824 40.8594L17.3389 41.1123L17.207 41.3711L17.0254 41.7412C15.2149 45.5573 15.5193 49.307 16.3799 51.9424C17.208 54.478 19.0205 57.4549 22.334 59.5205L22.6602 59.7168L23.2344 60.0547L78.0557 85.7158L90.2354 60.7236L51.3184 42.5068C60.804 33.3394 73.8221 27.6963 88.1748 27.6963C124.623 27.6966 152.735 64.0998 135.362 102.76L134.943 103.674L134.94 103.68L134.73 104.123C130.338 113.249 122.704 120.643 113.293 124.919L112.836 125.123L112.828 125.126L111.99 125.49C76.5217 140.599 43.0856 119.728 36.7695 89.4951L9.08203 95.0498C18.9324 142.2 71.4805 173.764 124.439 150.377C140.374 143.349 153.33 130.855 160.639 115.204L161.259 113.849C187.001 56.4886 144.513 0.000263174 88.1748 0Z" fill="url(#paint0_linear_186_1807)" fill-opacity="0.18" style="mix-blend-mode:multiply"/>
<defs>
<linearGradient id="paint0_linear_186_1807" x1="240.281" y1="101.377" x2="-38.9996" y2="357.013" gradientUnits="userSpaceOnUse">
<stop stop-color="#8DC3FF"/>
<stop offset="1" stop-color="#8DC3FF" stop-opacity="0"/>
</linearGradient>
</defs>
</svg>
