<svg width="66" height="109" viewBox="0 0 66 109" fill="none" xmlns="http://www.w3.org/2000/svg">
<path d="M3.54395 17.0508C6.68321 17.5095 6.83789 17.5306 6.8457 17.5303L6.84277 17.5586C6.83811 17.5932 6.83 17.6534 6.82031 17.7373C6.80091 17.9055 6.77332 18.1689 6.74805 18.5146C6.69741 19.2077 6.65437 20.2254 6.69238 21.4678C6.76887 23.9676 7.17167 27.295 8.43848 30.7021C9.6981 34.0898 11.799 37.5267 15.2783 40.3584C18.75 43.1838 23.7701 45.5502 31.1035 46.543C45.479 48.4874 54.2314 54.534 59.3857 60.293C61.9395 63.1463 63.5735 65.886 64.5762 67.9395C65.0778 68.9668 65.423 69.8266 65.6484 70.4482C65.7612 70.7591 65.844 71.0117 65.9014 71.1963C65.9301 71.2886 65.9532 71.3643 65.9697 71.4219C65.978 71.4506 65.9848 71.4754 65.9902 71.4951C65.9929 71.5047 65.9951 71.5131 65.9971 71.5205C65.9981 71.5243 65.9992 71.5281 66 71.5312C66.0004 71.5328 66.0008 71.5353 66.001 71.5361C65.9976 71.5391 65.8875 71.5696 62.7705 72.3604C59.6018 73.1642 59.5398 73.1815 59.5391 73.1836C59.5392 73.184 59.5398 73.1855 59.54 73.1865C59.5406 73.1886 59.5406 73.1909 59.541 73.1924C59.5408 73.1915 59.5403 73.1905 59.54 73.1895C59.5359 73.1752 59.5273 73.1437 59.5127 73.0967C59.4834 73.0024 59.4317 72.8448 59.3545 72.6318C59.1997 72.2048 58.9418 71.5577 58.5498 70.7549C57.7648 69.1472 56.4499 66.9284 54.3613 64.5947C50.2305 59.9793 42.9198 54.7347 30.1885 53.0127C29.7756 52.9568 29.3683 52.8949 28.9658 52.8311C28.7997 54.0874 28.6288 55.6649 28.5117 57.4785C28.2007 62.2959 28.2752 68.6696 29.75 75.0752C31.2241 81.4778 34.0569 87.7455 39.1309 92.5879C44.1591 97.3866 51.6556 101.041 62.9717 101.813L62.5068 108.329C49.8425 107.465 40.7826 103.289 34.4668 97.2617C28.1969 91.278 24.8964 83.724 23.2354 76.5098C21.5751 69.2984 21.5115 62.2583 21.8467 57.0674C21.9952 54.7677 22.2256 52.8095 22.4355 51.332C17.7945 49.8953 14.0321 47.8409 11.0068 45.3789C6.45594 41.6752 3.74671 37.1955 2.16211 32.9336C0.58477 28.6912 0.108487 24.6344 0.0175781 21.6631C-0.0280919 20.1702 0.0235576 18.9303 0.0878906 18.0498C0.120106 17.609 0.155626 17.2558 0.18457 17.0049C0.199027 16.8796 0.211813 16.7793 0.22168 16.7061C0.226611 16.6694 0.230084 16.6393 0.233398 16.6162C0.235053 16.6047 0.237088 16.595 0.238281 16.5869C0.238874 16.5829 0.239763 16.5793 0.240234 16.5762C0.240428 16.5749 0.240075 16.5732 0.240234 16.5723C0.240526 16.5703 0.241574 16.5682 3.54395 17.0508ZM35.9463 0C43.0871 8.4606e-06 49.3078 3.845 52.5762 9.52148L52.6523 9.65625L52.6865 9.71582L52.7178 9.77734L52.7607 9.86426C53.1886 10.7661 53.1165 11.6526 52.9131 12.2754C52.7174 12.8746 52.2888 13.5783 51.5059 14.0664L51.4287 14.1123L51.293 14.1924L38.3379 20.2568L35.459 14.3506L44.6562 10.0449C42.4146 7.87861 39.338 6.54493 35.9463 6.54492C27.3329 6.54508 20.6895 15.148 24.7949 24.2842L24.8936 24.5L24.8945 24.502L24.9443 24.6064C25.9824 26.7632 27.7866 28.511 30.0107 29.5215L30.1182 29.5693L30.1201 29.5703L30.3184 29.6562C38.7004 33.2267 46.6021 28.2942 48.0947 21.1494L54.6377 22.4629C52.3096 33.6055 39.8913 41.064 27.376 35.5371C23.6104 33.8762 20.5485 30.9242 18.8213 27.2256C12.4332 13.5609 22.5275 0.000156919 35.9463 0Z" fill="url(#paint0_linear_49_1510)" fill-opacity="0.6" style="mix-blend-mode:multiply"/>
<defs>
<linearGradient id="paint0_linear_49_1510" x1="1.63861e-08" y1="23.9578" x2="66.0011" y2="84.3709" gradientUnits="userSpaceOnUse">
<stop stop-color="#CD7F32"/>
<stop offset="1" stop-color="#F4C15D" stop-opacity="0"/>
</linearGradient>
</defs>
</svg>
