<svg width="487" height="286" viewBox="0 0 487 286" fill="none" xmlns="http://www.w3.org/2000/svg">
<g filter="url(#filter0_d_49_645)">
<path d="M224.625 199.578C261.434 198.692 302.314 195.503 342.485 185.934C355.05 182.922 367.261 179.378 378.763 173.531C383.895 170.873 389.027 167.861 393.629 164.317C396.991 161.659 399.822 158.115 401.946 154.394C407.078 145.535 405.662 136.498 397.876 129.942C393.275 126.043 388.143 122.854 382.657 120.196C367.084 112.4 350.449 107.261 333.637 103.186C319.656 99.8189 305.322 98.4014 290.988 97.5154C289.218 97.3382 287.448 97.5154 286.033 96.8067C284.794 96.2751 283.378 94.6804 283.378 93.6172C283.555 92.1997 284.971 90.7821 286.21 90.0734C287.448 89.3646 289.218 89.719 290.634 89.719C313.993 89.5418 336.468 94.1488 358.235 101.768C368.853 105.489 379.294 109.919 389.558 114.703C394.867 117.184 399.999 120.905 404.247 124.98C413.449 133.663 415.396 145.18 410.087 156.698C407.432 162.722 403.185 167.506 398.23 171.582C389.204 178.847 378.94 183.454 368.322 187.175C347.617 194.44 326.204 198.692 304.437 201.705C278.6 205.426 252.763 207.375 226.572 207.906C195.426 208.438 164.279 206.843 133.841 199.578C121.63 196.743 109.951 192.491 99.1556 186.112C92.0769 181.859 85.7061 177.075 80.751 170.342C72.7875 159.533 71.9027 148.192 77.9196 136.143C81.2819 129.41 86.0601 123.917 91.546 118.956C106.057 105.843 123.046 96.9839 141.097 89.8962C164.633 80.6822 189.232 75.7208 214.184 72.7085C246.215 68.8103 278.246 69.3418 310.277 72.8857C337.884 75.898 365.137 81.0365 391.328 90.9593C394.69 92.1997 397.876 93.7944 401.061 95.3891C403.362 96.4523 404.778 98.047 403.893 100.705C403.185 102.654 400.884 103.363 398.053 101.945C381.595 94.5032 364.075 90.7821 346.555 87.0611C326.027 82.8085 305.145 80.505 284.263 79.0874C247.1 76.7839 210.291 79.619 174.19 88.4786C154.723 92.9084 135.965 99.8189 118.445 109.919C109.42 115.057 100.925 121.082 93.6696 128.701C91.0151 131.536 88.5376 134.726 86.414 138.093C80.0432 148.547 81.105 159.001 89.5994 167.684C93.8466 172.113 98.9786 175.835 104.288 179.201C115.967 186.466 129.063 190.187 142.513 192.845C167.996 197.984 194.01 199.755 224.625 199.578Z" fill="white"/>
</g>
<defs>
<filter id="filter0_d_49_645" x="0" y="0" width="487" height="286" filterUnits="userSpaceOnUse" color-interpolation-filters="sRGB">
<feFlood flood-opacity="0" result="BackgroundImageFix"/>
<feColorMatrix in="SourceAlpha" type="matrix" values="0 0 0 0 0 0 0 0 0 0 0 0 0 0 0 0 0 0 127 0" result="hardAlpha"/>
<feOffset dy="4"/>
<feGaussianBlur stdDeviation="37"/>
<feComposite in2="hardAlpha" operator="out"/>
<feColorMatrix type="matrix" values="0 0 0 0 0 0 0 0 0 0 0 0 0 0 0 0 0 0 0.15 0"/>
<feBlend mode="normal" in2="BackgroundImageFix" result="effect1_dropShadow_49_645"/>
<feBlend mode="normal" in="SourceGraphic" in2="effect1_dropShadow_49_645" result="shape"/>
</filter>
</defs>
</svg>
