<svg width="64" height="371" viewBox="0 0 64 371" fill="none" xmlns="http://www.w3.org/2000/svg">
<path d="M38.1368 22.632C39.1374 23.0091 39.9914 23.2522 40.9919 23.6292C43.5665 24.6388 46.0255 26.215 48.2101 27.9438C50.2482 29.5386 52.0244 31.5662 53.5261 33.7463C54.2708 34.6962 54.8876 35.9325 55.3579 37.0349C56.1273 38.5454 56.61 39.928 57.0989 41.4508C57.9116 43.9421 58.0352 46.7445 58.0062 49.273C57.8555 52.2279 57.2778 55.0614 56.4133 57.767C55.5426 60.3326 54.3851 62.7704 53.0812 65.0743C52.9471 65.2206 52.9533 65.3607 52.8192 65.507C53.2524 65.7687 53.5516 66.1767 53.8445 66.4446C54.8697 67.3821 55.6206 68.4721 56.5118 69.556C57.4091 70.78 58.1785 72.2904 58.8015 73.6668C59.4245 75.0433 59.6266 76.4384 59.9752 77.9673C60.1711 79.2223 60.3732 80.6173 60.2886 81.8846C60.3566 83.426 60.1378 84.8396 59.785 86.3995C59.5724 87.9532 59.0793 89.5194 58.58 90.9454C56.9666 95.79 54.3526 100.258 51.293 104.183C52.2997 104.701 53.1662 105.224 54.0388 105.887C55.0517 106.545 55.9305 107.348 56.6752 108.298C57.7066 109.376 58.4636 110.606 59.2269 111.976C59.8437 113.213 60.314 114.315 60.6564 115.704C60.9926 116.953 61.1947 118.348 61.2565 119.749C61.3184 121.15 61.0996 122.564 60.8809 123.977C60.6621 125.391 60.3031 126.811 59.8038 128.237C57.9284 133.514 54.8935 138 50.852 141.969C50.3156 142.555 49.6389 143.146 48.9622 143.738C49.5481 144.273 50.2742 144.803 50.8601 145.339C51.8792 146.136 52.7642 147.08 53.515 148.17C54.5527 149.388 55.5965 150.745 56.3597 152.116C57.1168 153.346 57.7335 154.582 58.3565 155.959C58.9794 157.335 59.3218 158.724 59.524 160.119C60.0746 163.043 59.7836 166.004 59.3524 168.972C58.9087 171.659 58.038 174.224 57.1611 176.65C56.1564 179.362 54.8586 181.806 53.2804 184.262C51.9703 186.426 50.3673 188.322 48.624 190.224C49.0572 190.485 49.6245 190.601 50.0577 190.862C51.4914 191.501 52.7911 192.286 53.9504 193.077C54.9633 193.735 55.8421 194.538 56.7209 195.342C57.6059 196.286 58.4909 197.229 59.2418 198.319C59.9864 199.269 60.597 200.366 61.0673 201.468C61.6903 202.844 62.3133 204.221 62.6618 205.75C63.3404 208.387 63.4579 211.05 63.2948 213.725C63.2164 215.132 62.9976 216.546 62.6386 217.965C62.2858 219.525 61.6524 221.098 61.019 222.67C60.008 225.242 58.5638 227.552 56.8329 229.734C55.6446 231.471 54.1695 233.081 52.6882 234.55C52.9811 234.818 53.4143 235.08 53.7073 235.347C54.7263 236.145 55.6113 237.089 56.4963 238.032C58.2724 240.06 59.506 242.533 60.3249 245.164C60.6673 246.553 60.8694 247.948 61.0715 249.343C61.2674 250.598 61.189 252.005 61.1043 253.273C61.0259 254.68 60.8071 256.094 60.4481 257.513C60.0953 259.073 59.596 260.499 59.0967 261.925C58.226 264.491 57.0686 266.929 55.7708 269.373C54.339 271.963 52.4802 274.432 50.609 276.62C49.8106 277.638 48.8719 278.662 47.927 279.547C48.2199 279.814 48.3726 280.088 48.6655 280.356C49.5505 281.3 50.3013 282.39 51.0584 283.62C51.6752 284.857 52.2919 286.093 52.7684 287.335C53.2449 288.578 53.447 289.973 53.6492 291.368C53.8574 292.903 53.7852 294.451 53.7129 295.998C53.6283 297.266 53.3972 298.399 53.0258 299.539C52.6606 300.818 52.1551 302.104 51.5032 303.256C50.9915 304.402 50.3334 305.414 49.6752 306.425C48.7489 307.73 47.8226 309.034 46.7498 310.205C46.6218 310.491 46.3475 310.644 46.0731 310.796C46.2134 310.79 46.2196 310.93 46.3598 310.924C47.5192 311.715 48.5506 312.793 49.5821 313.871C50.467 314.814 51.3582 315.898 51.975 317.135C52.2803 317.683 52.5918 318.371 52.9032 319.059C53.2085 319.607 53.3735 320.162 53.5386 320.716C54.0151 321.958 54.2172 323.353 54.279 324.755C54.3532 326.436 54.1468 328.13 53.9343 329.684C53.7093 330.957 53.3441 332.237 52.8387 333.523C52.4549 334.382 52.065 335.101 51.6751 335.82C51.9742 336.228 52.2671 336.496 52.5662 336.904C53.3047 337.714 53.9091 338.67 54.5074 339.486C55.1118 340.442 55.5821 341.545 56.1927 342.641C57.2798 344.98 57.8119 347.483 58.2038 349.993C58.5771 352.083 58.676 354.325 58.6284 356.433C58.6841 357.694 58.5995 358.961 58.5086 360.088C58.3146 362.062 58.1206 364.037 57.4996 365.889C57.3779 366.316 57.122 366.888 57.0003 367.315C56.7445 367.888 56.3483 368.467 55.8119 369.052C55.5437 369.345 55.2694 369.497 55.0012 369.79C54.5927 370.089 54.1842 370.388 53.6293 370.552C53.0743 370.717 52.5132 370.742 51.9582 370.907C51.2568 370.938 50.5492 370.829 49.9695 370.433C49.1031 369.91 48.3646 369.1 48.0408 368.132C47.7169 367.163 47.8077 366.036 48.3256 365.03C48.5876 364.598 48.9837 364.018 49.3922 363.72C49.386 363.58 49.5139 363.293 49.5077 363.153C49.745 362.16 49.842 361.173 50.0793 360.179C50.1887 359.473 50.164 358.912 50.2733 358.205C50.3518 356.798 50.29 355.397 50.2343 354.136C50.1787 352.874 49.9827 351.62 49.7806 350.224C49.6032 349.39 49.4197 348.415 49.102 347.587C48.9246 346.752 48.4667 345.93 48.149 345.102C47.5384 344.006 46.9278 342.909 46.177 341.819C45.7685 342.118 45.36 342.417 44.9577 342.856C43.0494 344.204 40.9946 345.418 39.0801 346.625C37.2997 347.687 35.5132 348.608 33.5863 349.535C32.0679 350.164 30.6898 350.786 29.0126 351C28.0307 351.044 26.9022 350.953 25.914 350.856C25.2065 350.747 24.4927 350.498 23.9192 350.242C23.3457 349.987 22.9187 349.865 22.4854 349.604C21.4787 349.087 20.4658 348.429 19.5932 347.766C18.7206 347.102 17.9945 346.573 17.256 345.763C16.3772 344.959 15.9069 343.857 15.4366 342.755C15.4304 342.614 15.2777 342.34 15.2715 342.2C15.1065 341.646 15.0818 341.085 15.0632 340.665C15.0323 339.964 15.1417 339.258 15.2449 338.411C15.3604 337.844 15.4822 337.417 15.738 336.845C15.9877 336.132 16.3838 335.553 16.7861 335.114C17.4504 334.242 18.2673 333.644 19.0781 332.907C19.8889 332.169 20.8523 331.705 21.8158 331.241C23.0536 330.625 24.4317 330.003 25.6818 329.667C26.7917 329.337 28.0419 329.001 29.2983 328.805C30.6949 328.603 31.9513 328.407 33.3541 328.346C34.6166 328.29 35.7451 328.38 37.0138 328.465C38.2825 328.549 39.5574 328.774 40.6983 329.145C41.8329 329.375 42.9799 329.886 44.2671 330.391C44.6942 330.513 45.1274 330.774 45.5544 330.896C45.6823 330.609 45.8102 330.323 46.0723 329.89C46.4436 328.751 46.6686 327.477 46.7594 326.35C46.8564 325.363 46.8131 324.382 46.6295 323.407C46.4522 322.573 46.1345 321.745 45.8107 320.776C45.3527 319.954 44.8948 319.132 44.3027 318.456C43.2713 317.378 42.2398 316.301 41.0743 315.369C40.9278 315.235 40.7876 315.241 40.6411 315.107C38.4646 316.748 36.1354 318.114 33.6598 319.347C30.916 320.872 27.8792 322.129 24.9828 323.38C23.8791 323.85 22.7692 324.179 21.6654 324.649C20.4215 325.125 19.0186 325.187 17.6034 324.969C16.3347 324.885 15.328 324.367 14.181 323.856C13.6075 323.601 13.0217 323.065 12.5761 322.523C11.8437 321.854 11.5323 321.165 11.2084 320.197C11.0434 319.643 11.0187 319.082 10.8475 318.388C10.8413 318.248 10.8289 317.967 10.8166 317.687C10.7918 317.127 10.9136 316.7 11.0291 316.133C11.1385 315.427 11.3943 314.854 11.6502 314.281C11.906 313.708 12.3021 313.129 12.7044 312.69C13.1067 312.251 13.3687 311.818 13.771 311.379C14.1733 310.94 14.7159 310.495 15.2585 310.05C16.4839 309.154 17.862 308.531 19.0998 307.915C20.3438 307.439 21.5878 306.963 22.838 306.627C24.2285 306.285 25.6189 305.943 27.0156 305.741C28.2719 305.545 29.6686 305.343 30.9311 305.287C32.4742 305.219 34.0297 305.431 35.579 305.503C36.8477 305.588 37.9885 305.958 39.2696 306.323C40.6168 305 41.9578 303.537 43.1523 301.94C44.0724 300.495 44.9864 298.911 45.6198 297.338C45.985 296.059 46.3564 294.919 46.441 293.652C46.5318 292.525 46.4824 291.404 46.2926 290.289C45.9502 288.9 45.614 287.651 44.9973 286.415C44.5393 285.593 44.0814 284.77 43.4831 283.955C43.1902 283.687 43.0376 283.413 42.7446 283.145C41.3851 284.187 40.0255 285.23 38.5257 286.279C36.343 287.779 33.8612 288.872 31.3794 289.964C28.7573 291.063 25.9888 292.027 23.0614 292.577C21.6709 292.92 20.4146 293.115 19.0056 293.037C17.743 293.093 16.3278 292.875 15.0529 292.65C14.4856 292.535 13.9183 292.419 13.4851 292.158C12.9116 291.902 12.3443 291.787 11.7708 291.531C11.6243 291.397 11.484 291.403 11.3376 291.27C10.9044 291.008 10.6114 290.74 10.172 290.338C9.87292 289.93 9.57999 289.662 9.28087 289.254C9.12204 288.84 8.82293 288.432 8.6641 288.018C8.4929 287.324 8.32789 286.769 8.29697 286.069C8.29079 285.929 8.27842 285.648 8.27224 285.508C8.25369 285.088 8.36924 284.521 8.49098 284.095C8.60653 283.528 8.99646 282.809 9.25848 282.376C9.51431 281.803 10.0507 281.218 10.453 280.779C11.2514 279.761 12.3428 279.011 13.2938 278.267C14.5193 277.37 16.0315 276.602 17.4096 275.979C19.8914 274.887 22.5382 274.349 25.1912 273.951C28.1186 273.401 31.0583 273.131 34.0104 273.141C36.5417 273.169 38.9512 273.625 41.3793 274.5C43.5311 272.299 45.5364 269.965 47.3952 267.496C49.1076 264.893 50.5333 262.163 51.666 259.164C52.5428 256.739 53.2794 254.32 53.589 251.779C53.6612 250.231 53.5932 248.69 53.3849 247.155C53.1952 246.04 52.7249 244.938 52.2546 243.835C51.7904 242.873 51.186 241.917 50.4475 241.107C49.709 240.297 48.9767 239.628 48.1041 238.964C47.6709 238.702 47.3779 238.435 46.9447 238.173C46.1278 238.771 45.317 239.508 44.3597 240.112C42.0429 241.759 39.5797 243.271 37.1041 244.504C34.6284 245.736 32.1466 246.829 29.4998 247.366C28.1094 247.709 26.7127 247.911 25.3099 247.973C23.7668 248.041 22.071 247.835 20.5032 247.342C19.9359 247.227 19.3624 246.971 18.6486 246.722C18.2216 246.601 17.7884 246.339 17.4954 246.071C17.056 245.669 16.6228 245.408 16.1834 245.006C15.744 244.604 15.2923 243.922 15.1272 243.368C14.9622 242.813 14.9375 242.253 14.9128 241.692C14.888 241.132 14.9974 240.425 15.1191 239.998C15.4782 238.579 16.551 237.408 17.4897 236.384C19.3732 234.476 21.855 233.383 24.1966 232.297C26.9527 231.052 29.8801 230.502 32.8075 229.952C35.6008 229.548 38.4126 229.564 41.2368 229.861C42.5117 230.085 43.9269 230.304 45.2018 230.528C47.3598 228.467 49.3713 226.273 51.096 223.95C52.4185 222.067 53.448 219.915 54.3372 217.77C54.9644 216.058 55.3111 214.358 55.5175 212.664C55.5836 210.976 55.5032 209.154 55.2887 207.479C54.9463 206.09 54.6101 204.842 53.9933 203.605C53.3765 202.369 52.6257 201.279 51.8748 200.189C50.9836 199.105 49.9646 198.308 48.799 197.376C47.3529 196.457 45.7727 195.685 44.1987 195.052C43.6252 194.797 42.9176 194.687 42.3441 194.432C41.8015 194.877 41.2589 195.322 40.7164 195.767C38.6801 197.401 36.3572 198.908 34.0342 200.414C31.5709 201.927 28.8147 203.172 26.0338 203.856C24.7837 204.192 23.387 204.394 22.1245 204.45C20.7216 204.512 19.3126 204.434 17.8974 204.215C17.1898 204.106 16.6225 203.991 15.9149 203.881C15.3476 203.766 14.6338 203.517 14.0542 203.121C13.7674 202.993 13.621 202.859 13.328 202.592C12.8948 202.33 12.6019 202.062 12.443 201.648C11.9913 200.966 11.6798 200.278 11.5086 199.583C11.3374 198.889 11.3189 198.468 11.4282 197.762C11.5376 197.055 11.5129 196.494 11.7687 195.921C12.0245 195.349 12.2804 194.776 12.5362 194.203C12.792 193.63 13.3284 193.045 13.7307 192.606C13.8648 192.459 13.9989 192.313 14.133 192.167C14.5415 191.868 14.8097 191.575 15.2182 191.277C15.767 190.972 16.1693 190.533 16.718 190.228C17.2668 189.923 17.9558 189.611 18.5046 189.306C19.1936 188.995 20.023 188.678 20.712 188.367C23.3403 187.408 25.9933 187.01 28.7928 186.746C31.7325 186.476 34.697 186.767 37.6615 187.057C38.3691 187.166 38.9364 187.282 39.6378 187.251C41.7957 185.19 43.8134 183.135 45.5382 180.813C47.2505 178.21 48.8165 175.474 49.9492 172.475C50.3205 171.336 50.6919 170.196 50.923 169.063C51.2821 167.643 51.507 166.37 51.5854 164.962C51.6577 163.415 51.73 161.867 51.5155 160.192C51.1793 158.943 50.8493 157.834 50.3789 156.732C49.4569 154.947 48.4007 153.309 47.2104 151.817C45.8799 150.332 44.4152 148.992 42.8165 147.799C42.6762 147.806 42.67 147.666 42.5297 147.672C40.6276 149.16 38.5728 150.373 36.518 151.587C34.1889 152.954 31.7133 154.186 29.2253 155.138C27.9813 155.614 26.7373 156.09 25.3468 156.433C24.6516 156.604 23.9502 156.635 23.255 156.806C22.4133 156.843 21.4251 156.746 20.5772 156.643C19.3085 156.559 18.015 155.914 16.8742 155.543C16.3007 155.287 15.7211 154.892 15.1476 154.636C14.5679 154.241 13.9882 153.845 13.5426 153.303C12.5174 152.366 11.62 151.142 11.552 149.6C11.5211 148.9 11.6367 148.333 11.6057 147.632C11.7275 147.206 11.8554 146.919 11.9771 146.493C12.0989 146.066 12.3609 145.633 12.4826 145.207C12.7384 144.634 13.2748 144.049 13.5369 143.616C13.9392 143.177 14.3415 142.738 14.7438 142.299C15.2863 141.854 15.8289 141.409 16.3777 141.104C16.9203 140.659 17.6155 140.488 18.1643 140.183C20.7802 138.944 23.7075 138.394 26.5008 137.99C29.2941 137.586 32.1121 137.742 34.796 138.045C37.0529 138.226 39.1881 138.834 41.1891 139.588C42.4084 138.551 43.6215 137.375 44.8345 136.198C46.0476 135.021 47.2483 133.564 48.1747 132.26C49.4909 130.236 50.6669 128.219 51.55 125.933C52.1772 124.221 52.5238 122.521 52.7302 120.827C52.8272 119.84 52.7901 118.999 52.6065 118.025C52.423 117.05 52.1053 116.222 51.6412 115.259C51.1894 114.577 50.878 113.889 50.2859 113.213C49.6939 112.537 48.9615 111.868 48.2354 111.338C47.369 110.815 46.5087 110.432 45.6485 110.048C45.3617 109.921 45.0812 109.933 44.9347 109.799C44.3983 110.384 43.7154 110.836 43.179 111.421C42.0939 112.311 41.0149 113.341 39.7895 114.238C38.564 115.134 37.3324 115.891 35.9667 116.793C32.6864 118.904 29.1071 120.606 25.5278 122.308C24.1497 122.931 22.7778 123.693 21.3997 124.316C20.1557 124.792 18.9179 125.408 17.6553 125.463C16.1184 125.672 14.5506 125.179 13.2509 124.394C12.9642 124.267 12.6712 123.999 12.3845 123.871C11.9513 123.609 11.6522 123.201 11.3531 122.793C10.9075 122.251 10.6022 121.703 10.4372 121.149C10.2722 120.595 10.101 119.9 9.92976 119.206C9.89885 118.505 9.86793 117.805 9.9773 117.098C10.196 115.684 10.5674 114.545 11.2132 113.252C13.0183 112.752 13.4144 112.173 13.8105 111.594C14.3469 111.008 14.8833 110.423 15.4197 109.838C17.3095 108.07 19.3457 106.435 21.6811 105.209C22.9189 104.593 24.1629 104.117 25.4069 103.641C26.7911 103.159 28.1878 102.957 29.7185 102.608C32.5056 102.064 35.1648 101.806 37.9705 101.682C39.3733 101.621 40.642 101.705 42.051 101.783C43.392 100.32 44.5927 98.8632 45.647 97.2723C47.3594 94.6696 48.9253 91.933 50.0641 89.0748C50.8193 87.0759 51.2877 84.9493 51.6158 82.8289C51.6942 81.4215 51.6386 80.1603 51.4426 78.9054C51.2591 77.9307 50.9352 76.9623 50.6114 75.9938C50.1473 75.0315 49.4026 74.0816 48.7982 73.1255C48.5052 72.8576 48.2061 72.4496 47.9132 72.1817C46.1761 74.2239 44.146 75.9983 42.116 77.7726C39.8116 79.6994 37.3483 81.2121 34.7324 82.4507C33.4946 83.0669 32.2506 83.543 31.0004 83.8789C29.6162 84.3612 28.0792 84.5694 26.5423 84.7776C25.1457 84.9796 23.5902 84.7675 22.175 84.5491C21.6077 84.4338 20.9001 84.3246 20.3266 84.0691C19.3261 83.6921 18.4658 83.3088 17.5994 82.7855C16.8794 82.3961 16.2936 81.8603 15.7139 81.4647C15.1342 81.0691 14.5422 80.3932 14.2369 79.8451C13.4922 78.8952 13.0157 77.6527 12.8259 76.5379C12.6548 75.8434 12.6238 75.1428 12.5867 74.3021C12.5558 73.6015 12.659 72.7545 12.7684 72.0477C12.7622 71.9076 12.8901 71.6212 12.8839 71.481C12.9995 70.9144 13.2615 70.4816 13.377 69.9149C13.7608 69.0556 14.2848 68.1901 14.9553 67.4585C15.3576 67.0196 15.7537 66.4405 16.156 66.0016C16.6924 65.4163 17.3753 64.965 17.9179 64.5199C19.003 63.6296 20.3811 63.0072 21.619 62.391C22.8629 61.915 23.9667 61.4451 25.2106 60.969C26.8755 60.4743 28.5465 60.1198 30.364 59.8992C33.1573 59.4952 35.9568 59.2313 38.6407 59.534C40.19 59.6061 41.6051 59.8244 43.0265 60.1829C44.1611 60.4136 45.302 60.7845 46.3025 61.1615C47.4846 59.2842 48.3801 57.2791 49.2755 55.2741C50.0306 53.2752 50.499 51.1486 50.6806 48.8942C50.7529 47.3467 50.6911 45.9454 50.4828 44.4103C50.128 42.7412 49.6392 41.2184 48.8697 39.708C48.1003 38.1976 47.203 36.9736 46.1592 35.6157C44.9751 34.264 43.6569 33.0586 42.2046 31.9995C40.4656 30.8126 38.7389 29.9061 36.7379 29.152C36.0241 28.9027 35.3103 28.6534 34.743 28.538C32.1352 33.1458 29.2345 37.4856 26.0408 41.5577C25.2424 42.5757 24.3099 43.74 23.3712 44.7642C22.4325 45.7884 21.4938 46.8126 20.6892 47.6904C19.8846 48.5683 19.08 49.4462 18.1289 50.1902C17.0438 51.0804 15.806 51.6966 14.4217 52.1789C13.3118 52.5087 12.0492 52.5644 10.9208 52.4738C9.65207 52.3894 8.51744 52.1586 7.37045 51.6476C4.93619 50.6319 3.03214 48.8907 1.67067 46.7045C1.36537 46.1564 1.05389 45.4681 0.748595 44.92C0.443298 44.3719 0.278284 43.8176 0.24737 43.117C-0.0888413 41.8682 -0.0103879 40.4608 0.0742486 39.1935C0.158885 37.9262 0.530269 36.7867 1.03575 35.5008C1.67534 34.0686 2.3211 32.7765 3.25362 31.6122C6.43491 27.26 11.3676 24.3748 16.3436 22.4705C18.8316 21.5183 21.6187 20.9741 24.4181 20.7102C27.3579 20.4401 30.4565 20.5842 33.2868 21.0209C33.8542 21.1362 34.5618 21.2454 35.1291 21.3608C36.9508 18.0513 38.4796 14.4739 39.8743 11.0428C40.3798 9.75697 40.7512 8.61741 40.9761 7.34392C41.0793 6.49699 41.4507 5.35743 41.6818 4.22406C41.6633 3.80369 41.6447 3.38332 41.6262 2.96295L41.62 2.82283C41.4859 2.96914 41.3518 3.11545 41.2177 3.26177C40.8216 3.84083 40.4254 4.4199 40.0293 4.99896C39.6332 5.57802 38.938 5.7491 38.3645 5.49361C37.9313 5.23193 37.4733 4.40976 37.8756 3.97082C38.2656 3.25163 38.6617 2.67257 39.1919 1.94719C39.4601 1.65456 39.7283 1.36194 39.9965 1.06931C40.2647 0.776684 40.6732 0.477867 41.0817 0.17905C41.4901 -0.119766 42.1977 -0.0105924 42.4907 0.257275C42.7836 0.525142 43.0827 0.933133 43.3756 1.201C43.3818 1.34112 43.5283 1.47506 43.6747 1.60899C43.8274 1.88305 43.8336 2.02317 43.9862 2.29723C44.1512 2.85153 44.1698 3.2719 44.1883 3.69227C44.2131 4.25277 44.0913 4.67933 44.1161 5.23982C44.0005 5.80651 43.8912 6.51331 43.7756 7.08C43.6601 7.64668 43.5507 8.35349 43.4351 8.92017C43.0823 10.4801 42.583 11.9061 42.0899 13.4722C40.8231 16.6168 39.5501 19.6213 38.1368 22.632ZM29.791 336.786C28.12 337.141 26.4551 337.635 24.9429 338.404C24.2539 338.715 23.571 339.166 22.8881 339.618C22.754 339.764 22.4797 339.917 22.3456 340.063L22.3517 340.203L22.3579 340.343C22.3641 340.483 22.3703 340.623 22.5168 340.757C23.1026 341.293 23.6947 341.969 24.4208 342.499C25.147 343.028 25.8669 343.417 26.7272 343.801C27.0139 343.928 27.2945 343.916 27.5812 344.044C27.7215 344.038 28.0021 344.025 28.1424 344.019C28.6973 343.854 29.2522 343.689 29.6607 343.39C31.307 342.475 32.9533 341.56 34.5934 340.505C36.0932 339.456 37.7334 338.401 39.2332 337.352C37.9521 336.988 36.6772 336.763 35.4023 336.539C33.5724 336.479 31.7488 336.559 29.791 336.786ZM17.6181 318.931C17.612 318.791 17.612 318.791 17.6181 318.931V318.931ZM17.3252 318.663C17.4717 318.797 17.4717 318.797 17.612 318.791C17.4717 318.797 17.4655 318.657 17.3252 318.663C17.3252 318.663 17.1787 318.53 17.3252 318.663C17.3252 318.663 17.1787 318.53 17.3252 318.663ZM26.7759 313.052C24.6841 313.425 22.4581 313.944 20.5312 314.872C19.8484 315.323 19.1593 315.634 18.4826 316.226C18.2144 316.518 17.806 316.817 17.5439 317.25C17.416 317.536 17.2881 317.823 17.1602 318.109C17.1664 318.249 17.1726 318.389 17.0385 318.536C17.0385 318.536 17.0385 318.536 17.0446 318.676C17.1911 318.81 17.4779 318.937 17.6181 318.931C17.7584 318.925 17.8987 318.919 17.9049 319.059C18.1855 319.047 18.466 319.034 18.7466 319.022C19.7162 318.698 20.6858 318.375 21.509 317.917C23.4358 316.99 25.2224 316.069 27.009 315.147C28.3809 314.385 29.6187 313.769 30.8503 313.012C30.4295 313.031 30.0086 313.05 29.5878 313.068C28.874 312.819 27.892 312.862 26.7759 313.052ZM26.2079 281.066C23.8355 281.452 21.6157 282.111 19.4021 282.911C18.4387 283.375 17.4814 283.979 16.5304 284.723C16.1281 285.162 15.7258 285.6 15.3235 286.039C15.1894 286.186 15.1955 286.326 15.0614 286.472C15.2017 286.466 15.2079 286.606 15.3482 286.6C15.9217 286.855 16.6293 286.965 17.1904 286.94C18.1786 287.037 19.3008 286.987 20.2766 286.804C23.6187 286.095 26.7957 284.831 29.9666 283.428C31.3447 282.805 32.7166 282.043 34.0823 281.14C34.4908 280.841 34.7652 280.689 35.1736 280.39C32.2215 280.38 29.1415 280.656 26.2079 281.066ZM22.0857 241.797C22.2198 241.651 22.226 241.791 22.0857 241.797C22.2198 241.651 22.226 241.791 22.0857 241.797ZM32.9764 236.964C31.8603 237.154 30.6101 237.49 29.5002 237.82C28.1098 238.162 26.872 238.778 25.628 239.254C24.6645 239.718 23.8476 240.315 22.8903 240.919C22.6221 241.212 22.3539 241.504 22.0857 241.797C22.7995 242.046 23.6474 242.149 24.355 242.258C25.337 242.215 26.1787 242.178 27.1606 242.135C29.1122 241.768 30.9112 241.127 32.7039 240.346C34.7649 239.272 36.8196 238.058 38.728 236.71C38.0265 236.741 37.3189 236.632 36.6175 236.663C35.4953 236.713 34.2327 236.768 32.9764 236.964ZM27.8394 193.808C25.8878 194.175 23.8083 194.829 22.0155 195.61C21.3265 195.921 20.7839 196.366 20.101 196.817C19.8328 197.11 19.5584 197.262 19.2902 197.555C19.1561 197.701 19.1623 197.842 19.0282 197.988C19.1685 197.982 19.4552 198.109 19.5955 198.103C21.1448 198.175 22.6879 198.107 24.2249 197.899C25.6153 197.557 26.9996 197.075 28.2374 196.458C30.024 195.537 31.6641 194.482 33.3042 193.427C32.8833 193.445 32.4625 193.464 32.0417 193.483C30.6326 193.404 29.236 193.606 27.8394 193.808ZM26.6759 145.142C25.0048 145.497 23.3338 145.851 21.6813 146.626C21.2729 146.925 20.7241 147.23 20.3156 147.529C19.9071 147.828 19.6451 148.26 19.3769 148.553C19.2428 148.699 19.249 148.839 19.1149 148.986L19.1211 149.126C19.2676 149.26 19.414 149.394 19.5605 149.528C19.9937 149.789 20.2804 149.917 20.7137 150.179C21.2872 150.434 21.9948 150.543 22.5621 150.659C23.1232 150.634 23.6843 150.609 24.1052 150.591C25.6359 150.242 27.0202 149.76 28.3921 148.998C30.7336 147.911 33.0628 146.545 35.2517 145.185C35.2517 145.185 35.2517 145.185 35.3919 145.179C34.8246 145.063 34.2635 145.088 33.6962 144.973C31.299 144.798 29.0545 144.897 26.6759 145.142ZM18.8707 117.969L19.011 117.963L18.8707 117.969ZM17.8764 117.732C17.7361 117.738 17.7361 117.738 17.5958 117.744C17.5958 117.744 17.7361 117.738 17.8764 117.732ZM18.2911 117.573C18.2849 117.433 18.2911 117.573 18.2911 117.573V117.573ZM32.1319 109.522C29.8997 109.901 27.68 110.56 25.4664 111.36C24.3688 111.97 23.2775 112.72 22.3264 113.464C21.2413 114.354 20.3026 115.379 19.5041 116.397C19.3762 116.683 19.2421 116.829 19.1142 117.116C19.3886 116.963 19.5289 116.957 19.8033 116.805C21.5898 115.883 23.5167 114.956 25.2971 113.895C28.1812 112.363 30.925 110.838 33.6626 109.173C32.9736 109.484 32.5528 109.503 32.1319 109.522ZM30.3389 68.8857C29.5033 69.063 28.5276 69.2464 27.6982 69.5638C26.5883 69.8936 25.6187 70.2171 24.6553 70.6808C23.8321 71.1384 23.009 71.5959 22.3261 72.0472C21.9177 72.346 21.6556 72.7788 21.2533 73.2177C21.1192 73.364 20.9913 73.6504 20.8572 73.7968C20.8634 73.9369 20.7293 74.0832 20.7355 74.2233C20.7479 74.5036 20.7602 74.7838 20.7788 75.2042L20.785 75.3443C20.9314 75.4782 21.2243 75.7461 21.3708 75.88C21.6637 76.1479 22.0908 76.2695 22.3775 76.3972C22.9448 76.5126 23.5183 76.7681 24.2197 76.7371C25.0614 76.7 25.9031 76.6628 26.8851 76.6195C28.5561 76.265 30.0807 75.7765 31.5991 75.1479C33.9344 73.9217 36.1171 72.4214 38.1533 70.7872C38.9641 70.0495 39.6408 69.458 40.3113 68.7265C39.6037 68.6173 38.7496 68.3742 38.0482 68.4051C35.651 68.2301 32.9919 68.4878 30.3389 68.8857ZM21.6596 28.2729C20.6838 28.4564 19.8483 28.6336 18.8787 28.9572C17.7688 29.287 16.8054 29.7507 15.8419 30.2144C13.9151 31.1418 12.1409 32.3432 10.507 33.5385C9.56207 34.4226 8.62337 35.4468 7.82496 36.4648C7.29474 37.1902 6.91099 38.0495 6.52724 38.9088C6.27141 39.4817 6.15586 40.0483 6.04031 40.615C6.06504 41.1755 6.09595 41.8761 6.12068 42.4366C6.27952 42.8508 6.43835 43.265 6.59718 43.6792C6.90248 44.2273 7.20777 44.7754 7.65335 45.3173C8.09275 45.7191 8.53214 46.1209 8.97154 46.5227C9.55122 46.9183 9.98443 47.18 10.5579 47.4355C11.1252 47.5509 11.6926 47.6662 12.2599 47.7816C12.6807 47.763 12.9613 47.7506 13.3821 47.7321C13.9371 47.5672 14.492 47.4023 14.9067 47.2436C15.4554 46.9386 15.998 46.4935 16.5468 46.1885C20.8751 42.3472 24.764 38.1041 28.067 33.3253C29.2615 31.7282 30.3096 29.9972 31.3577 28.2662C30.7903 28.1508 30.0827 28.0417 29.3752 27.9325C26.8377 27.7637 24.3126 27.8751 21.6596 28.2729Z" fill="#F4E6CA"/>
</svg>
