<svg width="226" height="26" viewBox="0 0 226 26" fill="none" xmlns="http://www.w3.org/2000/svg">
<path d="M218.36 11.422C216.22 11.8728 214.158 12.2486 212.018 12.6994C209.65 13.2254 207.281 13.7514 204.913 14.4277C202.162 15.1792 199.412 16.0058 196.585 16.9075C194.598 17.5087 192.612 18.2601 190.625 18.8613C189.632 19.1618 188.563 19.3873 187.493 19.6127C186.652 19.763 185.888 19.9884 185.048 20.1387C184.819 20.1387 184.513 20.1387 184.284 20.1387C184.36 19.8382 184.513 19.4624 184.59 19.1618C184.666 18.7861 184.819 18.4855 184.895 18.1098C185.201 17.0578 185.506 15.9306 185.812 14.8786C185.965 14.1272 186.118 13.3757 186.27 12.6994C186.347 12.3237 186.347 11.948 186.347 11.4971C186.347 11.1214 186.27 10.7457 186.194 10.3699C186.118 9.76879 185.812 9.09249 185.506 8.56647C185.277 8.2659 185.048 7.96532 184.666 7.73988C184.284 7.51445 183.902 7.36416 183.52 7.28902C183.214 7.21387 182.832 7.21387 182.45 7.13873C182.145 7.13873 181.763 7.13873 181.457 7.13873C180.617 7.21387 179.776 7.43931 178.936 7.73988C178.325 7.96532 177.713 8.11561 177.026 8.2659C175.956 8.56647 174.886 8.86705 173.817 9.24277C171.525 9.99422 169.233 10.6705 166.941 11.4971C164.114 12.474 161.363 13.4509 158.536 14.4277C155.938 15.3295 153.341 16.2312 150.743 16.9827C149.139 17.5087 147.534 17.8844 145.853 18.3353C144.249 18.7861 142.568 19.1618 140.887 19.3873C139.206 19.6127 137.449 19.6879 135.692 19.5376C135.157 19.4624 134.622 19.3121 134.164 19.1618C133.858 19.0116 133.552 18.8613 133.247 18.6358C133.018 18.4104 132.788 18.2601 132.559 18.0347C132.483 17.9595 132.406 17.8092 132.406 17.7341C132.254 17.2832 132.177 16.7572 132.101 16.3064C132.024 15.4046 132.024 14.5029 132.024 13.6763C132.024 12.8497 132.024 12.0231 131.948 11.1965C131.948 9.91908 131.872 8.71676 131.719 7.43931C131.49 5.86127 131.184 4.20809 130.267 2.78035C130.038 2.47977 129.809 2.17919 129.503 1.87861C129.197 1.57803 128.892 1.3526 128.586 1.12717C127.975 0.676301 127.287 0.375723 126.6 0.150289C126.218 0.0751445 125.836 0.0751445 125.454 0C125.377 0 125.301 0 125.224 0C124.919 0 124.69 5.5987e-09 124.384 0.0751445C123.467 0.150289 122.55 0.300578 121.634 0.526012C120.793 0.751445 120.029 1.05202 119.189 1.3526C118.425 1.65318 117.584 1.87861 116.82 2.17919C115.139 2.78035 113.458 3.53179 111.778 4.28324C110.25 4.95954 108.721 5.71098 107.193 6.46243C106.353 6.9133 105.513 7.28902 104.672 7.73988C103.373 8.41619 102.151 9.09249 100.852 9.76879C98.9419 10.8208 96.9554 11.8728 95.0453 12.9249C92.906 14.1272 90.6903 15.3295 88.5511 16.4566C85.877 17.9595 83.05 19.3873 80.2231 20.5896C79.0771 21.0405 77.931 21.4913 76.785 21.8671C75.6389 22.2428 74.4929 22.6185 73.2705 22.7688C72.3536 22.8439 71.4368 22.9191 70.4435 22.8439C70.1379 22.7688 69.8323 22.6936 69.5267 22.6185C69.3739 22.5434 69.1447 22.3931 68.9919 22.3179C68.7627 22.0925 68.6099 21.9422 68.3807 21.7168C68.3043 21.6416 68.3043 21.5665 68.2279 21.4913C68.0751 20.9653 67.9222 20.3642 67.8458 19.8382C67.7694 19.0116 67.693 18.185 67.693 17.3584C67.6166 16.5318 67.5402 15.7052 67.5402 14.9538C67.4638 13.6763 67.311 12.3237 67.0818 11.0462C66.929 10.2948 66.6998 9.6185 66.4706 8.86705C66.165 8.04046 65.8594 7.28902 65.4009 6.53757C65.0189 5.93642 64.4841 5.4104 64.0257 4.88439C63.4909 4.35838 62.8032 3.90751 62.192 3.53179C61.81 3.08093 61.1224 2.85549 60.3584 2.63006C59.4415 2.32948 58.5247 2.25434 57.6078 2.17919C54.0169 1.87861 50.426 2.63006 46.9878 3.3815C43.3969 4.13295 39.8824 5.10983 36.4442 6.16185C34.8398 6.61272 33.3117 7.06358 31.7072 7.5896C29.2623 8.49133 26.741 9.39306 24.2961 10.2948C20.2468 11.7977 16.1974 13.4509 12.2245 15.104C11.1548 15.5549 10.0852 16.0058 9.01555 16.4566C8.02231 16.8324 7.10548 17.2832 6.11224 17.7341C4.04936 18.711 2.06288 19.6879 0 20.6647C3.74375 19.6127 7.41109 18.4855 11.0784 17.4335C14.0581 16.6069 17.0379 15.7803 20.0176 14.8786C23.3029 13.9017 26.5882 12.8497 29.8736 11.7977C30.7904 11.4971 31.7836 11.1965 32.7005 10.8208C34.3813 10.2197 36.0622 9.76879 37.7431 9.24277C40.2644 8.49133 42.7857 7.73989 45.307 7.06358C46.6058 6.76301 47.8283 6.46243 49.1271 6.16185C50.5024 5.86127 51.8776 5.56069 53.3293 5.33526C55.0866 5.10983 56.8438 5.03468 58.6011 5.26012C59.2123 5.48555 59.7471 5.63584 60.3584 5.86127C60.8168 6.08671 61.3516 6.38728 61.7336 6.68786C62.1156 6.98844 62.4976 7.36416 62.8032 7.66474C63.1089 8.11561 63.3381 8.56647 63.5673 9.01734C64.0257 10.1445 64.3313 11.2717 64.5605 12.3988C64.7897 14.1272 64.8661 15.9306 65.0189 17.659C65.0189 18.0347 65.0953 18.3353 65.0953 18.711C65.0953 19.4624 65.2481 20.289 65.3245 21.0405C65.4009 21.4162 65.4774 21.7168 65.5538 22.0925C65.6302 22.4682 65.783 22.7688 66.0122 23.0694C66.165 23.3699 66.4706 23.6705 66.6998 23.9711C66.8526 24.1965 67.0818 24.3468 67.2346 24.4971C67.4638 24.6474 67.6166 24.7977 67.8458 24.948C68.4571 25.3237 69.1447 25.6243 69.8323 25.7746C70.5964 25.9249 71.3604 26 72.048 26C73.8053 26 75.5625 25.6243 77.167 25.1734C78.0074 24.948 78.7715 24.6474 79.5355 24.3468C80.2995 24.0462 81.14 23.7457 81.904 23.4451C83.5849 22.6936 85.2657 21.9422 86.9466 21.1156C87.6342 20.7399 88.3982 20.3642 89.0859 19.9884C89.6207 19.6879 90.0791 19.3873 90.6139 19.1618C92.142 18.3353 93.6701 17.4335 95.2745 16.6069C97.0318 15.6301 98.8655 14.6532 100.623 13.6763C102.533 12.6243 104.366 11.6474 106.277 10.5954C107.193 10.0694 108.11 9.6185 109.103 9.16763C111.166 8.11561 113.229 7.13873 115.368 6.31214C116.744 5.71098 118.119 5.18497 119.571 4.7341C120.946 4.28324 122.398 3.75723 123.849 3.53179C124.537 3.45665 125.148 3.3815 125.759 3.45665C125.836 3.45665 125.912 3.53179 126.065 3.53179C126.294 3.60694 126.447 3.75723 126.6 3.83237C126.829 4.0578 127.058 4.28324 127.287 4.50867C127.44 4.65896 127.517 4.88439 127.669 5.10983C127.975 5.93642 128.128 6.83815 128.281 7.73988C128.433 8.86705 128.433 10.0694 128.433 11.1965C128.433 12.0231 128.433 12.8497 128.433 13.6763C128.433 14.578 128.433 15.4798 128.433 16.4566C128.433 16.8324 128.51 17.2832 128.586 17.659C128.663 18.0347 128.739 18.3353 128.815 18.711C128.892 19.0867 129.121 19.4624 129.274 19.763C129.35 19.9884 129.503 20.1387 129.656 20.289C129.809 20.5145 129.961 20.7399 130.191 20.9653C130.42 21.2659 130.725 21.4162 130.955 21.6416C131.26 21.8671 131.566 22.0925 131.948 22.3179C132.254 22.4682 132.559 22.6185 132.865 22.7688C133.247 22.9191 133.629 23.0694 134.011 23.2197C134.775 23.4451 135.615 23.5202 136.456 23.5954C137.373 23.6705 138.289 23.5954 139.206 23.5954C140.887 23.5202 142.568 23.2197 144.172 22.9191C145.93 22.5434 147.687 22.0173 149.444 21.4913C152.882 20.5145 156.168 19.3121 159.529 18.1098C160.523 17.7341 161.592 17.3584 162.586 16.9827C164.878 16.1561 167.17 15.2543 169.462 14.5029C171.372 13.8266 173.282 13.1503 175.192 12.5491C176.109 12.2486 177.026 12.0231 177.943 11.7225C178.401 11.5723 178.936 11.422 179.394 11.2717C180.158 11.0462 180.922 10.8208 181.763 10.6705C182.068 10.6705 182.374 10.6705 182.68 10.6705C182.756 10.6705 182.756 10.6705 182.832 10.6705C182.909 10.896 182.909 11.0462 182.985 11.2717C182.985 11.5723 182.985 11.7977 182.985 12.0983C182.68 13.6012 182.221 15.0289 181.763 16.5318C181.533 17.2832 181.304 18.0347 180.999 18.7861C180.922 19.0116 180.846 19.237 180.693 19.4624C180.54 19.8382 180.54 20.2139 180.54 20.5896C180.54 20.7399 180.617 20.8902 180.617 21.1156C180.617 21.341 180.693 21.4913 180.769 21.7168C180.846 22.0925 181.075 22.3931 181.228 22.7688C181.304 22.8439 181.381 22.9191 181.381 22.9942C181.533 23.2197 181.686 23.3699 181.915 23.5202C182.298 23.8208 182.603 23.9711 183.062 24.1214C183.826 24.3468 184.666 24.422 185.43 24.3468C186.194 24.2717 186.958 24.1214 187.722 23.9711C188.41 23.8208 189.174 23.6705 189.861 23.5202C191.619 23.1445 193.3 22.5434 194.98 21.9422C198.266 20.7399 201.475 19.5376 204.684 18.2601C209.115 16.4566 213.699 14.8035 218.131 13.1503C219.277 12.6994 220.423 12.2486 221.645 11.8728C223.097 11.3468 224.548 10.7457 226 10.2948C223.479 10.3699 220.957 10.896 218.36 11.422ZM182.68 10.4451C182.756 10.4451 182.756 10.5202 182.832 10.5202C182.756 10.4451 182.68 10.4451 182.68 10.4451ZM184.437 20.2139C184.513 20.2139 184.513 20.2139 184.59 20.289C184.513 20.2139 184.513 20.2139 184.437 20.2139Z" fill="#373737"/>
</svg>
