<svg width="733" height="54" viewBox="0 0 733 54" fill="none" xmlns="http://www.w3.org/2000/svg">
<path d="M727.168 11.6555C725.503 11.6555 724.17 11.156 723.171 10.157C722.228 9.15792 721.756 7.71486 721.756 5.82777C721.756 4.05169 722.228 2.63637 723.171 1.58183C724.115 0.527275 725.447 0 727.168 0C728.777 0 730.054 0.499525 730.997 1.49857C731.996 2.49762 732.496 3.94068 732.496 5.82777C732.496 7.65935 731.996 9.10242 730.997 10.157C730.054 11.156 728.777 11.6555 727.168 11.6555ZM704.939 11.6555C703.274 11.6555 701.942 11.156 700.943 10.157C699.999 9.15792 699.527 7.71486 699.527 5.82777C699.527 4.05169 699.999 2.63637 700.943 1.58183C701.886 0.527275 703.218 0 704.939 0C706.548 0 707.825 0.499525 708.769 1.49857C709.768 2.49762 710.267 3.94068 710.267 5.82777C710.267 7.65935 709.768 9.10242 708.769 10.157C707.825 11.156 706.548 11.6555 704.939 11.6555ZM727.168 32.469C725.503 32.469 724.17 31.9695 723.171 30.9704C722.228 29.9714 721.756 28.5283 721.756 26.6412C721.756 24.8651 722.228 23.4498 723.171 22.3953C724.115 21.3407 725.447 20.8134 727.168 20.8134C728.777 20.8134 730.054 21.313 730.997 22.312C731.996 23.3111 732.496 24.7541 732.496 26.6412C732.496 28.4728 731.996 29.9159 730.997 30.9704C730.054 31.9695 728.777 32.469 727.168 32.469ZM704.939 53.2824C703.274 53.2824 701.942 52.7829 700.943 51.7839C699.999 50.7848 699.527 49.3417 699.527 47.4547C699.527 45.6786 699.999 44.2633 700.943 43.2087C701.886 42.1542 703.218 41.6269 704.939 41.6269C706.548 41.6269 707.825 42.1264 708.769 43.1255C709.768 44.1245 710.267 45.5676 710.267 47.4547C710.267 49.2862 709.768 50.7293 708.769 51.7839C707.825 52.7829 706.548 53.2824 704.939 53.2824ZM727.168 53.2824C725.503 53.2824 724.17 52.7829 723.171 51.7839C722.228 50.7848 721.756 49.3417 721.756 47.4547C721.756 45.6786 722.228 44.2633 723.171 43.2087C724.115 42.1542 725.447 41.6269 727.168 41.6269C728.777 41.6269 730.054 42.1264 730.997 43.1255C731.996 44.1245 732.496 45.5676 732.496 47.4547C732.496 49.2862 731.996 50.7293 730.997 51.7839C730.054 52.7829 728.777 53.2824 727.168 53.2824Z" fill="black"/>
<path d="M668.873 11.6555C667.208 11.6555 665.876 11.156 664.877 10.157C663.933 9.15792 663.461 7.71486 663.461 5.82777C663.461 4.05169 663.933 2.63637 664.877 1.58183C665.82 0.527275 667.152 0 668.873 0C670.482 0 671.759 0.499525 672.702 1.49857C673.701 2.49762 674.201 3.94068 674.201 5.82777C674.201 7.65935 673.701 9.10242 672.702 10.157C671.759 11.156 670.482 11.6555 668.873 11.6555ZM646.644 32.469C644.979 32.469 643.647 31.9695 642.648 30.9704C641.704 29.9714 641.232 28.5283 641.232 26.6412C641.232 24.8651 641.704 23.4498 642.648 22.3953C643.591 21.3407 644.923 20.8134 646.644 20.8134C648.254 20.8134 649.53 21.313 650.474 22.312C651.473 23.3111 651.972 24.7541 651.972 26.6412C651.972 28.4728 651.473 29.9159 650.474 30.9704C649.53 31.9695 648.254 32.469 646.644 32.469ZM668.873 32.469C667.208 32.469 665.876 31.9695 664.877 30.9704C663.933 29.9714 663.461 28.5283 663.461 26.6412C663.461 24.8651 663.933 23.4498 664.877 22.3953C665.82 21.3407 667.152 20.8134 668.873 20.8134C670.482 20.8134 671.759 21.313 672.702 22.312C673.701 23.3111 674.201 24.7541 674.201 26.6412C674.201 28.4728 673.701 29.9159 672.702 30.9704C671.759 31.9695 670.482 32.469 668.873 32.469ZM646.644 53.2824C644.979 53.2824 643.647 52.7829 642.648 51.7839C641.704 50.7848 641.232 49.3417 641.232 47.4547C641.232 45.6786 641.704 44.2633 642.648 43.2087C643.591 42.1542 644.923 41.6269 646.644 41.6269C648.254 41.6269 649.53 42.1264 650.474 43.1255C651.473 44.1245 651.972 45.5676 651.972 47.4547C651.972 49.2862 651.473 50.7293 650.474 51.7839C649.53 52.7829 648.254 53.2824 646.644 53.2824Z" fill="black"/>
<path d="M610.58 11.6555C608.915 11.6555 607.583 11.156 606.584 10.157C605.64 9.15792 605.168 7.71486 605.168 5.82777C605.168 4.05169 605.64 2.63637 606.584 1.58183C607.527 0.527276 608.859 0 610.58 0C612.189 0 613.466 0.499525 614.409 1.49857C615.408 2.49762 615.908 3.94068 615.908 5.82777C615.908 7.65936 615.408 9.10242 614.409 10.157C613.466 11.156 612.189 11.6555 610.58 11.6555ZM588.351 32.469C586.686 32.469 585.354 31.9695 584.355 30.9704C583.411 29.9714 582.939 28.5283 582.939 26.6412C582.939 24.8651 583.411 23.4498 584.355 22.3953C585.298 21.3407 586.63 20.8135 588.351 20.8135C589.961 20.8135 591.237 21.313 592.181 22.312C593.18 23.3111 593.679 24.7541 593.679 26.6412C593.679 28.4728 593.18 29.9159 592.181 30.9704C591.237 31.9695 589.961 32.469 588.351 32.469Z" fill="black"/>
<path d="M530.056 11.6555C528.391 11.6555 527.059 11.156 526.06 10.157C525.116 9.15792 524.645 7.71486 524.645 5.82777C524.645 4.05169 525.116 2.63637 526.06 1.58183C527.003 0.527275 528.335 0 530.056 0C531.666 0 532.942 0.499525 533.886 1.49857C534.885 2.49762 535.384 3.94068 535.384 5.82777C535.384 7.65935 534.885 9.10242 533.886 10.157C532.942 11.156 531.666 11.6555 530.056 11.6555ZM530.056 32.469C528.391 32.469 527.059 31.9695 526.06 30.9704C525.116 29.9714 524.645 28.5283 524.645 26.6412C524.645 24.8651 525.116 23.4498 526.06 22.3953C527.003 21.3407 528.335 20.8134 530.056 20.8134C531.666 20.8134 532.942 21.313 533.886 22.312C534.885 23.3111 535.384 24.7541 535.384 26.6412C535.384 28.4728 534.885 29.9159 533.886 30.9704C532.942 31.9695 531.666 32.469 530.056 32.469ZM530.056 53.2824C528.391 53.2824 527.059 52.7829 526.06 51.7839C525.116 50.7848 524.645 49.3417 524.645 47.4547C524.645 45.6786 525.116 44.2633 526.06 43.2087C527.003 42.1542 528.335 41.6269 530.056 41.6269C531.666 41.6269 532.942 42.1264 533.886 43.1255C534.885 44.1245 535.384 45.5676 535.384 47.4547C535.384 49.2862 534.885 50.7293 533.886 51.7839C532.942 52.7829 531.666 53.2824 530.056 53.2824Z" fill="black"/>
<path d="M493.992 11.6555C492.327 11.6555 490.995 11.156 489.996 10.157C489.052 9.15792 488.58 7.71486 488.58 5.82777C488.58 4.05169 489.052 2.63637 489.996 1.58183C490.939 0.527276 492.271 0 493.992 0C495.601 0 496.878 0.499525 497.821 1.49857C498.821 2.49762 499.32 3.94068 499.32 5.82777C499.32 7.65936 498.821 9.10242 497.821 10.157C496.878 11.156 495.601 11.6555 493.992 11.6555ZM471.763 32.469C470.098 32.469 468.766 31.9695 467.767 30.9704C466.823 29.9714 466.352 28.5283 466.352 26.6412C466.352 24.8651 466.823 23.4498 467.767 22.3953C468.71 21.3407 470.042 20.8135 471.763 20.8135C473.373 20.8135 474.649 21.313 475.593 22.312C476.592 23.3111 477.091 24.7541 477.091 26.6412C477.091 28.4728 476.592 29.9159 475.593 30.9704C474.649 31.9695 473.373 32.469 471.763 32.469Z" fill="black"/>
<path d="M413.468 11.6555C411.803 11.6555 410.471 11.156 409.472 10.157C408.528 9.15792 408.057 7.71486 408.057 5.82777C408.057 4.05169 408.528 2.63637 409.472 1.58183C410.415 0.527276 411.748 0 413.468 0C415.078 0 416.354 0.499525 417.298 1.49857C418.297 2.49762 418.796 3.94068 418.796 5.82777C418.796 7.65936 418.297 9.10242 417.298 10.157C416.354 11.156 415.078 11.6555 413.468 11.6555ZM413.468 32.469C411.803 32.469 410.471 31.9695 409.472 30.9704C408.528 29.9714 408.057 28.5283 408.057 26.6412C408.057 24.8651 408.528 23.4498 409.472 22.3953C410.415 21.3407 411.748 20.8135 413.468 20.8135C415.078 20.8135 416.354 21.313 417.298 22.312C418.297 23.3111 418.796 24.7541 418.796 26.6412C418.796 28.4728 418.297 29.9159 417.298 30.9704C416.354 31.9695 415.078 32.469 413.468 32.469Z" fill="black"/>
<path d="M377.404 11.6555C375.739 11.6555 374.407 11.156 373.408 10.157C372.464 9.15792 371.992 7.71486 371.992 5.82777C371.992 4.05169 372.464 2.63637 373.408 1.58183C374.351 0.527276 375.683 0 377.404 0C379.013 0 380.29 0.499525 381.234 1.49857C382.233 2.49762 382.732 3.94068 382.732 5.82777C382.732 7.65936 382.233 9.10242 381.234 10.157C380.29 11.156 379.013 11.6555 377.404 11.6555ZM355.175 32.469C353.51 32.469 352.178 31.9695 351.179 30.9704C350.235 29.9714 349.764 28.5283 349.764 26.6412C349.764 24.8651 350.235 23.4498 351.179 22.3953C352.123 21.3407 353.455 20.8135 355.175 20.8135C356.785 20.8135 358.061 21.313 359.005 22.312C360.004 23.3111 360.503 24.7541 360.503 26.6412C360.503 28.4728 360.004 29.9159 359.005 30.9704C358.061 31.9695 356.785 32.469 355.175 32.469Z" fill="black"/>
<path d="M319.109 11.6555C317.444 11.6555 316.112 11.156 315.113 10.157C314.169 9.15792 313.697 7.71486 313.697 5.82777C313.697 4.05169 314.169 2.63637 315.113 1.58183C316.056 0.527275 317.388 0 319.109 0C320.719 0 321.995 0.499525 322.939 1.49857C323.938 2.49762 324.437 3.94068 324.437 5.82777C324.437 7.65935 323.938 9.10242 322.939 10.157C321.995 11.156 320.719 11.6555 319.109 11.6555ZM296.88 32.469C295.215 32.469 293.883 31.9695 292.884 30.9704C291.941 29.9714 291.469 28.5283 291.469 26.6412C291.469 24.8651 291.941 23.4498 292.884 22.3953C293.828 21.3407 295.16 20.8134 296.88 20.8134C298.49 20.8134 299.766 21.313 300.71 22.312C301.709 23.3111 302.208 24.7541 302.208 26.6412C302.208 28.4728 301.709 29.9159 300.71 30.9704C299.766 31.9695 298.49 32.469 296.88 32.469ZM296.88 53.2824C295.215 53.2824 293.883 52.7829 292.884 51.7839C291.941 50.7848 291.469 49.3417 291.469 47.4547C291.469 45.6786 291.941 44.2633 292.884 43.2087C293.828 42.1542 295.16 41.6269 296.88 41.6269C298.49 41.6269 299.766 42.1264 300.71 43.1255C301.709 44.1245 302.208 45.5676 302.208 47.4547C302.208 49.2862 301.709 50.7293 300.71 51.7839C299.766 52.7829 298.49 53.2824 296.88 53.2824Z" fill="black"/>
<path d="M260.816 11.6555C259.151 11.6555 257.819 11.156 256.82 10.157C255.876 9.15792 255.405 7.71486 255.405 5.82777C255.405 4.05169 255.876 2.63637 256.82 1.58183C257.763 0.527275 259.095 0 260.816 0C262.426 0 263.702 0.499525 264.646 1.49857C265.645 2.49762 266.144 3.94068 266.144 5.82777C266.144 7.65935 265.645 9.10242 264.646 10.157C263.702 11.156 262.426 11.6555 260.816 11.6555ZM238.587 32.469C236.922 32.469 235.59 31.9695 234.591 30.9704C233.648 29.9714 233.176 28.5283 233.176 26.6412C233.176 24.8651 233.648 23.4498 234.591 22.3953C235.535 21.3407 236.867 20.8134 238.587 20.8134C240.197 20.8134 241.473 21.313 242.417 22.312C243.416 23.3111 243.916 24.7541 243.916 26.6412C243.916 28.4728 243.416 29.9159 242.417 30.9704C241.473 31.9695 240.197 32.469 238.587 32.469ZM238.587 53.2824C236.922 53.2824 235.59 52.7829 234.591 51.7839C233.648 50.7848 233.176 49.3417 233.176 47.4547C233.176 45.6786 233.648 44.2633 234.591 43.2087C235.535 42.1542 236.867 41.6269 238.587 41.6269C240.197 41.6269 241.473 42.1264 242.417 43.1255C243.416 44.1245 243.916 45.5676 243.916 47.4547C243.916 49.2862 243.416 50.7293 242.417 51.7839C241.473 52.7829 240.197 53.2824 238.587 53.2824Z" fill="black"/>
<path d="M180.292 11.6555C178.627 11.6555 177.295 11.156 176.296 10.157C175.353 9.15792 174.881 7.71486 174.881 5.82777C174.881 4.05169 175.353 2.63637 176.296 1.58183C177.24 0.527276 178.572 0 180.292 0C181.902 0 183.178 0.499525 184.122 1.49857C185.121 2.49762 185.621 3.94068 185.621 5.82777C185.621 7.65936 185.121 9.10242 184.122 10.157C183.178 11.156 181.902 11.6555 180.292 11.6555ZM202.521 32.469C200.856 32.469 199.524 31.9695 198.525 30.9704C197.581 29.9714 197.11 28.5283 197.11 26.6412C197.11 24.8651 197.581 23.4498 198.525 22.3953C199.468 21.3407 200.801 20.8135 202.521 20.8135C204.131 20.8135 205.407 21.313 206.351 22.312C207.35 23.3111 207.849 24.7541 207.849 26.6412C207.849 28.4728 207.35 29.9159 206.351 30.9704C205.407 31.9695 204.131 32.469 202.521 32.469Z" fill="black"/>
<path d="M144.228 11.6555C142.563 11.6555 141.231 11.156 140.232 10.157C139.288 9.15792 138.817 7.71486 138.817 5.82777C138.817 4.05169 139.288 2.63637 140.232 1.58183C141.176 0.527275 142.508 0 144.228 0C145.838 0 147.114 0.499525 148.058 1.49857C149.057 2.49762 149.556 3.94068 149.556 5.82777C149.556 7.65935 149.057 9.10242 148.058 10.157C147.114 11.156 145.838 11.6555 144.228 11.6555ZM121.999 11.6555C120.334 11.6555 119.002 11.156 118.003 10.157C117.06 9.15792 116.588 7.71486 116.588 5.82777C116.588 4.05169 117.06 2.63637 118.003 1.58183C118.947 0.527275 120.279 0 121.999 0C123.609 0 124.886 0.499525 125.829 1.49857C126.828 2.49762 127.328 3.94068 127.328 5.82777C127.328 7.65935 126.828 9.10242 125.829 10.157C124.886 11.156 123.609 11.6555 121.999 11.6555Z" fill="black"/>
<path d="M85.9332 11.6555C84.2681 11.6555 82.9361 11.156 81.937 10.157C80.9935 9.15792 80.5217 7.71486 80.5217 5.82777C80.5217 4.05169 80.9935 2.63637 81.937 1.58183C82.8806 0.527275 84.2126 0 85.9332 0C87.5428 0 88.8194 0.499525 89.7629 1.49857C90.7619 2.49762 91.2615 3.94068 91.2615 5.82777C91.2615 7.65935 90.7619 9.10242 89.7629 10.157C88.8194 11.156 87.5428 11.6555 85.9332 11.6555ZM63.7045 11.6555C62.0394 11.6555 60.7073 11.156 59.7083 10.157C58.7647 9.15792 58.293 7.71486 58.293 5.82777C58.293 4.05169 58.7647 2.63637 59.7083 1.58183C60.6518 0.527275 61.9839 0 63.7045 0C65.314 0 66.5906 0.499525 67.5341 1.49857C68.5332 2.49762 69.0327 3.94068 69.0327 5.82777C69.0327 7.65935 68.5332 9.10242 67.5341 10.157C66.5906 11.156 65.314 11.6555 63.7045 11.6555Z" fill="black"/>
<path d="M5.4115 11.6555C3.74642 11.6555 2.41436 11.156 1.41531 10.157C0.471772 9.15792 0 7.71486 0 5.82777C0 4.05169 0.471772 2.63637 1.41531 1.58183C2.35886 0.527275 3.69092 0 5.4115 0C7.02107 0 8.29763 0.499525 9.24117 1.49857C10.2402 2.49762 10.7397 3.94068 10.7397 5.82777C10.7397 7.65935 10.2402 9.10242 9.24117 10.157C8.29763 11.156 7.02107 11.6555 5.4115 11.6555Z" fill="black"/>
</svg>
