<svg width="233" height="57" viewBox="0 0 233 57" fill="none" xmlns="http://www.w3.org/2000/svg">
<rect width="233" height="57" rx="28.5" fill="white" fill-opacity="0.06"/>
<path d="M28.6148 37L24.4348 22.1H26.4948L29.9948 35.22H29.5148L33.1548 22.1H35.2148L38.8348 35.22H38.3348L41.8548 22.1H43.9148L39.7348 37H37.5548L33.9148 23.94H34.4348L30.7948 37H28.6148ZM45.7967 37V22.1H47.7567V28.74H55.2167V22.1H57.1967V37H55.2167V30.54H47.7567V37H45.7967ZM67.6238 37.24C66.5704 37.24 65.5838 37.0533 64.6638 36.68C63.7438 36.2933 62.9371 35.7533 62.2438 35.06C61.5638 34.3667 61.0304 33.5533 60.6438 32.62C60.2571 31.6733 60.0638 30.6467 60.0638 29.54C60.0638 28.42 60.2571 27.3933 60.6438 26.46C61.0304 25.5267 61.5638 24.7133 62.2438 24.02C62.9371 23.3267 63.7371 22.7933 64.6438 22.42C65.5638 22.0467 66.5571 21.86 67.6238 21.86C68.6904 21.86 69.6771 22.0533 70.5838 22.44C71.5038 22.8133 72.3038 23.3467 72.9838 24.04C73.6771 24.72 74.2171 25.5267 74.6038 26.46C75.0038 27.3933 75.2038 28.42 75.2038 29.54C75.2038 30.6467 75.0038 31.6733 74.6038 32.62C74.2171 33.5533 73.6771 34.3667 72.9838 35.06C72.3038 35.7533 71.5038 36.2933 70.5838 36.68C69.6771 37.0533 68.6904 37.24 67.6238 37.24ZM67.6238 35.42C68.4504 35.42 69.2038 35.2733 69.8838 34.98C70.5638 34.6733 71.1504 34.2533 71.6438 33.72C72.1504 33.1733 72.5371 32.5467 72.8038 31.84C73.0838 31.12 73.2238 30.3533 73.2238 29.54C73.2238 28.7267 73.0838 27.9667 72.8038 27.26C72.5371 26.5533 72.1504 25.9333 71.6438 25.4C71.1504 24.8533 70.5638 24.4333 69.8838 24.14C69.2038 23.8333 68.4504 23.68 67.6238 23.68C66.8104 23.68 66.0638 23.8333 65.3838 24.14C64.7038 24.4333 64.1104 24.8533 63.6038 25.4C63.1104 25.9333 62.7238 26.5533 62.4438 27.26C62.1638 27.9667 62.0238 28.7267 62.0238 29.54C62.0238 30.3533 62.1638 31.12 62.4438 31.84C62.7238 32.5467 63.1104 33.1733 63.6038 33.72C64.1104 34.2533 64.7038 34.6733 65.3838 34.98C66.0638 35.2733 66.8104 35.42 67.6238 35.42ZM84.2594 37L80.0794 22.1H82.1394L85.6394 35.22H85.1594L88.7994 22.1H90.8594L94.4794 35.22H93.9794L97.4994 22.1H99.5594L95.3794 37H93.1994L89.5594 23.94H90.0794L86.4394 37H84.2594ZM101.441 37V22.1H111.141V23.9H103.401V28.62H110.741V30.42H103.401V35.2H111.141V37H101.441ZM122.147 37.24C121.201 37.24 120.334 37.0667 119.547 36.72C118.761 36.36 118.094 35.8733 117.547 35.26C117.001 34.6467 116.607 33.96 116.367 33.2L118.067 32.5C118.427 33.46 118.961 34.2 119.667 34.72C120.387 35.2267 121.227 35.48 122.187 35.48C122.774 35.48 123.287 35.3867 123.727 35.2C124.167 35.0133 124.507 34.7533 124.747 34.42C125.001 34.0733 125.127 33.6733 125.127 33.22C125.127 32.5933 124.947 32.1 124.587 31.74C124.241 31.3667 123.727 31.0867 123.047 30.9L120.307 30.06C119.227 29.7267 118.401 29.2 117.827 28.48C117.254 27.76 116.967 26.9333 116.967 26C116.967 25.1867 117.161 24.4733 117.547 23.86C117.947 23.2333 118.494 22.7467 119.187 22.4C119.894 22.04 120.694 21.86 121.587 21.86C122.481 21.86 123.287 22.02 124.007 22.34C124.741 22.66 125.361 23.0933 125.867 23.64C126.374 24.1733 126.747 24.7867 126.987 25.48L125.307 26.18C124.987 25.34 124.507 24.7067 123.867 24.28C123.227 23.84 122.474 23.62 121.607 23.62C121.074 23.62 120.601 23.7133 120.187 23.9C119.787 24.0733 119.474 24.3333 119.247 24.68C119.034 25.0133 118.927 25.4133 118.927 25.88C118.927 26.4267 119.101 26.9133 119.447 27.34C119.794 27.7667 120.321 28.0933 121.027 28.32L123.527 29.06C124.701 29.42 125.587 29.9333 126.187 30.6C126.787 31.2667 127.087 32.0933 127.087 33.08C127.087 33.8933 126.874 34.6133 126.447 35.24C126.034 35.8667 125.454 36.36 124.707 36.72C123.974 37.0667 123.121 37.24 122.147 37.24ZM135.357 37.24C134.277 37.24 133.317 37.0133 132.477 36.56C131.65 36.1067 131.004 35.4867 130.537 34.7C130.084 33.9 129.857 32.9933 129.857 31.98V22.1H131.837V31.94C131.837 32.62 131.984 33.2267 132.277 33.76C132.584 34.28 132.997 34.6867 133.517 34.98C134.05 35.2733 134.664 35.42 135.357 35.42C136.05 35.42 136.657 35.2733 137.177 34.98C137.71 34.6867 138.124 34.28 138.417 33.76C138.724 33.2267 138.877 32.62 138.877 31.94V22.1H140.857V31.98C140.857 32.9933 140.624 33.9 140.157 34.7C139.704 35.4867 139.064 36.1067 138.237 36.56C137.41 37.0133 136.45 37.24 135.357 37.24ZM144.078 37V22.1H149.338C150.325 22.1 151.191 22.2867 151.938 22.66C152.685 23.0333 153.265 23.5667 153.678 24.26C154.105 24.9533 154.318 25.7667 154.318 26.7C154.318 27.6333 154.105 28.4467 153.678 29.14C153.265 29.82 152.685 30.3533 151.938 30.74C151.205 31.1133 150.338 31.3 149.338 31.3H146.038V37H144.078ZM146.038 29.5H149.398C149.998 29.5 150.518 29.3867 150.958 29.16C151.398 28.9333 151.738 28.6067 151.978 28.18C152.218 27.7533 152.338 27.26 152.338 26.7C152.338 26.1267 152.218 25.6333 151.978 25.22C151.738 24.7933 151.398 24.4667 150.958 24.24C150.518 24.0133 149.998 23.9 149.398 23.9H146.038V29.5ZM156.969 37V22.1H162.229C163.215 22.1 164.082 22.2867 164.829 22.66C165.575 23.0333 166.155 23.5667 166.569 24.26C166.995 24.9533 167.209 25.7667 167.209 26.7C167.209 27.6333 166.995 28.4467 166.569 29.14C166.155 29.82 165.575 30.3533 164.829 30.74C164.095 31.1133 163.229 31.3 162.229 31.3H158.929V37H156.969ZM158.929 29.5H162.289C162.889 29.5 163.409 29.3867 163.849 29.16C164.289 28.9333 164.629 28.6067 164.869 28.18C165.109 27.7533 165.229 27.26 165.229 26.7C165.229 26.1267 165.109 25.6333 164.869 25.22C164.629 24.7933 164.289 24.4667 163.849 24.24C163.409 24.0133 162.889 23.9 162.289 23.9H158.929V29.5ZM176.979 37.24C175.926 37.24 174.939 37.0533 174.019 36.68C173.099 36.2933 172.293 35.7533 171.599 35.06C170.919 34.3667 170.386 33.5533 169.999 32.62C169.613 31.6733 169.419 30.6467 169.419 29.54C169.419 28.42 169.613 27.3933 169.999 26.46C170.386 25.5267 170.919 24.7133 171.599 24.02C172.293 23.3267 173.093 22.7933 173.999 22.42C174.919 22.0467 175.913 21.86 176.979 21.86C178.046 21.86 179.033 22.0533 179.939 22.44C180.859 22.8133 181.659 23.3467 182.339 24.04C183.033 24.72 183.573 25.5267 183.959 26.46C184.359 27.3933 184.559 28.42 184.559 29.54C184.559 30.6467 184.359 31.6733 183.959 32.62C183.573 33.5533 183.033 34.3667 182.339 35.06C181.659 35.7533 180.859 36.2933 179.939 36.68C179.033 37.0533 178.046 37.24 176.979 37.24ZM176.979 35.42C177.806 35.42 178.559 35.2733 179.239 34.98C179.919 34.6733 180.506 34.2533 180.999 33.72C181.506 33.1733 181.893 32.5467 182.159 31.84C182.439 31.12 182.579 30.3533 182.579 29.54C182.579 28.7267 182.439 27.9667 182.159 27.26C181.893 26.5533 181.506 25.9333 180.999 25.4C180.506 24.8533 179.919 24.4333 179.239 24.14C178.559 23.8333 177.806 23.68 176.979 23.68C176.166 23.68 175.419 23.8333 174.739 24.14C174.059 24.4333 173.466 24.8533 172.959 25.4C172.466 25.9333 172.079 26.5533 171.799 27.26C171.519 27.9667 171.379 28.7267 171.379 29.54C171.379 30.3533 171.519 31.12 171.799 31.84C172.079 32.5467 172.466 33.1733 172.959 33.72C173.466 34.2533 174.059 34.6733 174.739 34.98C175.419 35.2733 176.166 35.42 176.979 35.42ZM187.418 37V22.1H192.678C193.664 22.1 194.531 22.2867 195.278 22.66C196.024 23.0333 196.604 23.5667 197.018 24.26C197.444 24.9533 197.658 25.7667 197.658 26.7C197.658 27.7533 197.391 28.6467 196.858 29.38C196.324 30.1133 195.604 30.64 194.698 30.96L198.158 37H195.878L192.238 30.54L193.538 31.3H189.378V37H187.418ZM189.378 29.5H192.738C193.324 29.5 193.838 29.3867 194.278 29.16C194.718 28.9333 195.058 28.6067 195.298 28.18C195.551 27.7533 195.678 27.26 195.678 26.7C195.678 26.1267 195.551 25.6333 195.298 25.22C195.058 24.7933 194.718 24.4667 194.278 24.24C193.838 24.0133 193.324 23.9 192.738 23.9H189.378V29.5ZM202.596 37V23.9H198.556V22.1H208.556V23.9H204.576V37H202.596Z" fill="white"/>
</svg>
