<svg width="317" height="64" viewBox="0 0 317 64" fill="none" xmlns="http://www.w3.org/2000/svg">
<rect width="317" height="64" rx="32" fill="url(#paint0_linear_2035_4321)"/>
<rect x="0.5" y="0.5" width="316" height="63" rx="31.5" stroke="url(#paint1_linear_2035_4321)" stroke-opacity="0.16"/>
<path d="M25.3722 40.5V38.3H26.2322C26.8989 38.3 27.4322 38.1067 27.8322 37.72C28.2322 37.32 28.4322 36.7867 28.4322 36.12V25.6H30.7722V36.04C30.7722 36.9467 30.5855 37.7333 30.2122 38.4C29.8522 39.0667 29.3255 39.5867 28.6322 39.96C27.9522 40.32 27.1522 40.5 26.2322 40.5H25.3722ZM38.8252 40.74C37.7852 40.74 36.8318 40.4933 35.9652 40C35.1118 39.5067 34.4318 38.8333 33.9252 37.98C33.4185 37.1267 33.1652 36.16 33.1652 35.08C33.1652 33.9867 33.4185 33.02 33.9252 32.18C34.4318 31.3267 35.1118 30.66 35.9652 30.18C36.8185 29.6867 37.7718 29.44 38.8252 29.44C39.8918 29.44 40.8452 29.6867 41.6852 30.18C42.5385 30.66 43.2118 31.3267 43.7052 32.18C44.2118 33.02 44.4652 33.9867 44.4652 35.08C44.4652 36.1733 44.2118 37.1467 43.7052 38C43.1985 38.8533 42.5185 39.5267 41.6652 40.02C40.8118 40.5 39.8652 40.74 38.8252 40.74ZM38.8252 38.64C39.4652 38.64 40.0318 38.4867 40.5252 38.18C41.0185 37.8733 41.4052 37.4533 41.6852 36.92C41.9785 36.3733 42.1252 35.76 42.1252 35.08C42.1252 34.4 41.9785 33.7933 41.6852 33.26C41.4052 32.7267 41.0185 32.3067 40.5252 32C40.0318 31.6933 39.4652 31.54 38.8252 31.54C38.1985 31.54 37.6318 31.6933 37.1252 32C36.6318 32.3067 36.2385 32.7267 35.9452 33.26C35.6652 33.7933 35.5252 34.4 35.5252 35.08C35.5252 35.76 35.6652 36.3733 35.9452 36.92C36.2385 37.4533 36.6318 37.8733 37.1252 38.18C37.6318 38.4867 38.1985 38.64 38.8252 38.64ZM46.6716 40.5V29.68H48.9316V40.5H46.6716ZM46.6716 28.2V25.6H48.9316V28.2H46.6716ZM51.5739 40.5V29.68H53.7339V31.8L53.4739 31.52C53.7406 30.84 54.1672 30.3267 54.7539 29.98C55.3406 29.62 56.0206 29.44 56.7939 29.44C57.5939 29.44 58.3006 29.6133 58.9139 29.96C59.5272 30.3067 60.0072 30.7867 60.3539 31.4C60.7006 32.0133 60.8739 32.72 60.8739 33.52V40.5H58.6339V34.12C58.6339 33.5733 58.5339 33.1133 58.3339 32.74C58.1339 32.3533 57.8472 32.06 57.4739 31.86C57.1139 31.6467 56.7006 31.54 56.2339 31.54C55.7672 31.54 55.3472 31.6467 54.9739 31.86C54.6139 32.06 54.3339 32.3533 54.1339 32.74C53.9339 33.1267 53.8339 33.5867 53.8339 34.12V40.5H51.5739ZM67.0088 40.5V25.6H76.8288V27.7H69.3688V31.98H76.4288V34.08H69.3688V38.4H76.8288V40.5H67.0088ZM78.8005 40.5V29.68H80.9605V31.8L80.7005 31.52C80.9671 30.84 81.3938 30.3267 81.9805 29.98C82.5671 29.62 83.2471 29.44 84.0205 29.44C84.8205 29.44 85.5271 29.6133 86.1405 29.96C86.7538 30.3067 87.2338 30.7867 87.5805 31.4C87.9271 32.0133 88.1005 32.72 88.1005 33.52V40.5H85.8605V34.12C85.8605 33.5733 85.7605 33.1133 85.5605 32.74C85.3605 32.3533 85.0738 32.06 84.7005 31.86C84.3405 31.6467 83.9271 31.54 83.4605 31.54C82.9938 31.54 82.5738 31.6467 82.2005 31.86C81.8405 32.06 81.5605 32.3533 81.3605 32.74C81.1605 33.1267 81.0605 33.5867 81.0605 34.12V40.5H78.8005ZM93.7592 40.74C93.0259 40.74 92.3792 40.6133 91.8192 40.36C91.2726 40.0933 90.8459 39.7333 90.5392 39.28C90.2326 38.8133 90.0792 38.2667 90.0792 37.64C90.0792 37.0533 90.2059 36.5267 90.4592 36.06C90.7259 35.5933 91.1326 35.2 91.6792 34.88C92.2259 34.56 92.9126 34.3333 93.7392 34.2L97.4992 33.58V35.36L94.1792 35.94C93.5792 36.0467 93.1392 36.24 92.8592 36.52C92.5792 36.7867 92.4392 37.1333 92.4392 37.56C92.4392 37.9733 92.5926 38.3133 92.8992 38.58C93.2192 38.8333 93.6259 38.96 94.1192 38.96C94.7326 38.96 95.2659 38.8267 95.7192 38.56C96.1859 38.2933 96.5459 37.94 96.7992 37.5C97.0526 37.0467 97.1792 36.5467 97.1792 36V33.22C97.1792 32.6867 96.9792 32.2533 96.5792 31.92C96.1926 31.5733 95.6726 31.4 95.0192 31.4C94.4192 31.4 93.8926 31.56 93.4392 31.88C92.9992 32.1867 92.6726 32.5867 92.4592 33.08L90.5792 32.14C90.7792 31.6067 91.1059 31.14 91.5592 30.74C92.0126 30.3267 92.5392 30.0067 93.1392 29.78C93.7526 29.5533 94.3992 29.44 95.0792 29.44C95.9326 29.44 96.6859 29.6 97.3392 29.92C98.0059 30.24 98.5192 30.6867 98.8792 31.26C99.2526 31.82 99.4392 32.4733 99.4392 33.22V40.5H97.2792V38.54L97.7392 38.6C97.4859 39.04 97.1592 39.42 96.7592 39.74C96.3726 40.06 95.9259 40.3067 95.4192 40.48C94.9259 40.6533 94.3726 40.74 93.7592 40.74ZM107.862 40.74C107.022 40.74 106.255 40.5667 105.562 40.22C104.882 39.8733 104.355 39.3733 103.982 38.72L104.242 38.3V40.5H102.082V25.36H104.342V31.92L103.982 31.4C104.382 30.7867 104.915 30.3067 105.582 29.96C106.248 29.6133 107.008 29.44 107.862 29.44C108.888 29.44 109.808 29.6867 110.622 30.18C111.448 30.6733 112.095 31.3467 112.562 32.2C113.042 33.0533 113.282 34.0133 113.282 35.08C113.282 36.1467 113.042 37.1067 112.562 37.96C112.095 38.8133 111.455 39.4933 110.642 40C109.828 40.4933 108.902 40.74 107.862 40.74ZM107.642 38.64C108.282 38.64 108.848 38.4867 109.342 38.18C109.835 37.8733 110.222 37.4533 110.502 36.92C110.795 36.3733 110.942 35.76 110.942 35.08C110.942 34.4 110.795 33.7933 110.502 33.26C110.222 32.7267 109.835 32.3067 109.342 32C108.848 31.6933 108.282 31.54 107.642 31.54C107.015 31.54 106.448 31.6933 105.942 32C105.448 32.3067 105.055 32.7267 104.762 33.26C104.482 33.7933 104.342 34.4 104.342 35.08C104.342 35.76 104.482 36.3733 104.762 36.92C105.055 37.4533 105.448 37.8733 105.942 38.18C106.448 38.4867 107.015 38.64 107.642 38.64ZM115.48 40.5V25.36H117.74V40.5H115.48ZM125.463 40.74C124.383 40.74 123.423 40.4933 122.583 40C121.756 39.4933 121.109 38.8133 120.643 37.96C120.176 37.0933 119.943 36.1267 119.943 35.06C119.943 33.9667 120.176 33 120.643 32.16C121.123 31.32 121.763 30.66 122.563 30.18C123.363 29.6867 124.269 29.44 125.283 29.44C126.096 29.44 126.823 29.58 127.463 29.86C128.103 30.14 128.643 30.5267 129.083 31.02C129.523 31.5 129.856 32.0533 130.082 32.68C130.323 33.3067 130.443 33.9733 130.443 34.68C130.443 34.8533 130.436 35.0333 130.423 35.22C130.409 35.4067 130.383 35.58 130.343 35.74H121.723V33.94H129.062L127.983 34.76C128.116 34.1067 128.069 33.5267 127.843 33.02C127.629 32.5 127.296 32.0933 126.843 31.8C126.403 31.4933 125.883 31.34 125.283 31.34C124.683 31.34 124.149 31.4933 123.683 31.8C123.216 32.0933 122.856 32.52 122.603 33.08C122.349 33.6267 122.249 34.2933 122.303 35.08C122.236 35.8133 122.336 36.4533 122.603 37C122.883 37.5467 123.269 37.9733 123.763 38.28C124.269 38.5867 124.843 38.74 125.483 38.74C126.136 38.74 126.689 38.5933 127.143 38.3C127.609 38.0067 127.976 37.6267 128.243 37.16L130.082 38.06C129.869 38.5667 129.536 39.0267 129.083 39.44C128.643 39.84 128.109 40.16 127.483 40.4C126.869 40.6267 126.196 40.74 125.463 40.74ZM137.648 40.74C136.608 40.74 135.675 40.4933 134.848 40C134.035 39.4933 133.388 38.8133 132.908 37.96C132.441 37.1067 132.208 36.1467 132.208 35.08C132.208 34.0133 132.448 33.0533 132.928 32.2C133.408 31.3467 134.055 30.6733 134.868 30.18C135.681 29.6867 136.601 29.44 137.628 29.44C138.495 29.44 139.261 29.6133 139.928 29.96C140.595 30.3067 141.121 30.7867 141.508 31.4L141.168 31.92V25.36H143.408V40.5H141.268V38.3L141.528 38.72C141.155 39.3733 140.621 39.8733 139.928 40.22C139.235 40.5667 138.475 40.74 137.648 40.74ZM137.868 38.64C138.495 38.64 139.055 38.4867 139.548 38.18C140.055 37.8733 140.448 37.4533 140.728 36.92C141.021 36.3733 141.168 35.76 141.168 35.08C141.168 34.4 141.021 33.7933 140.728 33.26C140.448 32.7267 140.055 32.3067 139.548 32C139.055 31.6933 138.495 31.54 137.868 31.54C137.241 31.54 136.675 31.6933 136.168 32C135.661 32.3067 135.268 32.7267 134.988 33.26C134.708 33.7933 134.568 34.4 134.568 35.08C134.568 35.76 134.708 36.3733 134.988 36.92C135.268 37.4533 135.655 37.8733 136.148 38.18C136.655 38.4867 137.228 38.64 137.868 38.64ZM148.443 40.5L153.683 25.6H156.603L161.843 40.5H159.323L158.183 37.16H152.123L150.963 40.5H148.443ZM152.803 35.06H157.463L154.823 27.26H155.483L152.803 35.06ZM168.14 40.74C167.06 40.74 166.1 40.4933 165.26 40C164.433 39.4933 163.773 38.8133 163.28 37.96C162.8 37.1067 162.56 36.14 162.56 35.06C162.56 33.9933 162.8 33.0333 163.28 32.18C163.76 31.3267 164.42 30.66 165.26 30.18C166.1 29.6867 167.06 29.44 168.14 29.44C168.873 29.44 169.56 29.5733 170.2 29.84C170.84 30.0933 171.393 30.4467 171.86 30.9C172.34 31.3533 172.693 31.88 172.92 32.48L170.94 33.4C170.713 32.84 170.346 32.3933 169.84 32.06C169.346 31.7133 168.78 31.54 168.14 31.54C167.526 31.54 166.973 31.6933 166.48 32C166 32.2933 165.62 32.7133 165.34 33.26C165.06 33.7933 164.92 34.4 164.92 35.08C164.92 35.76 165.06 36.3733 165.34 36.92C165.62 37.4533 166 37.8733 166.48 38.18C166.973 38.4867 167.526 38.64 168.14 38.64C168.793 38.64 169.36 38.4733 169.84 38.14C170.333 37.7933 170.7 37.3333 170.94 36.76L172.92 37.7C172.706 38.2733 172.36 38.7933 171.88 39.26C171.413 39.7133 170.86 40.0733 170.22 40.34C169.58 40.6067 168.886 40.74 168.14 40.74ZM178.271 40.74C177.538 40.74 176.891 40.6133 176.331 40.36C175.784 40.0933 175.358 39.7333 175.051 39.28C174.744 38.8133 174.591 38.2667 174.591 37.64C174.591 37.0533 174.718 36.5267 174.971 36.06C175.238 35.5933 175.644 35.2 176.191 34.88C176.738 34.56 177.424 34.3333 178.251 34.2L182.011 33.58V35.36L178.691 35.94C178.091 36.0467 177.651 36.24 177.371 36.52C177.091 36.7867 176.951 37.1333 176.951 37.56C176.951 37.9733 177.104 38.3133 177.411 38.58C177.731 38.8333 178.138 38.96 178.631 38.96C179.244 38.96 179.778 38.8267 180.231 38.56C180.698 38.2933 181.058 37.94 181.311 37.5C181.564 37.0467 181.691 36.5467 181.691 36V33.22C181.691 32.6867 181.491 32.2533 181.091 31.92C180.704 31.5733 180.184 31.4 179.531 31.4C178.931 31.4 178.404 31.56 177.951 31.88C177.511 32.1867 177.184 32.5867 176.971 33.08L175.091 32.14C175.291 31.6067 175.618 31.14 176.071 30.74C176.524 30.3267 177.051 30.0067 177.651 29.78C178.264 29.5533 178.911 29.44 179.591 29.44C180.444 29.44 181.198 29.6 181.851 29.92C182.518 30.24 183.031 30.6867 183.391 31.26C183.764 31.82 183.951 32.4733 183.951 33.22V40.5H181.791V38.54L182.251 38.6C181.998 39.04 181.671 39.42 181.271 39.74C180.884 40.06 180.438 40.3067 179.931 40.48C179.438 40.6533 178.884 40.74 178.271 40.74ZM191.593 40.74C190.553 40.74 189.62 40.4933 188.793 40C187.98 39.4933 187.333 38.8133 186.853 37.96C186.387 37.1067 186.153 36.1467 186.153 35.08C186.153 34.0133 186.393 33.0533 186.873 32.2C187.353 31.3467 188 30.6733 188.813 30.18C189.627 29.6867 190.547 29.44 191.573 29.44C192.44 29.44 193.207 29.6133 193.873 29.96C194.54 30.3067 195.067 30.7867 195.453 31.4L195.113 31.92V25.36H197.353V40.5H195.213V38.3L195.473 38.72C195.1 39.3733 194.567 39.8733 193.873 40.22C193.18 40.5667 192.42 40.74 191.593 40.74ZM191.813 38.64C192.44 38.64 193 38.4867 193.493 38.18C194 37.8733 194.393 37.4533 194.673 36.92C194.967 36.3733 195.113 35.76 195.113 35.08C195.113 34.4 194.967 33.7933 194.673 33.26C194.393 32.7267 194 32.3067 193.493 32C193 31.6933 192.44 31.54 191.813 31.54C191.187 31.54 190.62 31.6933 190.113 32C189.607 32.3067 189.213 32.7267 188.933 33.26C188.653 33.7933 188.513 34.4 188.513 35.08C188.513 35.76 188.653 36.3733 188.933 36.92C189.213 37.4533 189.6 37.8733 190.093 38.18C190.6 38.4867 191.173 38.64 191.813 38.64ZM205.072 40.74C203.992 40.74 203.032 40.4933 202.192 40C201.365 39.4933 200.719 38.8133 200.252 37.96C199.785 37.0933 199.552 36.1267 199.552 35.06C199.552 33.9667 199.785 33 200.252 32.16C200.732 31.32 201.372 30.66 202.172 30.18C202.972 29.6867 203.879 29.44 204.892 29.44C205.705 29.44 206.432 29.58 207.072 29.86C207.712 30.14 208.252 30.5267 208.692 31.02C209.132 31.5 209.465 32.0533 209.692 32.68C209.932 33.3067 210.052 33.9733 210.052 34.68C210.052 34.8533 210.045 35.0333 210.032 35.22C210.019 35.4067 209.992 35.58 209.952 35.74H201.332V33.94H208.672L207.592 34.76C207.725 34.1067 207.679 33.5267 207.452 33.02C207.239 32.5 206.905 32.0933 206.452 31.8C206.012 31.4933 205.492 31.34 204.892 31.34C204.292 31.34 203.759 31.4933 203.292 31.8C202.825 32.0933 202.465 32.52 202.212 33.08C201.959 33.6267 201.859 34.2933 201.912 35.08C201.845 35.8133 201.945 36.4533 202.212 37C202.492 37.5467 202.879 37.9733 203.372 38.28C203.879 38.5867 204.452 38.74 205.092 38.74C205.745 38.74 206.299 38.5933 206.752 38.3C207.219 38.0067 207.585 37.6267 207.852 37.16L209.692 38.06C209.479 38.5667 209.145 39.0267 208.692 39.44C208.252 39.84 207.719 40.16 207.092 40.4C206.479 40.6267 205.805 40.74 205.072 40.74ZM212.257 40.5V29.68H214.418V32.02L214.138 31.66C214.364 30.9267 214.778 30.3733 215.378 30C215.978 29.6267 216.664 29.44 217.438 29.44C218.304 29.44 219.071 29.6733 219.738 30.14C220.418 30.5933 220.871 31.2 221.098 31.96L220.458 32.02C220.778 31.1533 221.264 30.5067 221.918 30.08C222.584 29.6533 223.344 29.44 224.198 29.44C224.944 29.44 225.618 29.6133 226.218 29.96C226.831 30.3067 227.318 30.7867 227.678 31.4C228.038 32.0133 228.218 32.7133 228.218 33.5V40.5H225.958V34.12C225.958 33.5733 225.858 33.1133 225.658 32.74C225.471 32.3533 225.204 32.06 224.858 31.86C224.524 31.6467 224.131 31.54 223.678 31.54C223.224 31.54 222.824 31.6467 222.478 31.86C222.131 32.06 221.858 32.3533 221.658 32.74C221.458 33.1267 221.358 33.5867 221.358 34.12V40.5H219.118V34.12C219.118 33.5733 219.018 33.1133 218.818 32.74C218.631 32.3533 218.364 32.06 218.018 31.86C217.684 31.6467 217.284 31.54 216.817 31.54C216.364 31.54 215.964 31.6467 215.618 31.86C215.271 32.06 214.998 32.3533 214.798 32.74C214.611 33.1267 214.518 33.5867 214.518 34.12V40.5H212.257ZM231.401 44.9C231.134 44.9 230.868 44.8733 230.601 44.82C230.348 44.78 230.114 44.7133 229.901 44.62V42.68C230.061 42.72 230.254 42.7533 230.481 42.78C230.708 42.82 230.928 42.84 231.141 42.84C231.768 42.84 232.228 42.7 232.521 42.42C232.828 42.1533 233.101 41.74 233.341 41.18L234.061 39.54L234.021 41.44L229.341 29.68H231.761L235.221 38.7H234.401L237.841 29.68H240.281L235.501 41.68C235.248 42.32 234.928 42.88 234.541 43.36C234.168 43.8533 233.721 44.2333 233.201 44.5C232.694 44.7667 232.094 44.9 231.401 44.9Z" fill="black"/>
<g clip-path="url(#clip0_2035_4321)">
<rect x="261" y="8" width="48" height="48" rx="24" fill="black" fill-opacity="0.16"/>
<path d="M298.061 33.0607C298.646 32.4749 298.646 31.5251 298.061 30.9393L288.515 21.3934C287.929 20.8076 286.979 20.8076 286.393 21.3934C285.808 21.9792 285.808 22.9289 286.393 23.5147L294.879 32L286.393 40.4853C285.808 41.0711 285.808 42.0208 286.393 42.6066C286.979 43.1924 287.929 43.1924 288.515 42.6066L298.061 33.0607ZM273 32V33.5H297V32V30.5H273V32Z" fill="#182434"/>
</g>
<defs>
<linearGradient id="paint0_linear_2035_4321" x1="0" y1="32" x2="317" y2="32" gradientUnits="userSpaceOnUse">
<stop stop-color="#FFD071"/>
<stop offset="1" stop-color="#EFB745"/>
</linearGradient>
<linearGradient id="paint1_linear_2035_4321" x1="212.746" y1="64" x2="156.731" y2="-30.9563" gradientUnits="userSpaceOnUse">
<stop stop-color="white"/>
<stop offset="1"/>
</linearGradient>
<clipPath id="clip0_2035_4321">
<rect x="261" y="8" width="48" height="48" rx="24" fill="white"/>
</clipPath>
</defs>
</svg>
