<svg width="204" height="64" viewBox="0 0 204 64" fill="none" xmlns="http://www.w3.org/2000/svg">
<rect width="204" height="64" rx="32" fill="url(#paint0_linear_2035_199)"/>
<rect x="0.5" y="0.5" width="203" height="63" rx="31.5" stroke="url(#paint1_linear_2035_199)" stroke-opacity="0.16"/>
<path d="M25.8213 40.5V25.6H35.5213V27.7H28.1813V32.18H34.7213V34.28H28.1813V40.5H25.8213ZM42.208 40.74C41.168 40.74 40.2146 40.4933 39.348 40C38.4946 39.5067 37.8146 38.8333 37.308 37.98C36.8013 37.1267 36.548 36.16 36.548 35.08C36.548 33.9867 36.8013 33.02 37.308 32.18C37.8146 31.3267 38.4946 30.66 39.348 30.18C40.2013 29.6867 41.1546 29.44 42.208 29.44C43.2746 29.44 44.228 29.6867 45.068 30.18C45.9213 30.66 46.5946 31.3267 47.088 32.18C47.5946 33.02 47.848 33.9867 47.848 35.08C47.848 36.1733 47.5946 37.1467 47.088 38C46.5813 38.8533 45.9013 39.5267 45.048 40.02C44.1946 40.5 43.248 40.74 42.208 40.74ZM42.208 38.64C42.848 38.64 43.4146 38.4867 43.908 38.18C44.4013 37.8733 44.788 37.4533 45.068 36.92C45.3613 36.3733 45.508 35.76 45.508 35.08C45.508 34.4 45.3613 33.7933 45.068 33.26C44.788 32.7267 44.4013 32.3067 43.908 32C43.4146 31.6933 42.848 31.54 42.208 31.54C41.5813 31.54 41.0146 31.6933 40.508 32C40.0146 32.3067 39.6213 32.7267 39.328 33.26C39.048 33.7933 38.908 34.4 38.908 35.08C38.908 35.76 39.048 36.3733 39.328 36.92C39.6213 37.4533 40.0146 37.8733 40.508 38.18C41.0146 38.4867 41.5813 38.64 42.208 38.64ZM50.0544 40.5V29.68H52.2144V31.86L52.0144 31.54C52.2544 30.8333 52.641 30.3267 53.1744 30.02C53.7077 29.7 54.3477 29.54 55.0944 29.54H55.7544V31.6H54.8144C54.0677 31.6 53.461 31.8333 52.9944 32.3C52.541 32.7533 52.3144 33.4067 52.3144 34.26V40.5H50.0544ZM63.6566 40.5V27.7H59.6966V25.6H69.8966V27.7H65.9966V40.5H63.6566ZM73.4897 40.74C72.7564 40.74 72.1097 40.6133 71.5497 40.36C71.003 40.0933 70.5764 39.7333 70.2697 39.28C69.963 38.8133 69.8097 38.2667 69.8097 37.64C69.8097 37.0533 69.9364 36.5267 70.1897 36.06C70.4564 35.5933 70.863 35.2 71.4097 34.88C71.9564 34.56 72.643 34.3333 73.4697 34.2L77.2297 33.58V35.36L73.9097 35.94C73.3097 36.0467 72.8697 36.24 72.5897 36.52C72.3097 36.7867 72.1697 37.1333 72.1697 37.56C72.1697 37.9733 72.323 38.3133 72.6297 38.58C72.9497 38.8333 73.3564 38.96 73.8497 38.96C74.463 38.96 74.9964 38.8267 75.4497 38.56C75.9164 38.2933 76.2764 37.94 76.5297 37.5C76.783 37.0467 76.9097 36.5467 76.9097 36V33.22C76.9097 32.6867 76.7097 32.2533 76.3097 31.92C75.923 31.5733 75.403 31.4 74.7497 31.4C74.1497 31.4 73.623 31.56 73.1697 31.88C72.7297 32.1867 72.403 32.5867 72.1897 33.08L70.3097 32.14C70.5097 31.6067 70.8364 31.14 71.2897 30.74C71.743 30.3267 72.2697 30.0067 72.8697 29.78C73.483 29.5533 74.1297 29.44 74.8097 29.44C75.663 29.44 76.4164 29.6 77.0697 29.92C77.7364 30.24 78.2497 30.6867 78.6097 31.26C78.983 31.82 79.1697 32.4733 79.1697 33.22V40.5H77.0097V38.54L77.4697 38.6C77.2164 39.04 76.8897 39.42 76.4897 39.74C76.103 40.06 75.6564 40.3067 75.1497 40.48C74.6564 40.6533 74.103 40.74 73.4897 40.74ZM81.8122 40.5V25.36H84.0722V40.5H81.8122ZM91.7945 40.74C90.7145 40.74 89.7545 40.4933 88.9145 40C88.0879 39.4933 87.4412 38.8133 86.9745 37.96C86.5079 37.0933 86.2745 36.1267 86.2745 35.06C86.2745 33.9667 86.5079 33 86.9745 32.16C87.4545 31.32 88.0945 30.66 88.8945 30.18C89.6945 29.6867 90.6012 29.44 91.6145 29.44C92.4279 29.44 93.1545 29.58 93.7945 29.86C94.4345 30.14 94.9745 30.5267 95.4145 31.02C95.8545 31.5 96.1879 32.0533 96.4145 32.68C96.6545 33.3067 96.7745 33.9733 96.7745 34.68C96.7745 34.8533 96.7679 35.0333 96.7545 35.22C96.7412 35.4067 96.7145 35.58 96.6745 35.74H88.0545V33.94H95.3945L94.3145 34.76C94.4479 34.1067 94.4012 33.5267 94.1745 33.02C93.9612 32.5 93.6279 32.0933 93.1745 31.8C92.7345 31.4933 92.2145 31.34 91.6145 31.34C91.0145 31.34 90.4812 31.4933 90.0145 31.8C89.5479 32.0933 89.1879 32.52 88.9345 33.08C88.6812 33.6267 88.5812 34.2933 88.6345 35.08C88.5679 35.8133 88.6679 36.4533 88.9345 37C89.2145 37.5467 89.6012 37.9733 90.0945 38.28C90.6012 38.5867 91.1745 38.74 91.8145 38.74C92.4679 38.74 93.0212 38.5933 93.4745 38.3C93.9412 38.0067 94.3079 37.6267 94.5745 37.16L96.4145 38.06C96.2012 38.5667 95.8679 39.0267 95.4145 39.44C94.9745 39.84 94.4412 40.16 93.8145 40.4C93.2012 40.6267 92.5279 40.74 91.7945 40.74ZM98.9802 40.5V29.68H101.14V31.8L100.88 31.52C101.147 30.84 101.573 30.3267 102.16 29.98C102.747 29.62 103.427 29.44 104.2 29.44C105 29.44 105.707 29.6133 106.32 29.96C106.933 30.3067 107.413 30.7867 107.76 31.4C108.107 32.0133 108.28 32.72 108.28 33.52V40.5H106.04V34.12C106.04 33.5733 105.94 33.1133 105.74 32.74C105.54 32.3533 105.253 32.06 104.88 31.86C104.52 31.6467 104.107 31.54 103.64 31.54C103.173 31.54 102.753 31.6467 102.38 31.86C102.02 32.06 101.74 32.3533 101.54 32.74C101.34 33.1267 101.24 33.5867 101.24 34.12V40.5H98.9802ZM115.379 40.62C114.246 40.62 113.366 40.3 112.739 39.66C112.112 39.02 111.799 38.12 111.799 36.96V31.72H109.899V29.68H110.199C110.706 29.68 111.099 29.5333 111.379 29.24C111.659 28.9467 111.799 28.5467 111.799 28.04V27.2H114.059V29.68H116.519V31.72H114.059V36.86C114.059 37.2333 114.119 37.5533 114.239 37.82C114.359 38.0733 114.552 38.2733 114.819 38.42C115.086 38.5533 115.432 38.62 115.859 38.62C115.966 38.62 116.086 38.6133 116.219 38.6C116.352 38.5867 116.479 38.5733 116.599 38.56V40.5C116.412 40.5267 116.206 40.5533 115.979 40.58C115.752 40.6067 115.552 40.62 115.379 40.62ZM122.804 40.74C121.698 40.74 120.724 40.4667 119.884 39.92C119.058 39.3733 118.478 38.64 118.144 37.72L119.884 36.9C120.178 37.5133 120.578 38 121.084 38.36C121.604 38.72 122.178 38.9 122.804 38.9C123.338 38.9 123.771 38.78 124.104 38.54C124.438 38.3 124.604 37.9733 124.604 37.56C124.604 37.2933 124.531 37.08 124.384 36.92C124.238 36.7467 124.051 36.6067 123.824 36.5C123.611 36.3933 123.391 36.3133 123.164 36.26L121.464 35.78C120.531 35.5133 119.831 35.1133 119.364 34.58C118.911 34.0333 118.684 33.4 118.684 32.68C118.684 32.0267 118.851 31.46 119.184 30.98C119.518 30.4867 119.978 30.1067 120.564 29.84C121.151 29.5733 121.811 29.44 122.544 29.44C123.531 29.44 124.411 29.6867 125.184 30.18C125.958 30.66 126.504 31.3333 126.824 32.2L125.084 33.02C124.871 32.5 124.531 32.0867 124.064 31.78C123.611 31.4733 123.098 31.32 122.524 31.32C122.031 31.32 121.638 31.44 121.344 31.68C121.051 31.9067 120.904 32.2067 120.904 32.58C120.904 32.8333 120.971 33.0467 121.104 33.22C121.238 33.38 121.411 33.5133 121.624 33.62C121.838 33.7133 122.058 33.7933 122.284 33.86L124.044 34.38C124.938 34.6333 125.624 35.0333 126.104 35.58C126.584 36.1133 126.824 36.7533 126.824 37.5C126.824 38.14 126.651 38.7067 126.304 39.2C125.971 39.68 125.504 40.06 124.904 40.34C124.304 40.6067 123.604 40.74 122.804 40.74Z" fill="white"/>
<g clip-path="url(#clip0_2035_199)">
<rect x="148" y="8" width="48" height="48" rx="24" fill="white" fill-opacity="0.16"/>
<path d="M185.061 33.0607C185.646 32.4749 185.646 31.5251 185.061 30.9393L175.515 21.3934C174.929 20.8076 173.979 20.8076 173.393 21.3934C172.808 21.9792 172.808 22.9289 173.393 23.5147L181.879 32L173.393 40.4853C172.808 41.0711 172.808 42.0208 173.393 42.6066C173.979 43.1924 174.929 43.1924 175.515 42.6066L185.061 33.0607ZM160 32V33.5H184V32V30.5H160V32Z" fill="white"/>
</g>
<defs>
<linearGradient id="paint0_linear_2035_199" x1="0" y1="32" x2="204" y2="32" gradientUnits="userSpaceOnUse">
<stop stop-color="#2B476D"/>
<stop offset="1" stop-color="#182434"/>
</linearGradient>
<linearGradient id="paint1_linear_2035_199" x1="136.909" y1="64" x2="73.1506" y2="-5.55471" gradientUnits="userSpaceOnUse">
<stop stop-color="white"/>
<stop offset="1"/>
</linearGradient>
<clipPath id="clip0_2035_199">
<rect x="148" y="8" width="48" height="48" rx="24" fill="white"/>
</clipPath>
</defs>
</svg>
