<svg width="86" height="295" viewBox="0 0 86 295" fill="none" xmlns="http://www.w3.org/2000/svg">
<path fill-rule="evenodd" clip-rule="evenodd" d="M14.8877 1.90043C7.74338 5.47481 8.11905 8.48519 16.3914 12.6239C33.6881 21.4658 37.2603 32.7528 39.8924 90.1311C41.7725 131.895 42.7126 131.707 50.421 141.866C35.3803 155.411 34.8161 153.718 33.312 207.335C31.4321 274.495 31.2443 275.06 12.0677 280.704C0.411085 284.089 -2.97295 288.228 2.66731 292.554C10.9397 298.763 51.1731 293.119 59.4455 275.999C63.5816 267.347 64.1454 251.731 65.2734 215.987C66.7775 160.679 67.3417 158.797 79.5622 149.391C87.4585 143.371 88.0227 139.421 81.6304 136.975C74.11 134.153 72.9818 129.45 72.9818 99.9139C72.9818 53.6351 68.8456 28.4268 56.813 14.6935C47.7887 3.97036 25.9801 -3.74335 14.8877 1.90043Z" fill="white"/>
</svg>
